<svg id="Layer_1" data-name="Layer 1" xmlns="http://www.w3.org/2000/svg" viewBox="0 0 96.56 89.23"><defs><style>.cls-1{fill:#1a1a1a;}</style></defs><path class="cls-1" d="M43.21,50.3a18.79,18.79,0,0,0-2.6-7.84Q37.63,38,30.34,38c-2.63,0-4.36.55-5.19,1.63S24,42.88,24,46.21V74.62h4.9a15.83,15.83,0,0,0,8-1.73v3.22a53.51,53.51,0,0,1-7,.43H24v16.9a14.84,14.84,0,0,0,.77,5.47,4.1,4.1,0,0,0,3,2.4,28.83,28.83,0,0,0,6.34.67v2q-2.79-.19-7.2-.19t-9.12-.1q-4,0-7.78.1c-2.49,0-4.67.06-6.52.19v-1.92a17.09,17.09,0,0,0,4.7-.77A3.19,3.19,0,0,0,10.27,99a17.26,17.26,0,0,0,.58-5.19V46.21A16.73,16.73,0,0,0,10.27,41a3.19,3.19,0,0,0-2.11-2.3A13.48,13.48,0,0,0,3.46,38V36c1.6.07,3.64.13,6.14.19s5,.1,7.49.1q4.69,0,8.93-.1c2.81-.06,4.8-.09,5.95-.09q12.86,0,19.1,5.28a16.77,16.77,0,0,1,5.74,8.8l-.89,0c-2.76.06-5.73.09-8.83.09Z" transform="translate(-3.46 -36.03)"/><path class="cls-1" d="M98.68,118.35a11.74,11.74,0,0,1-1.92,2,3.9,3.9,0,0,1-2.3.67,3.15,3.15,0,0,1-3-1.54,22.22,22.22,0,0,1-1.82-5.66L87.45,104q-1.24-6-5.09-8.83T70.65,91.38l-.5-.08c-1-.16-2.18-.3-3.44-.4s-3.13-.26-5.18-.39c-1.19-.11-2.57-.22-4.13-.31-1-.06-2.16-.12-3.36-.17l.19,1.63H64.6a6.91,6.91,0,0,1,5.09,1.73,11.51,11.51,0,0,1,2.69,4.8,52.27,52.27,0,0,1,1.82,7.11L76,114.9q1.16,6,4.32,8.25a13.73,13.73,0,0,0,7.78,2.11,15.2,15.2,0,0,0,6.82-1.34A16.87,16.87,0,0,0,100,119.5ZM88,63.92a17.36,17.36,0,0,0-8.44-5.76,40.56,40.56,0,0,0-14.21-2.11c-1.15,0-3.14,0-6,.09s-5.8.1-8.93.1c-2.5,0-5,0-7.49-.1S38.46,56,36.86,56v1.92a13.48,13.48,0,0,1,4.7.77,3.19,3.19,0,0,1,2.11,2.3,16.73,16.73,0,0,1,.58,5.19v47.61a17.26,17.26,0,0,1-.58,5.19,3.19,3.19,0,0,1-2.11,2.3,17.09,17.09,0,0,1-4.7.77v1.92c1.6-.13,3.64-.19,6.14-.19s5.18-.1,8.06-.1q3.84,0,7.59.1t6.14.19V122a18.07,18.07,0,0,1-4.7-.77,3.43,3.43,0,0,1-2.11-2.3,17.26,17.26,0,0,1-.58-5.19V91.66h5.86a60.71,60.71,0,0,0,6.89-.36,33.18,33.18,0,0,0,6.64-1.36,24,24,0,0,0,8.45-4.61,15.82,15.82,0,0,0,4.32-6,18.76,18.76,0,0,0,1.25-6.53A14.38,14.38,0,0,0,88,63.92Zm-12.19,18a10.34,10.34,0,0,1-4.32,5.76q-3.17,2.12-9.21,2.11H57.4V66.13q0-5,1.15-6.63c.83-1.08,2.56-1.63,5.19-1.63Q71,57.87,74,62.1t3,11.71A26.6,26.6,0,0,1,75.83,81.87Z" transform="translate(-3.46 -36.03)"/></svg>