<svg width="69" height="100" viewBox="0 0 69 100" fill="none" xmlns="http://www.w3.org/2000/svg">
<path d="M20.4596 99.8251C14.0504 99.4048 8.60761 98.107 7.46388 96.6529C6.34608 95.2319 5.45585 91.3389 6.84681 87.8232C8.64571 84.0887 7.88868 83.6891 6.99521 79.6452C5.18612 71.4564 3.93012 65.8043 3.91978 55.2068C3.90948 49.3065 4.08538 44.6592 4.38409 42.6168C4.97895 38.548 6.25539 31.0314 6.74298 29.7692C7.03483 29.0137 6.96604 28.5269 6.41437 27.4449C6.03056 26.6922 5.70799 25.6654 5.69725 25.1632C5.68107 24.4108 6.14317 24.0915 4.35781 23.2177C1.1101 21.6283 0.237523 20.2816 0.241837 17.128C0.252132 12.9823 1.92332 10.0941 5.0914 8.77042C7.59644 7.72371 9.40676 6.23248 10.3142 4.4683C11.6866 1.79984 14.3853 -0.0326838 17.481 0.000441846C19.461 0.0216693 21.2039 0.686055 23.9181 2.45438C27.284 4.64738 27.9245 4.68161 31.6225 2.86614C33.3354 2.02522 34.927 1.31169 36.047 1.16148C37.1669 1.01126 39.9383 2.03211 41.2067 3.44813C42.4751 4.86415 42.485 4.25736 43.8036 3.80806C45.1222 3.35876 45.9881 3.22209 46.5562 3.22209C49.062 3.22209 51.1566 5.7354 50.9384 8.30825C50.8218 9.68253 50.8385 9.70153 53.1548 10.8809C56.1025 12.3815 56.9385 13.6844 56.9181 16.7454C56.8965 19.9038 54.9326 23.4248 52.4866 24.697C51.3895 25.2677 51.7735 24.0528 52.5009 29.0461C52.4886 31.4425 55.4072 30.3951 57.2284 30.3951C62.4362 30.3951 64.7807 31.9809 66.2302 34.123C68.1112 36.9029 68.5367 39.2756 68.7197 48.0053C69.0217 62.4144 67.6208 68.1805 62.0328 70.6882C60.121 71.5462 58.78 71.8146 56.7067 71.6662L54.3028 71.4942C52.8663 74.9281 52.7706 79.6324 52.3653 81.8984C51.8637 83.8239 52.3722 84.5773 53.1002 87.5242C54.0413 91.3333 53.9004 94.1486 52.2878 95.7562C49.9989 98.0379 43.1607 99.3566 33.769 99.6938C30.9992 99.7932 27.7617 99.9218 26.5747 99.9796C25.3877 100.037 22.6359 99.9679 20.4596 99.8251ZM41.3772 95.1041C47.2814 94.428 48.6187 93.993 49.5174 92.4558C50.1405 91.3901 50.167 91.0233 49.8009 88.5348C49.219 84.5802 49.2969 81.4631 50.1156 75.9242C51.2026 68.5713 51.6326 59.8545 51.3859 50.1777C51.1428 40.6525 50.4536 32.4586 49.5701 28.5948L48.9944 26.0768L46.8768 26.197C44.2741 26.3448 43.4735 25.943 42.4919 23.9964C42.0712 23.1622 41.663 22.4092 41.5849 22.3231C41.5063 22.237 40.6668 23.0059 39.7187 24.0318C38.1842 25.6923 37.834 25.8969 36.5279 25.8969C35.6241 25.8969 34.7376 25.6354 34.2195 25.2158C33.3941 24.5474 33.362 24.5474 32.5123 25.2158C32.0362 25.5904 31.2586 25.8969 30.7844 25.8969C29.8577 25.8969 29.766 26.0509 29.405 28.2095C29.2528 29.1198 28.7442 30.0473 27.9759 30.8157L26.783 32.0086L27.3157 35.5175C27.6089 37.4475 27.7773 40.2108 27.6903 41.6582C27.5583 43.8502 27.3529 44.5439 26.4605 45.81C25.7678 46.7927 25.4885 47.5154 25.6704 47.8546C25.8252 48.1431 26.0502 49.1435 26.1704 50.0778C26.4555 52.2946 27.4166 53.0565 30.3092 53.3588C32.7153 53.6103 34.2888 53.0896 34.9703 51.8163C35.174 51.4357 35.3406 49.9921 35.3406 48.6083C35.3406 45.9497 35.9067 44.7875 36.9974 45.206C37.8147 45.5197 38.2184 46.8853 38.2184 49.3374C38.2184 52.0655 37.4552 53.7175 35.5496 55.1144C34.1256 56.1582 33.9919 56.1843 31.0836 55.9872C26.2855 55.662 24.3606 54.0606 24.3806 50.4107L24.3918 48.3606L22.3374 49.0803C20.4352 49.7467 20.2971 49.87 20.4721 50.7452C20.7105 51.9372 19.5136 54.3554 18.2876 55.1587C17.7565 55.5068 16.6514 55.7533 15.6222 55.7533C12.4146 55.7533 10.1407 53.3479 10.1815 49.9978C10.2041 48.1454 10.8879 45.8611 11.4197 45.8611C11.6175 45.8611 11.895 47.1561 12.0364 48.7388C12.2594 51.2364 12.4193 51.726 13.2479 52.4451C15.1421 54.0894 17.6241 53.0147 18.277 50.2676C18.4549 49.5193 18.379 49.2784 17.9655 49.2784C17.6649 49.2784 16.9843 48.7619 16.4532 48.1306C15.552 47.0596 15.5027 46.8248 15.7169 44.6234C15.8431 43.3257 16.0299 41.8345 16.1321 41.3095C16.2948 40.4727 16.1605 40.3034 15.0434 39.9346C13.0056 39.262 12.319 38.0805 12.319 35.2462C12.319 33.9129 12.557 32.1472 12.8481 31.3225C13.4517 29.6116 13.3411 29.5056 11.0609 29.6088C8.74704 29.552 9.51751 30.4166 9.18914 32.7316C8.95069 34.4132 8.58703 37.0032 8.38108 38.487C8.17513 39.9708 7.822 44.0047 7.59634 47.4511C7.01055 56.3973 7.93074 69.3598 9.82096 78.7888C10.6879 83.1132 10.7766 84.8969 10.2225 86.8686C8.10664 94.21 13.0932 94.9507 18.1401 95.6813C21.272 96.1237 35.5756 95.7684 41.3772 95.1041L41.3772 95.1041ZM21.0461 88.4654C16.7766 88.0889 14.8369 87.4312 14.8369 86.36C14.8369 85.1378 15.8543 84.9325 18.9736 85.5254C20.9446 85.9 24.1748 86.0761 29.2255 86.0844C36.3715 86.0962 39.8987 85.692 44.6034 84.3224C45.8263 83.9664 45.5993 84.7859 44.2436 85.6206C40.6139 87.8555 29.5365 89.214 21.0461 88.4654ZM27.1422 83.2111C25.0444 82.1771 24.5492 81.1866 24.5492 78.024C24.5492 75.1109 25.0375 73.3793 25.8591 73.3793C26.4353 73.3793 26.6362 74.2453 26.7979 77.4251C26.8662 78.76 27.1164 80.0473 27.355 80.2858C27.5935 80.5243 28.8234 80.7854 30.0879 80.8659C32.2915 81.0062 32.443 80.9611 33.7266 79.7849C34.8201 78.7828 35.1227 78.1981 35.3756 76.5986C35.7448 74.2626 36.5555 73.4248 37.5637 74.3372C38.3117 75.0141 38.4506 77.3918 37.8373 79.0214C37.3217 80.3913 35.0628 82.7031 33.6436 83.3133C32.0781 83.9864 28.6045 83.9318 27.1422 83.2111ZM15.2802 82.29C13.7142 81.5352 12.8895 79.6085 12.8733 76.667C12.8536 73.1665 13.4708 72.9399 14.2727 76.1529C15.0318 79.1936 15.6694 80.2139 16.811 80.2139C18.0756 80.2139 18.4341 79.2358 18.4341 75.7851C18.4341 73.4805 18.5685 72.6363 18.9916 72.2851C19.4503 71.9045 19.6461 71.9193 20.0952 72.3682C20.8035 73.0765 20.9579 79.6334 20.2946 80.8396C19.4168 82.436 17.0208 83.129 15.2802 82.2899V82.29ZM41.9789 80.5564C41.0471 79.5838 40.9132 79.1574 40.7932 76.7804C40.6372 73.6915 40.8941 72.3001 41.6212 72.3001C42.38 72.3001 42.5378 72.7339 42.8757 75.7463C43.2 78.6384 43.5625 79.3695 44.4945 79.0118C45.3051 78.7008 45.7724 77.2338 45.7724 75.0003C45.7724 72.9527 46.4363 71.8037 47.4046 72.1752C48.1658 72.4673 48.4193 73.8464 48.1628 76.3005C47.888 78.9288 47.1629 80.3941 45.7841 81.1071C44.1963 81.9282 43.1478 81.7764 41.9789 80.5564ZM27.9469 69.4372C27.5403 69.2726 26.6905 68.5488 26.0583 67.8288C25.0026 66.6263 24.9089 66.317 24.9089 64.0311C24.9089 61.4472 25.4227 59.7101 26.1872 59.7101C26.7696 59.7101 27.0672 60.5419 27.0672 62.17C27.0672 64.0057 27.6392 65.8147 28.4026 66.3938C28.7562 66.662 29.827 66.8867 30.7819 66.893C32.2297 66.9021 32.6929 66.7297 33.5698 65.8529C34.4937 64.929 34.6213 64.5447 34.6213 62.6843C34.6213 60.3316 35.1892 59.1768 36.1626 59.5504C36.9557 59.8547 37.3173 61.1606 37.3057 63.6771C37.2881 67.501 34.8132 69.8036 30.7686 69.7593C29.6232 69.7468 28.3533 69.6018 27.9469 69.4372ZM14.2705 68.3856C12.7236 67.4424 11.5299 64.5643 11.6713 62.1193C11.8283 59.402 12.614 59.6532 13.3716 62.663C14.0769 65.4646 14.8982 66.5447 16.3232 66.5447C17.7722 66.5447 18.3291 65.4553 18.792 61.715C19.0106 59.949 19.2718 58.3707 19.3726 58.2078C19.7911 57.5307 20.9834 57.9473 21.3444 58.8966C21.8069 60.1133 21.2207 64.9817 20.4269 66.517C19.1666 68.9539 16.5199 69.7573 14.2705 68.3856ZM43.0081 68.0006C41.8075 67.487 41.4559 66.4799 41.4559 63.5548C41.4559 61.6495 41.6069 60.752 41.9796 60.4426C42.8083 59.7548 43.2515 60.3353 43.2903 62.1594C43.3433 64.6784 43.7013 65.6278 44.6477 65.7642C46.0948 65.9729 46.8515 64.8867 46.8515 62.6008C46.8515 61.3948 47.0622 60.2829 47.3691 59.8688C47.8641 59.201 47.9148 59.1983 48.5315 59.8062C49.0039 60.2719 49.212 61.1489 49.3098 63.0865C49.4362 65.5876 49.3863 65.7949 48.3959 66.9036C47.5317 67.8707 47.0373 68.0988 45.5711 68.2064C44.5937 68.278 43.4404 68.1854 43.0081 68.0006V68.0006ZM43.0081 55.7508C42.5759 55.5766 42.0498 55.1119 41.839 54.7181C41.3297 53.7665 41.3474 48.3546 41.8626 47.3913C42.2568 46.6548 42.2852 46.652 42.7618 47.3039C43.0325 47.6741 43.2702 48.7959 43.2899 49.7968C43.3481 52.7296 43.6501 53.3983 44.977 53.5278C45.9433 53.6221 46.191 53.4858 46.4917 52.695C46.6894 52.175 46.8512 50.8198 46.8512 49.6834C46.8512 48.5471 47.0555 47.338 47.3051 46.9966C47.7078 46.4458 47.8395 46.4348 48.4742 46.8986C49.0978 47.3545 49.1893 47.8429 49.1893 50.7167C49.1893 53.9835 49.179 54.0211 48.0146 55.0625C47.0934 55.8862 46.511 56.108 45.3168 56.0901C44.479 56.0776 43.44 55.9248 43.0077 55.7507L43.0081 55.7508ZM42.9581 42.5476C42.3579 42.2568 41.6124 41.4831 41.3016 40.8281C40.5644 39.2744 40.531 34.587 41.2506 33.6096C41.8988 32.7288 42.0074 33.0097 42.4809 36.7933C42.8143 39.4562 43.2945 40.6452 44.0365 40.6452C44.6686 40.6452 45.4129 38.1466 45.4129 36.0245C45.4129 32.2239 47.1799 32.3336 47.4968 36.1539C47.7137 38.7706 47.3573 40.4169 46.3022 41.6707C45.1904 42.9921 44.3377 43.2157 42.9583 42.5476H42.9581ZM12.1392 42.3748C11.3173 41.9101 10.8073 41.189 10.4561 39.9947C10.1226 38.8615 11.0441 38.5511 12.0675 39.4519C12.5026 39.8349 13.3037 40.3375 13.8478 40.5689C14.9041 41.0181 15.1061 41.6711 14.4054 42.3719C13.8711 42.9062 13.0806 42.9072 12.1392 42.3748V42.3748ZM30.1926 41.507C28.7402 40.7197 29.1456 40.2265 31.304 40.1546C34.1162 40.0609 34.9811 39.0435 35.3655 35.3771C35.5284 33.8231 35.6704 32.5285 35.6811 32.5002C35.8097 32.1592 36.9867 32.0958 37.3648 32.4097C38.0847 33.0071 38.0193 37.5003 37.2679 39.0841C36.0376 41.6767 32.6474 42.8377 30.1927 41.507L30.1926 41.507ZM33.7648 29.6242C32.4244 29.2126 32.1084 28.9854 32.4294 28.6643C32.721 28.3727 34.969 28.2423 39.754 28.2393C45.8582 28.2349 46.6711 28.3032 46.7731 28.823C46.9645 29.7994 44.9175 30.2153 40.0533 30.1884C37.1135 30.1723 34.9036 29.9739 33.7648 29.6242ZM63.4297 64.6948C64.8071 61.9947 65.2121 58.9212 65.2063 51.2133C65.196 38.2392 64.2169 34.7836 60.4263 34.3498C59.6029 34.2556 57.7152 34.0286 56.2314 33.8453C54.7476 33.6621 53.4413 33.561 53.3287 33.6208C53.1788 33.7002 53.8614 40.2133 54.0453 40.459C54.0605 40.4794 54.8557 40.4209 55.8122 40.329C58.0913 40.11 59.6924 40.9246 60.4604 42.694C61.213 44.4279 61.4953 52.4336 60.9325 56.0837C60.4676 59.0992 59.3874 61.6506 58.3379 62.2123C57.9523 62.4187 56.9563 62.7032 56.1247 62.8446L54.6127 63.1016L54.5082 65.64L54.4037 68.1784L56.5016 68.1199C59.1333 67.9097 62.247 66.9648 63.4297 64.6948ZM57.2364 58.8597C58.0018 57.2555 58.385 54.0432 58.4229 48.917C58.4543 44.6763 58.3748 43.9906 57.7586 43.1616C57.2286 42.4488 56.6846 42.193 55.5166 42.1074L53.9743 41.9944L54.1893 43.7261C54.3074 44.6786 54.5154 48.7442 54.6513 52.7609L54.8982 60.0639L55.832 59.9552C56.4336 59.8851 56.933 59.4955 57.2364 58.8597ZM24.4923 43.0509C25.1635 41.4843 25.3485 37.5378 24.801 33.1707C24.4952 30.7318 24.5123 30.0988 24.8877 29.9738C26.068 29.5804 27.2443 27.8757 27.4967 26.1931C27.8846 23.606 27.9902 23.4606 29.4823 23.4606C30.222 23.4606 31.3527 23.1986 31.9947 22.8783C32.9167 22.4183 33.3476 22.3805 34.0452 22.6984C35.6136 23.413 37.1507 23.1997 38.3961 21.815C40.3836 19.6054 40.4923 19.5274 41.5859 19.5274C42.4603 19.5274 42.8382 19.8284 43.7305 21.236C45.1771 23.5182 45.986 24.3497 49.0997 23.1627C52.7953 21.7538 54.7952 18.8058 54.2018 15.6423C53.9722 14.4191 53.3371 13.7236 50.3661 11.4426C49.3342 10.6503 49.0757 10.1807 48.9223 8.82004C48.8195 7.90843 48.4484 6.84539 48.0977 6.45774C47.3835 5.66871 46.7691 4.71705 43.7647 6.12386C40.7603 7.53068 37.8208 4.40643 36.1666 4.31404C34.5125 4.22166 34.3437 4.86452 33.2297 5.53733C28.8959 8.15474 26.7584 8.0687 22.9789 5.12473C18.1773 1.38483 14.1389 1.70194 12.5738 5.94174C11.7119 8.27678 10.1403 9.8671 7.40069 11.1767C3.85737 12.8705 2.76795 14.6567 3.03185 18.3398C3.13279 19.7545 3.31266 20.0491 4.58528 20.8898C5.37663 21.4126 6.50198 21.9951 7.08606 22.1842C7.94967 22.4639 8.22592 22.8342 8.56624 24.1683C9.14821 26.4494 9.21792 26.5189 11.3741 26.9666C14.6 27.6363 15.889 28.6526 14.9655 31.3729C14.3222 33.268 14.2388 35.606 14.7788 36.6151C15.033 37.0899 15.7867 37.5628 16.6072 37.5628C18.0042 37.5628 18.9734 38.4295 18.314 39.0889C17.8526 39.5502 17.8776 45.2601 18.4441 45.8134C20.937 48.2483 23.4589 45.463 24.4923 43.0509Z" fill="#1A1A1A"/>
</svg>
