<svg xmlns="http://www.w3.org/2000/svg" viewBox="0 0 476.66 365.5"><defs><style>.black{fill:#0a0a0a;}.grey{fill:#676767;}</style></defs><g id="Capa_2" data-name="Capa 2"><g id="Capa_4" data-name="Capa 4"><path class="black" d="M428.88,207.1c-1.95,1.75-.76,3,.81,3.82,5.8,3,9.54,8.41,14.44,12.3,3.61,2.86,6.77,5.56,8.1,9.74,3.2,10.07-.1,19.07-5.54,27.46-1.15,1.77-1.64,4.61-4.79,4.41a1.33,1.33,0,0,0-1,.8c-1.46,7.8-7,12.11-12.85,16.79-6.21,5-11.49,11.6-19,14.41-10,3.73-17.49,11.21-26.84,15.61-12.11,5.69-24.57,10.19-38.29,11-4,.24-8.38,1.87-12.63,2.7-4.06.8-7.87.8-11.49-2.12-1.47-1.18-3.68-2.64-6.54-.61-2.52,1.78-8.67,1.17-9,.32-2.12-5.84-5.94.25-8.26-1.64-1.75-3.33-4.83-1.39-7.3-1.85l-1.88-2.13c.1-.81-.28-1.09-1-.93-2.28-.05-4.65-.09-3.86-3.45.38-1.64-.52-2.26-1.56-3.21a3.32,3.32,0,0,1-1.13-3.56c2.23-5.4,1.38-11.76,5.37-16.66.78-1,2.1-3.43-1.26-3.72-.4,0-1.09-1.06-1-1.54.79-5.25-2.56-9.72-2.64-15.05-.05-3.53-2.31-7.66-3.38-11.63-1.7-6.31-5.66-11.78-7.75-18.05-.75-2.24-.49-4.58-1.11-6.52-3.73-11.49-8-22.82-12-34.2-.32-4.25,0-8.69-1.18-12.67-.85-2.76-.78-6.85-4.86-7.92-.71-.77-1.79-1.58-2.39-.41-2.14,4.13-4.5,8.26-5.8,12.68-.74,2.49-1.56,4.82-3.32,6.42-9,8.17-10,20.71-16.7,29.93-6.5,8.95-6.54,19.9-11.16,29.32a111.56,111.56,0,0,0-9.12,24.47c-.71,3.13-1.91,6.23-2.07,9.38a15.52,15.52,0,0,1-1.91,6.47c-1.23,2.42-2.66,4.5-1.75,7.76.82,2.93-1.67,6.09-2.94,8.51-2.26,4.32-1.88,10-6.28,13.22-.42.32-.45,1.55-.27,2.26,2.8,11,1.19,15.37-8.7,20.93-2.6,1.47-2,4.39-4.56,6A59.05,59.05,0,0,1,145.1,365c-11.35.86-22.85,1.05-33.74-3.24a268.59,268.59,0,0,1-24.48-11.24c-7.5-3.86-14.55-8.19-22.17-13,2.38-.73,5.44.37,5.9-2.28.13-.81-2.4-2.07-3.71-3.11-.82-1.8-1-4-3.27-4.95,2,0,3.78-.32,5.47.61a1,1,0,0,0,1.48-.71c.17-.88.08-1.56-1.14-1.6-4.78-.16-8.08-3.66-12.15-5.45-1.53-1.2-3-2.47-4.62-3.59-.75-.52-2.22-1.3-2.48-1-4.18,4-5.75-.76-8.25-2.33-2.06-1.75-3.8-4.33-7.15-2.8-.81-2.36-3.88-3.08-4.22-5.77.18-2.71-.86-4.32-3.79-4.23-2.45-1.76-2.35-4.55-2.88-7.09,1.53-1.71.48-2.41-1.13-2.89-4.1-5.37-5.21-11.8-6.79-18.16a37,37,0,0,1,.81-20.39c1.42-4.62,2.48-3.15,5.75-6,3.65-3.15,10.87-1.69,11.46-8.63.08-1,9-3.79,9.88-3,1.68,1.58.24,4,1.23,5.86,1.71,5,1.69,10.3,2.1,15.52,0,1.75-.44,3.53.33,5.24-1.83,2.87,1.8,3.91,2.38,6.11.64,2.46,5.28,1.29,6-1.49,10.61-22,21.06-44.07,29.78-66.93,5.06-13.26,10.81-26.26,16.27-39.36.63-1.5,1-3.18,2.84-3.84,3.57-.3,3.71-3.61,5.1-5.83l.92-.46c0,1.69-1.67,4.06,1.78,4.3-.1,8.18,0,16.39-6.37,22.86-1,1-2.36,2.58-.76,4.37.28.31.56.94.42,1.23-6.36,13.83-7.4,29.33-14.41,43.17-3.44,6.78-6.06,14.52-9.14,21.73a82.82,82.82,0,0,1-5.29,9.71c-3.67,6.12-6.49,12.74-9.6,19.18-.7,1.45-.76,3.5-3,3.42s-1.5-2.17-1.93-3.55a30.94,30.94,0,0,1-7.15,6.7c-1.58,1.09-.87,1.4,0,2.47,2.14,2.68,4,5.61,5.95,8.43a6,6,0,0,0-4.65,1.34c-1.75-4.52-7.46-8.19-2.19-14.14,2-2.24-1.31-7.41-4.46-7.87-8.72-1.25-15.52-8-17.36-17.37-.23-1.18-.44-2-1.77-1.41-2.8,1.17-4.38,8.72-2.4,11.38l.71-.52h.27a1.76,1.76,0,0,1,.63.52l-.8,5.44,3.42-2.06c1.91,5.68,3.83,11.4,3.19,17.51-.17,1.59,1.14,1.82,1.57,2.75,5.18,11.24,14,19.13,23.52,26.62a73.84,73.84,0,0,0,10.77,7.05c1.58,3.25,4.8,3.72,7.78,4.67,5.1,1.61,10.21,3.26,14.09,7.52l-5.54,3.47c4.21.26,7.21,2.75,10.93,2l5.52,2c1.77,2.41,4.51-.22,6.46,1.25,2.44,2.5,5.43,2.29,8.49,1.72l2.31.24c9.23.79,18.37,3.19,27.75,1.27,2.08-.42,4.3-.17,6.43-.37,7.77-.73,13.75-5.57,20.27-9.08,4-2.16,4.44-10.6,1.26-13.82a2.65,2.65,0,0,0-3.57-.34c-2.37,1.32-5.1,2.06-7,4.18L166,328.1c-2.59-1.24-5.65,1.54-8.1-.94-.52-2.7,5.58-4.45,1.1-7.71,1.76-.45,3.93,1.41,5.36-.94.76.95,1.73,2,2.69.52,2.2-3.45,6-5.27,8.44-8.25,3.62-4.46,6.85-9.31,8.62-15a90.66,90.66,0,0,1,8.55-19.69,8.4,8.4,0,0,0,1.31-5.68c2.27-3.64,2.62-7.92,3.94-11.87,2.92-8.76,5.38-17.69,8.54-26.36,1.43-3.94,3.85-7.52,4.35-11.83,3-6.71,6-13.45,9.18-20.1.86-1.8,1.57-4.17,4.42-3.88,1,1.54,1.07.14,1.79-.32,1.94-1.23.34-4.74,3.44-5,2.49.27,2.35-1.18,2.41-3.09.11-3.89-.77-9.08,1.34-11.37,3.85-4.18-.93-6.33-.59-9.37-.15-1.71-.31-3.42-.48-5.3a6,6,0,0,0,5,.35c2.43-1.05,6.79-.74,5.57-5.59l.09-.09c2.44-.28,2.63-3.29,4.58-4.15,1.61,2-.77,3.22-.57,4.82.13,1-1.1,2.43.63,2.92,1.37.38,1.83-.77,2.52-1.82,1.59-2.44,1.71-5.83,5.13-7.19,1.5-.6,1.91-9.81.6-10.26-4.1-1.4-2.94-5.11-3.8-7.87a9.74,9.74,0,0,0-1.68-3.38c-3.07-4.12-6.71-1.44-10-1.58-2.25-.09-4.82-.47-5.38-2.05-.72-2.07-2.59-4.75-.54-7,1.85-2,2.09-4.43,2.81-6.76l3.56-2.83c2.28.67,4.22,2.19,6.76,2.33,1.33.07,3.32,1.28,3.75-.12.58-1.91,3.17-3.68,1.37-5.94-1.48-1.87-1-4-1.55-6-.42-1.65.25-3.75-2.2-4.34l.08.08c-4-7.71-8.88-14.36-19.4-16.64l9.69,10.52c-4.57-1.67-10.35-1.59-11.15-8.14-.07-.61-1.08-1.44-1.77-1.58-4.95-1-9.34-4.3-14.73-3.48-1.37.21-3.07-.42-3.44-1.49-.58-1.67,1-1.94,2.41-2.21,1-.19,4.85-.52,5.94,0,1.64.74,3.26,1.52,4.95,2.11.94.33,1.82,1.68,3,.45-1.26-1.09,2.34-3-.66-3.89-.15,0,0-1.14,0-1.74.09-.1.26-.2.25-.29a3.38,3.38,0,0,0-.16-.7c2.1-1.29,5.91-1.48,5.48-4.59-.37-2.62-1.82-5.85-5.69-5.88-.6-.83-1.37-.51-2.12-.31a3.3,3.3,0,0,1-.72-.32c-.05-4.16-3.43-5.73-6.12-7.83-2.2-1.67-4.74-1.4-7.07-.73A58,58,0,0,0,195.13,54l-4.2.23,0,0c.21-1.27.46-2.54.63-3.81.53-4-1.11-3.9-3.71-1.94a1.43,1.43,0,0,1-1.38-1.9c2,.05,3.13-.72,2.6-2.93.21-1.23,1.28-1.82,2-2.7,1.79-2.37,5-2.69,6.8-5L191,31c-2.46-3.55-6-4.7-10.14-4.58l-4.45-.5c.3-.32.9-.84.85-.92-.46-.7-1.1-.52-1.63-.07a6.25,6.25,0,0,0,.64,1l-7.32,1.37c-3.21,1.22-6.31,3-9.95,1.83a25.27,25.27,0,0,0-7.82-1c.5-1.68,2.85-2.66,2-4.75-.46-1.18-1.8-1.43-3-1.23-7.2,1.21-15,.77-20.5,6.87-2.06,2.29-5.51,4.52-1.67,8.12.11,1.52.23,3,.34,4.56l-.66,1.48c-3,.79-.56,2.56-.7,3.86l-3.1-.63c-.69-1.06-1.91-.86-2.89-1.21-3.2-.25-2.14-3.83-4-5.12,0-1.14.43-2.47,0-3.37-.68-1.33-.93-3.49-3.15-3.29-1.94.17-1.79,1.87-2.27,3.28a24.22,24.22,0,0,1-2.86,5.16c-5.38,8.29-7.19,17.07-4.08,26.68.91,2.82,2.46,4.73,5.5,4.44,1.59-.15,2.28,1.22,3.59,1.28a3.64,3.64,0,0,1-.5,3.07l-.54.29.22.29c-2.78,4.77-3.73,9.74-1.69,15-.43,2.67-.92,5.34,1.12,7.65l-.22,1.43c.68,6.18,4.24,10.89,8.35,15,2.71,2.72,6.12,1.67,7.56-1.59,1.21-.15,2.58.37,3.1-1.57a2.51,2.51,0,0,1,3.25-1.58c2.88.77,8.6,8.32,8.41,11.34-.08,1.3.29,2.92-2.3,3.57s-4.75,3-5.92,6.43c4.09-1,5.05,3.61,8.34,3.86.44,2.12,2.1,2.54,3.89,2.78,3.35,1.53,6.59,3.43,9.83,5.08,6,3.06,11.42,2.54,17.27.84,2-1.91,4.24-3.35,7.22-2.22,1.7-.05,3,1.3,4.44,1.53,5,.79,5.53,1.73,2.92,6.5-.86-.11-1.48.11-1.58,1.1-2.38,2.27-5.88,3.11-7.74,6l-13.68,1.52c-11.18-1.22-21.67-4.05-29.51-12.89-1.52-1.72-2.89-3.57-4.33-5.36,1-3.7-.23-5-5-4.9-14.37-.68-21.32-10.22-26.38-22-.68-1.94-1.35-3.87-2.48-7.07-2.44,8.86-7.14,15.32-10.14,22.6-1.11,2.67-2.58,4.28-5.52,2.12a10.79,10.79,0,0,1,.89-3.2c2.76-4.18,1.13-7-3-8.22-4.85-1.44-6.64-6-10.09-8.76-1.79-3.25-2.74-7.35-8.17-6.11-1.42.32-2.74-1.59-2.74-3.51,9.47-.8,18.75-.92,25.84,7,.49,3.09,3.67,2.58,5.86,4.82-.44-2.81.94-4.13,1.84-5.77,1.69-3.07,4.88-6.08,2.36-10.22,2.52-7.7,3.71-15.93,9-22.54a2,2,0,0,0-.1-1.84c-.74-1-1.32-.29-1.8.47-1.28,2-2-.66-3.07-.39C96.3,71,94.64,66.43,91,63.21l.49-2.68c1.56-.89,1.22-2,.42-3.24l.11-2A2,2,0,0,0,92.6,53a7.42,7.42,0,0,1,1.32-6.58c4.6-6.29,6.62-15.27,16.24-16.72.22,0,.51-.72.55-.7,6.28,3.21,7.31-1.72,10.09-5.61C130.59,9.75,143,8.15,157.53,11.88c1.39.36,3.33.94,3.85,2,2.26,4.62,5.63,2.7,8.74,1.76,11.41-3.43,25.8,1.34,30.38,12.11,2.28,5.36,3.84,6.74,9.24,6a12.08,12.08,0,0,1,9.62,2.49c.89.78,2.55,1.12,3.17-.83l.05-.07c1.43,1.32-.47,5,1.67,4.56,2.49-.54,5.87.69,7.79-2.82a39.12,39.12,0,0,0,3.1-6.84c1.31-4,6-5.23,9.09-7.77,2.23-1.82,4.67-3.69,8.07-3-1.79,2.09-5,1.92-6.39,4.48,1.78,1.23,2.82-.36,3.82-1.15,7.61-6,15.58-3.2,23.21-.56,5.64,2,7.32,1.71,10.41-4.5,3,0,5.53-.65,5.44-4.46a2.94,2.94,0,0,1,.31-.84c1.06-.3,1.8-.86,1.74-2.1C295.2,7.92,299.9,8,304.66,8.54c.73,2.37-.82,2.59-2.57,3.05-2.16.58-1.08,2.65-1.14,4,0,.84,1.15,2,2.15,1.26,2.38-1.65,6.12-.82,7.55-4.06.6-1.35,1.23-1,2.28-.58,5.38,2,7.94.37,8.93-5.4,1.63,1.63,3.91,2.49,4.32,5.42.29,2.09,2.3,3.09,4.6,1.73,3.48-2.06,6.82-.79,10.52-.48,6.21.53,10.67,4.27,16.13,5.89,3.07.9,6,2.29,7.44,6,.95,2.49,3.29,4.32,6.6,5,5,1,9.71,3.41,12.63,8,.89,1.4,2.35,1.68,3.37,2.61,1.83,1.67,5,3.37,1.48,6.4,2.34,2.71-3.35,5.2-.21,7.92,1.77,1.53,2.56,6.2,6.15,1.94l1.56.54c.16,3.5,3.05,3,5.21,3.54a10.36,10.36,0,0,0,1.41,1.4c1.35.92,1.56,2,.61,3.29-.76,1-1.68.29-2.56.24s-1.94,0-3.26,0c1,4.23,4.35,4.85,7.36,5.52,1.43.33,1.53-.71,2.69-5.8.44-1.94,2.65-4.64,4.4-3.94,3.33,1.32,4.53-1,5.52-2.56,2.62-4.12,7.47-6.89,10.8-6.49,5.71.69,10.71-2.29,16.05-1.31,1.39.26,4.24,1,1.54,4-2.32,2.58-.35,6.34,4.63,8.87a33.49,33.49,0,0,1,9.07,7.35c.81.86,2,1.76,1.68,2.89-.94,3.15,1,4.53,3,6.19,4.6,3.84,2.42,9.67,4,14.41.65,1.92,0,4.39,2.85,5.25,1.42.43,1.29,1.89.46,2.89a3.09,3.09,0,0,0-.22,3.69c-.26,1.83-3.27,2.6-2,5a12.5,12.5,0,0,0,.06,1.43c4.85.15,4.81,4.07,5.3,7.23a115,115,0,0,1,1,30c-.64,6.12.72,12.64-2.45,18.32-2.87,5.14-3.39,10.93-5.34,16.32-1.72,4.76-6.57,6-9.85,8.9a48.54,48.54,0,0,1-18.55,10.72,22.87,22.87,0,0,1-7.35.61,4.86,4.86,0,0,0-3.8,1.41c.41-2,1.54-4.25,1-6-.61-2.12-.11-2.86,1.48-3.83,6.62-4,12.78-8.71,19.52-12.61,5.82-3.35,10.69-7.65,12.42-15.42,1.35-6.05.6-11.64.52-17.44-.16-10.82-.37-21.63-.47-32.45-.05-5.89-1.95-11.4-3.18-17,1.39-3.09,1.62-5.81-2.34-7.15l-.51-1c.16-2.42.35-4.83.44-7.25a2,2,0,0,0-.56-1.3c-5-5.5-9-11.91-14.43-17-.37-.34-1-.56-1.12-1-1.77-4.75-3.89-5.3-7.8-1.58-1,1-2,.82-3.05,1.18a57.74,57.74,0,0,0-12.94,6.75,3.08,3.08,0,0,1-.83.31c-3.43,1.36-6.77,2.85-9.18,5.83l-9.26,11.86c-2.19,1.2-5.18-1.21-7,1.57l0,1.4c-2.79-.31-4.23.37-2.49,3.39-.84.85-3.46.29-2.22,2.8-.21,2,.23,4.41-.8,5.74-1.57,2-1.74,3.64-.64,5.69a1.79,1.79,0,0,1-.36.68c-4.81.75-6.94,4.68-8,8.42-1.18,4.22-7.06,4.69-6.7,9.64,0,.19-1,.74-1.23.62-4.32-2-6.43,1.94-9.46,3.4-1.84.89-3.37,2.82-5.81,1.79a3.79,3.79,0,0,1-.25-.35c-.08-.13-.14-.26-.21-.39l.49.71c.86.91-.07,1.65-.25,2.46l-1.69.41c-1.13-1.52-5.13-1-8.13,1-2.52.66-3.77-1.53-5.57-2.48-1.27-.11-2.29.11-2.25,1.71-6.25,10.51-14.51,18.43-26.93,21a34.16,34.16,0,0,1-4.82-2.36c-3.4-2.34-6.35-3.86-7.93,1.85-.18.64-1.85,1.46-2.33,2-2.84,3.46-7.14,5-10.09,8.23-7.93,3.39-15.87,6.74-24.84,4.88-1.21-1.48-2.5-1.12-4.45-.27l3.3,1.07c1,4,5.52,6.59,4.88,11.35l-.11-.37-.4,0c-.65-1.13-1.29-2.27-2.25-4-.27,2.37-1.95,4.54,1.54,4.76.86,1.06-.22,3,1.7,3.6a1.44,1.44,0,0,0-.09.71,5.62,5.62,0,0,0,3.22,7c2.11,1,2.33,2.36,2.41,4.3.07,1.36-.84,3,.81,4.1,1.45,3.73,5.2,7.24,3.78,11.16-.94,2.62,0,3.25,1.05,4.84,4.46,6.67,5.15,14.69,7.37,22.13.47,1.56.12,3.22,1.53,4.7,2.5,2.65,3.15,8.05,1.94,9.19-4.12,3.86-2,7.86.22,9.58,3.42,2.69,3.27,5.46,3.1,8.81-.07,1.4.39,3.36,1.86,2.81,4.22-1.59,6.68,2.65,10.31,2.57,2.25.82,4.09-.85,6.19-1.08,1.53-.17,1.84-1.32,1.3-3-1.6-4.91-3.57-9.68-4.68-14.78-.46-2.07-.85-5.22-3.9-6.09,1.11-4.28-1.1-7.32-3.82-10.16,1.31-3.37-1.44-5.88-2.17-8.76-1.77-7.05-1.84-14.59-5.6-21.11-.42-6.2-3.56-11.75-4.22-17.9-1.09-5.64-3.19-11.1-2.95-17,0-.41.09-.81.13-1.22l-.12.12a4.31,4.31,0,0,0,3.52,1.33c-1.79,4.17-.83,6.42,4.11,5.89.18,1.84,2.48,2.77,2.09,4.86-1.9,3-.94,4.9,2.25,6,1.82,2.3,7.08,3.32,2.79,7.92-.5.54.24,2.3,1.25,3a13.26,13.26,0,0,0,2.55,1.1c-.5.79-2.57-.45-2,1,1.59,4.47-1.09,9,.43,13.37.93,2.69,2.8,5,3.05,8,.06.69.09,1.16,1.08,1,3.34-.54,3.73,1.73,3.89,4.22.22,3.65,1.47,8.08,3.08,10.12,3.41,4.3,4.12,8.63,4.39,13.5.11,1.88-1.21,3.79.1,5.65-.56.19-1.61.53-1.6.56.48,1.68,2,2,3.39,2.58.79,3.34,3.12,1.92,4.66,1.17,1.9-.93,2.61-1.27,2.69,1.36,0,1.19-.79,3.77,2.2,3.36,2.05.38,3.91,1.15,6.18,1.16,3.5,0,5.81-1.83,6.33-4.31.45-2.18,0-5.47-3.11-6.78-.14-2.37.23-4.92-2.33-6.41,1.18-2.68,2.09-5.32-.91-7.49l-3.15-14c-1.94-5.7-3.06-11.68-5.92-17.06.38-1.52-.92-2.49-1.23-3.78-.48-4.36-.27-8.7-2.33-13A34.93,34.93,0,0,1,316,199c-.17-.93-1.16-2.88,1.17-2.77,1.2.06,2.29-.25,2.24-1.21-.08-1.55-1.58-1.77-2.92-1.81.25-2.58,1-5.16-.3-7.72a1.51,1.51,0,0,1,.57-2.14c.93-.46,1.42.25,2,.94,1.65,2.17,3.85,3.87,2.09,7.33-.86,1.68-.27,4.17,1.69,5.79,4.83,4,5.83,10.25,8.44,15.47,1.83,3.66,1.87,8.5,2.56,12.72.6,3.72,2.78,8.25,4.8,12.23,2.73,5.34,5.54,11.38,4.52,17.27-.85,4.87.86,7.4,3.76,10.18.24,1.52-.68,3.28,1.1,4.75l3.16-2.71c2.38,1.9,2,7.15,7,5.25-2.5-3.61-1.33-5.18,2.66-5.45,9.4-.64,9.28-1.3,10.5-10.37,1.18-8.75-4.5-14.09-8-20.59a5.67,5.67,0,0,1-.77-3.73c1-.46,1.94-.94,1.49-2.31,0-3.54-3.54-4.89-4.76-7.53-2.61-5.64-4.63-11.54-6.9-17.34,1.78-1.43,2.58-2.69-.57-3.25l-.44-1.05c-.1-2.46,2.24-5.27-1.19-7.31-.4-.24-.28-2,.14-2.83,1.25-2.33.25-4.38-.09-6.66-.48-3.25-4.94-5.09-3.71-8.09,1.76-4.26.77-8.3.15-12.18-.77-4.9.76-9.75-.46-14.54.08-2.77,1.64-2.7,3.07-1.24a8.29,8.29,0,0,1,2.73,4.53,143.92,143.92,0,0,0,7,28.62c.76,2.07,1.17,4.27,1.9,6.35.21.62,0,2,1.24,1.68s.95-1.54.89-3.29c3.19,7.8,6.22,14.92,9,22.13,2.18,5.62,5.57,11.31,5.7,17a37.56,37.56,0,0,0,5.48,18.62c3.61,6.12,0,11.53.39,17.22,0,.3-.13.84-.31.9-5.49,1.76-5.15,8.51-10.52,11.45-3.93,2.14-6.59,3.09-10.47,2-2.67-.06-5.26,1.71-8.05.1-.64-.37-1.06,1-1.05,1.81-.7,1.5-1.31,3.05-2.13,4.49-4.05,7.17-9.68,9.82-17.52,8.28-.72-.14-2.14.05-1.91-1,.81-3.48-1.73-2.77-3.53-3.18a5.87,5.87,0,0,1-2.63-1.23c-2.95-2.73-3.42-2.65-4.37,1.1-1.54,6.06-8.66,10.77-14.81,9.34-5.06-1.18-10.7-1.6-13.58-7.15-.39-.76-1-1.87-2.64-.82,1.47,3.33.63,6.73-.41,10.12-.93.4-.86,1.11-.55,1.88-2.1,5,.12,7.66,5.36,9a23.93,23.93,0,0,1,4.21,1c1.93.89,5.54,1.92,4.29,4.18-2.87,5.21,1.65,5.05,3.86,6.69.2-.34,1.34,0,.66-1l-.64,1c1.72-.59.95-1.66.42-2.56-1.18-2,.07-2.81,1.67-3.45,2.36.43,4.72.76,6.93-.63l.13.1c2.6,3.31,6.45,1.34,8.5.48,6.4-2.67,12.55-4.69,19.61-3.36,2.17.41,4.74-.58,4-4,3.65.86,7-.71,10.54-1.12,1.46,0,2.9.31,4.31.44,2.95.26,6.17.5,8.21-2.55,3.83-.34,7-2.8,10.65-3.55,3.12.82,4.52-2.28,6.7-3.37,3.78-1.89,7.9-2.79,11.44-6.36,4-4,10.42-5.87,14.28-10.77.6-.76,1.42.08,1.68-.17,3.09-3,7.88-4.2,9.21-9,.09-.28.18-.56.29-.84,3.9,1.43,4.53-2.36,5.23-4.14a55.14,55.14,0,0,1,8.31-13.55c1-1.26,2.76-2.65,1.74-4.82,2.23-4.54,3.65-9-1.57-12.59.46-6.28-4.73-7.15-8.75-9.14-.22-4.49-3-7.39-6.24-10L422,210.61C423.24,207.34,425.71,206.54,428.88,207.1ZM257.15,112.87a1.21,1.21,0,0,0-1.71,0c-.07.07,0,.26,0,.39l1.73-.41c1.46,2.26,3,4.42,5.74,5.3-.47,3.12.38,5.43,3.77,6.21.34,2-.48,4.55,1.14,6.1,4.65,4.42,3.89,10.13,4.18,15.63.08,3.77-2,6.87-3.17,10.25-.29-.14-.69-.49-.85-.4-3.48,1.93-7,3.74-10.34,6-1.44,1-.3,1.9.94,2.39,3.4,1.37,6.75.8,10.18,0,6-1.34,10.22-6,15.73-8.08,3.13-1.21,4.1-5.57,8.19-5.31.43,0,.25-1-.08-1.67-.88-1.71-3.47-3.82,1.15-4.33,1.81-.2,1.77-4.51,5-2.75,2.64.19-1.27,6.48,4,4.26,2.38-1,5.82,1.17,7.34-2.45,8.63-6.49,13.56-15.84,19.12-24.71,2.53-1.57,5-3.27,7.07.7.56,1.08,1.65,1.27,2.94.59,2-1,2.88.61,3.84,1.92a2.68,2.68,0,0,1,.27,3.06c-1.68,3.81-.51,5.25,3.66,4,1.06-.32,2.22-.27,3.07-1.14,2,.06,2.08-1,1.42-2.47a5.45,5.45,0,0,1-.18-1c2.18.57,2.51-1,2.67-2.47s.71-2.27,2.09-2.25c3.21.06,4.55-2.25,5.89-4.52,1.11-1.89,2.41-3.74,4.5-4.32,3.36-.94,6-2.26,6.42-6.15l.38,1.35c.26-.16.71-.29.76-.49.22-1.15-.69-.69-1.21-.78,2.56-2.58,4.11-5.85,6.13-8.75,4-5.74,2.2-15,10.69-17.91a1.16,1.16,0,0,0,0-.92c-2.86-4.24,1.81-2.26,2.75-3.34,1.63.46,3.67.48,4.22-1.06.79-2.25-1.29-2.84-3.08-3.36-.55-.16-.92-.89-1.38-1.36-4.37-5.56-11.76-8.67-13.29-16.57-.43-2.22-1.22-4.49-4.19-4.56a15.14,15.14,0,0,0-7.8-2.9c-6.57-.17-10.11-2.15-11.26-9.64-.67-4.39-.15-6.46,3.89-8.8-8-2.43-15.22-3.13-22.38.48-1.71.86-3.34,2.67-4.93-.81-.73-1.62-3.65-3.45-4.94,1.07-1,3.56-4.75,5.26-8.12,6.36-2.81.92-4.89-.19-4.44-3.73-.62-2.27,2.58-3.22,1.9-5.5.23-3.47-4.23-3.72-4.46-3.51-2.73,2.43-6.07,1.06-9,1.84-1.17.32-9.55,6.38-10.53,7.26-3.34,3-1.55,5,1.08,7-1.74,1.27-.09,2.42.14,3.62.59,3.68,3.32,7,1.69,11.06-1.88-1.09-3.73,2-5.62,0C288,47.73,285,46.82,281.86,50c-2,2.09-4.61,3.32-6.57,5.74-5.16,6.39-5.59,6-10.68-1.13-4-5.64-3.86-6.83,1.28-12,1.24-1.27,3.38-2.53,1.14-4.73-1-2.06,2.78-.88,1.93-2.81-1.11-2.5-3.62-1.36-5.69-2.73,1.28,3.63,1.28,3.68-1.53,3.89-3.71.28-8.61,2-9.3,4.22-1.61,5.18-3.83,2.65-6.15,1.7-.91-.38-1.56-1.22-2.58-.3-1.4,1.27-.08,1.92.54,2.8a8.25,8.25,0,0,1,.7,1.84h0c-3,1.85-3.18,1.88-6.65.88,1.44-2.28-2.37-3.58-1.15-6-2,4-8.45,5.73-5.46,11.91,3.63,2,2,6.38,4,9.11.16,1-1.32,2.44.35,2.93,4.1,1.2,6.7,4.89,10.71,6.16l0,0,4.08,3c3.31,3.9,4.88,8.84,7.87,13,1.77,2.46,1.66,6.1,2.37,9.2,1.25,5.48-1.66,10.28-1.37,15.48C258.93,112.53,258.46,113.89,257.15,112.87ZM71.88,329.81c4,3,6.42,6.16,11.09,4.91C80.05,331.32,77.7,330.19,71.88,329.81ZM251,167.32c-.81-.76.45-3.17-2-3-1.92.12-2.09,1.8-2.18,3.3-.08,1.35.29,3.09,1.63,3A2.91,2.91,0,0,0,251,167.32Zm67.14,116.87c.45-2.11,1.49-4.24-.25-6a1.86,1.86,0,0,0-1.72.23C315.12,280.82,316.71,282.46,318.13,284.19ZM389,59.08c-.67-1.15-1-3-2.68-2.14-.44.22-.56,1.08-.83,1.64ZM97.31,67.46c0-1.38,1.67-2.42,0-3.56-.19-.13-.75-.08-.83.06C95.79,65.21,96.82,66.12,97.31,67.46ZM362.49,273.09c0-.64-.41-.73-.88-.7a3.71,3.71,0,0,0-.83.24,6.44,6.44,0,0,0,1.06.76C362,273.45,362.27,273.2,362.49,273.09ZM96.61,58.51l-.3-1.08a4.46,4.46,0,0,0-.17.87,4.36,4.36,0,0,0,.13.87Z"/><path class="black" d="M166,223.22a34.78,34.78,0,0,1,3.7-15.61c.69-1.47,1.19-2.28,3.6-1.85s3.64-2.45,3.16-5.18c1.09-5.53,2.87-10.75,6.87-14.93,2.15-2.25,3.51-5.61,7.45-5.37.79.37.85,1,.66,1.76-1.76-.08-1.62,1.12-1.53,2.28l1,1.91c-1.93,2-1,4.43-1.17,6.71-3.81,8.28-8.73,16-11.62,24.78-2.53,7.76-5.27,15.4-7.26,23.36a276.73,276.73,0,0,1-9.15,30c-4.44,11.88-6.5,24.51-11.83,36.07-3.57-.4-5.71.71-5,4.79l-1.86.32-2.06-.17c-3.82.17-7.35,1.92-7.58,5.59-.19,3.15-1.66,4.13-3.71,5.33-1.32.11-2.73-.09-3.79,1l-8,1.12-1.2-.83c-1.62-4.28-6.37-.29-8.63-3.24-.39-.5-1.33-.74-1.49-1.63,1-.57,1.71-.17,2.62.46.62.42,2.08.74,2.11-.85,0-.9-.16-2.26-1.57-2-2.68.57-4.4-1.83-6.8-2-2.29-6.7,3.22-4.07,5.85-4.89,4.91,1.56,9.71,3.77,15.08,2.33,3.16,2.07,4.33.36,4.88-2.55h0c1.35.2,2.62,0,1.74-1.7s-.66-2.72.63-3.9c4.87-4.45,9.59-8.79,11-15.86s4.72-13.93,5.8-21.26c1.61-3.25,3.76-6.28,3.91-10.09,1.9-4.66,3.91-9.27,5.66-14,.78-2.07.31-5,1.65-6.39,3.12-3.14,4.34-7.59,7.79-10.42C168.69,225,168.58,223.63,166,223.22Z"/><path class="black" d="M51,137.43l5.88-1.26c5.76-.14,10.23,2,12.94,7.29,1.09,2.14.16,5,2.5,6.72l.54,1.11c1.61,5.92.88,11.94.87,17.94l-.22,1.83c-2.2,2.31-3.71,4.84-2.45,8.19.45,5.11-4,8.35-4.92,13-1.53.29-1.87,1.69-2.66,2.72-3.2,4.15-6.54,8.16-11.57,10.25-8.16.64-16.53-4.68-20.28-12.24-1.44-2.9,3.3-4,1.17-6.59a34.18,34.18,0,0,1-.87-9.25c0-3.1,1.9-6,.64-9.18A5.9,5.9,0,0,0,34,163.85c-.65-5.58,3.85-9.65,4.44-15,.2-1.75,3.93-3.32,5.44-5.6,2.21,1.08,3.37.64,3-2.05.15-.77-.27-1.77.87-2.13C49.07,139.1,50.72,139.69,51,137.43Zm-6.29,48.91c2.2,2.85,3,.18,3.73-1.13,2.95-5.59,5.71-11.28,8.53-16.93,2.59-1.55,1.78-4.81,3.45-6.82,3.58-4.33,2.15-9.41,2-14.24-.06-1.48-1.64-1.16-2.76-.71a6.92,6.92,0,0,0-8.09,3c-4,6.25-5.93,13.48-7.48,20.74a3.63,3.63,0,0,0-1.09,3.07l-.39,3c-1.21,1.23-.28,2.74-.54,4.09l.11,1.63C42.17,183.92,41.57,186.23,44.69,186.34Z"/><path class="black" d="M96,307.29c-.48,4-4.29,3.14-6.87,4.55,1.25-4.77-5-2.16-5.26-5.62-.45-5.82,2.09-11,3.77-16.29,4.24-13.48,10.29-26.33,14-40,1.69-1,1.91-3,3-4.49-.27-4.56,4.14-7.31,4.51-11.63,2.52-11.33,9.3-20.8,13.63-31.36,3.27-8,6.77-15.86,10.25-23.75.63-1.44.88-3.27,2.8-3.81,2,2.92,2.15,6.72.23,8.83-4.12,4.53-.31,5.61,2.3,7.51l-2.67,2.89c-3,2.43-3.55,5.21-1.2,8.4l-1.33,2c-.64-.29-1.4-.35-1.71.28s.17,1.2.83,1.49c-.33,2.24-.52,4.06-3.34,5.28-2.17.94-5,3.72-1.46,6.89.74.66.3,1.49-.12,2.23-3,5.34-5.57,11.1-6.26,17-.51,4.3-4.35,7.76-2.46,12.63.87,2.26-3.1.64-4,3.42-1.62,4.92-2.57,10-4.09,14.91l.11.07a37.45,37.45,0,0,0-4.69,16.77,12.29,12.29,0,0,1-1.68,5.13c-3.12,1.24-5.85,8.2-4.51,11.52l-.12,3C97.1,303.7,96,304.65,96,307.29Z"/><path class="grey" d="M189.71,192.94c.12-2.28-.76-4.74,1.17-6.71a6.12,6.12,0,0,1,2,0c1.65.59,3.26,1.86,4.73-.32,1.27-1.89,2.13-4.27.9-6-3.12-4.43-7.58-7.19-13.85-9.13,2.59,3.75,7.42,4.77,6.15,9.5-3.94-.24-5.3,3.12-7.45,5.37-4,4.18-5.78,9.4-6.87,14.93-3.18-.66-4-2.85-2.94-5.49,1.72-4.32,3.85-8.49,5.75-12.75.24-.53-.38-2.47.5-.07,1.12,3.07,2.82,2.46,3.65-.22a3.19,3.19,0,0,1,2.23-2.3c1.74-.62,1.22-2.07,1.31-3.3-5,.36-2.67-5.23-5.48-6.88-1.36-.8-1.19-2.38-2.43.4-.9,2-4.58,2.84-7.26,4.32.92-6.29-5.3-8.67-6.36-13.57l13.68-1.52a4.74,4.74,0,0,1,4.85,1.69c3.55,4.8,8.6,6.71,13.92,8.32.5.38,1,.77,1.49,1.13,7.69,5.31,15.44,10.53,12,22-.41,1.35,1.05,3.28,2.55,3.68,2.55.68,2.57-2.1,2.63-3.24.63-11.64,7.25-19.37,16.24-25.65-.34,3,4.44,5.19.59,9.37-2.11,2.29-1.23,7.48-1.34,11.37-.06,1.91.08,3.36-2.41,3.09-.36-1.45-.62-3.58-2.29-.8a64.08,64.08,0,0,0-2.94,6.14c-2.85-.29-3.56,2.08-4.42,3.88-3.17,6.65-6.14,13.39-9.18,20.1a10,10,0,0,1-8.86-4.23c-1.13-1.49-3.53-2.61-4.14,1a1.84,1.84,0,0,1-2.09,1.66c-.9-.07-1.35-.91-1.57-1.73-1.38-5.26-2.85-10.39-.68-16C194.66,197.74,194.24,194.1,189.71,192.94Zm37.93-9.55-.11-.66c0,.08-.07.17,0,.23a2.06,2.06,0,0,0,.23.37c-.32,2.47-5.13,1.12-4,4.85a10.56,10.56,0,0,0,5-3.33C229.66,183.69,229,183.12,227.64,183.39Zm-28.1,22c-.74,1.54-3.6-1.36-3.51,1.48.08,2.66,2.89,1.16,4.26,2.15,1.09.8,2.24-.25,2.06-1.65A2.17,2.17,0,0,0,199.54,205.34Z"/><path class="black" d="M18.66,126.38c.55,1.3-.65,1.84-1.16,2.68-1.82-.13-3.37.22-3,2.51.23,1.31-.24,3.22,1.64,3.66,1.27.29,3.21,2,3.72-1h0c2.7,1.63,1.71,4.19,1.69,6.54,0,1.48-1.66,3,.11,4.45-3.11,1.88-2,5.51-3.37,8.11a7,7,0,0,0-1.4,3.92c-2.3,6.57-1.93,13.46-1.2,20.08.36,3.23-.05,7,2.09,10a40.31,40.31,0,0,0,2.83,9.86c.35,2.7.9,5,4.11,2.09l-.16.1c2.75,11.09,9.8,19.4,17.54,27.28,1,1.06,2.21,2.1,1.43,3.85-2.16-1-4.21,1.88-6.15.42-2.47-1.85-5.45-2.9-8-4.74-2.73-2-4.64-5.52-8.44-6.42-2.79-.66-1.67-5.37-5.09-5.92-1.16-2.9-4.23-4.12-5.82-6.65-1.89-2.24-1.37-6.36-5.42-6.9.48-2,1.09-4.35.16-6.1-2.36-4.46-.56-10.57-2.49-13.54-4.66-7.19-.91-14-.6-20.35.65-12.81.84-27,13.85-35.47C16.57,125.43,17.29,126.58,18.66,126.38Z"/><path class="grey" d="M166,223.22c2.59.41,2.7,1.73.92,3.2-3.45,2.83-4.67,7.28-7.79,10.42-1.34,1.34-.87,4.32-1.65,6.39-1.75,4.71-3.76,9.32-5.66,14-3.62,2.46-3.33,6.44-3.91,10.09-1.08,7.33-4.33,14.08-5.8,21.26s-6.16,11.41-11,15.86c-1.29,1.18-1.46,2.28-.63,3.9s-.39,1.9-1.74,1.7c-1.45-3.92-4.9-1.45-6.74-1.3-4.37.35-7.37-1-9.84-4.2.51-1.84,2.83-.76,3.9-2.27s2.36-.42,3,.68,4,3.09,5.12,2.38c1.86-1.14,3-2.54.85-4.73-1-1,.64-1.84,1.22-2.23,4.54-3.09,6.87-7.31,8.36-12.61,1.09-3.85,1.82-8.23,5.16-11.25a2.76,2.76,0,0,0,.87-2.23c-2-6.57,1-11.15,5.49-15.55,1.06-1,.7-3.76.64-5.7-.32-9.4,3.62-17.77,6.92-26.14,1.3-3.28,5.38-5.38,7.2-8.92.69-1.33,2.7-1.07,3.49-.53,1.54,1.06-.23,2-.84,2.7-2.1,2.38-2.14,5.43-3.06,8.2-.37,1.13-.2,2.14.64,2.6,1.91,1.07,1.34-1.23,2.1-1.8C164.57,226.14,164.26,224,166,223.22Z"/><path class="grey" d="M144.86,312c-.72-4.08,1.42-5.19,5-4.79a2.21,2.21,0,0,1-.85,2.25c-1.75.31-1.71,1.69-1.66,3a1,1,0,0,0,1.35.92c1.17-.51,1.15-1.81,1.46-2.87,2.95-4.75,7.16-3.55,11.36-2.43a6.5,6.5,0,0,0,1,.18c6.13.62,8.76-1.31,9.54-6.94a2.73,2.73,0,0,1,.44-1.4c3.12-3.44,4.71-7.85,7.39-11.57.67-.91,1-1.69,2.55-1.79,2.81-.18,3-.58,1.22-3.11a2.49,2.49,0,0,1-.22-3.11c1.46-2.32,1.67-5,2.44-7.55.72-2.35.89-5.51,3.36-6.27s2.66,3.08,4.71,3.9a8.4,8.4,0,0,1-1.31,5.68,90.66,90.66,0,0,0-8.55,19.69c-1.77,5.73-5,10.58-8.62,15-2.42,3-6.24,4.8-8.44,8.25-1,1.52-1.93.43-2.69-.52-.13-1.57,2.83-3.4.91-4.16-2.45-1-4.64-4.26-8-2.09-1.05.68-1.94,2.56-1.05,2.61,3.65.19.64,3.88,2.76,4.58,4.48,3.26-1.62,5-1.1,7.71-4.61-2.89-11.38-1.76-14.64-7.32,1.61-1.94,2.85,1,4.27-.33-2.15-2.51-6-3.49-6.54-7.38l2.06.17c.12.58.13,1.31,1,1.14S144.77,312.58,144.86,312Z"/><path class="grey" d="M121.89,345.14l-2.31-.24c-.44-3.79-1.55-4.4-4.93-2.87a32.85,32.85,0,0,1-3.56,1.15c-2-1.47-4.69,1.16-6.46-1.25a5.36,5.36,0,0,1,.16-1.46c.58-1.49,1.88-3.75-.59-3.78-1.43,0-6-1.73-5.09,3.21-3.72.71-6.72-1.78-10.93-2l5.54-3.47c-3.88-4.26-9-5.91-14.09-7.52-3-.95-6.2-1.42-7.78-4.67A236.93,236.93,0,0,1,110.32,332c3.57,1.2,7,2.83,10.56,4.08,9.6,3.39,19.16,1.24,28.71-.37,1.29-.21,2.52-.74,3.8-1a1.69,1.69,0,0,1,2.05,1c.41,1.08-.35,1.44-1.26,1.57-.48.07-1.15,0-1.39.27-4.9,5.71-6.66,6.32-14.4,6.49C132.89,344.15,127.24,342.65,121.89,345.14Z"/><path class="grey" d="M101.63,249.93c-3.73,13.67-9.78,26.52-14,40-1.68,5.32-4.22,10.47-3.77,16.29-4.86-.59-8.31-5.1-13.69-4.61-2.41.21-.63-2.44-1.06-3.69-.51-1.47,2,.65,2.67-1.27-4.61-3.88-1.82-10.7-5.92-15.1,3.21,3.34,5.39,7.38,9.94,9.35,1.11.48,2.43,2,3.64,3.1.27-2.53,4-2.69,3.72-5.81-.28-3-.92-5.81-.32-9.07.64-3.45,3.54-5.08,5-7.28,2.06-3.16,1.13-6.55,3-9.38,1.79-2.67,2.54-6,4-8.94C96.13,250.74,97.94,248.44,101.63,249.93Z"/><path class="grey" d="M51.89,205.18c5-2.09,8.37-6.1,11.57-10.25.79-1,1.13-2.43,2.66-2.72,1,5.25-.08,9.75-4.45,13.19-1.89,1.5-3.52,2.9.09,4.56,1.42.66-.08,6.89-1.67,7.65-3.9,1.89-3.9,1.89-.91,4.37-7.28,3.33-4.71,11.26-8.35,16.54-4.37-3.91-3.84-9.36-3.49-14.88C47.75,217.19,50.93,211.46,51.89,205.18Z"/><path class="black" d="M27.48,124.68c.49-3.06,2.9-5.49,4.87-6.79,3.33-2.21,4.93-4.87,3.37-7.89s.36-3,1.65-4c4.36-3.58,9.13-3.74,14.2-1.83a4,4,0,0,0,3.31.26c-.44,1.89,2.3,2.1,2,3.9l-.62,2.94c-1.27.38-1.21,1.58-1.57,2.52l-.32.21c-2.88,1.12-6.87,1.23-5.62,6.13-3.08,4-8.21,2-11.95,4.1-1-2.1,1.4-1.25,1.76-2.06a2.4,2.4,0,0,0-2.35-3.57c-1.68.37-4.62,1.14-4.7,3C31.41,124.84,29,123.86,27.48,124.68Zm13.76-4.24c.51-.23,1.41,0,1.22-1.08a1.27,1.27,0,0,0-1.4-1.08,1.2,1.2,0,0,0-1.26,1.23C39.81,120.4,40.61,120.31,41.24,120.44Z"/><path class="grey" d="M82,133.18c2.94,2.16,4.41.55,5.52-2.12,3-7.28,7.7-13.74,10.14-22.6,1.13,3.2,1.8,5.13,2.48,7.07-5.24,1.26-4.47,6.61-5.5,9.92a34.4,34.4,0,0,1-2.3,5.69c-1.6,3.05-3.69,5.88-4.93,9.06-.91,2.36-2.41,4.26-4.42,3.33s-4-3.08-2.34-6.12A23.46,23.46,0,0,0,82,133.18Z"/><path class="grey" d="M73.71,169.23c0-6,.74-12-.87-17.94,1.85.28,1.41,4.24,3.72,2.88,1.62-.95,1.81-3.29.31-5.25a2,2,0,0,1,1-3.18c1.66-.6,3.62-1,5.17.44a2.29,2.29,0,0,1,.07,3.54c-2.34,2.13-2.42,4.75-2.73,7.65C79.88,162.1,75.62,165.07,73.71,169.23Z"/><path class="grey" d="M166,328.1,167,327c2,.49,3.88-.42,5.78-.91,1.51,8-1,11.15-9.31,11.27-1.38,0-1.31,2-2.65,1.22-1.51-.82-3.57-1-3.8-3.3s1.88-1.57,2.91-2.28C162.07,331.53,164.51,330.39,166,328.1Z"/><path class="grey" d="M321.86,6.82c-1,5.77-3.55,7.37-8.93,5.4-1.05-.38-1.68-.77-2.28.58-1.43,3.24-5.17,2.41-7.55,4.06-1,.7-2.18-.42-2.15-1.26.06-1.36-1-3.43,1.14-4,1.75-.46,3.3-.68,2.57-3.05l5.07-1.29c3,2.2,5.68,2.13,8-1C319.27,5.2,320.88,3.74,321.86,6.82Z"/><path class="grey" d="M56.92,108.32c.26-1.8-2.48-2-2-3.9,1-1.57,2.49-1.55,4.06-1,0,1.92,1.32,3.83,2.74,3.51,5.43-1.24,6.38,2.86,8.17,6.11-1.29,1.39-4.88-.89-4.66,2.91-2.85-3.87-7.41.71-10.46-2.13.36-.94.3-2.14,1.57-2.52h9.31A10.79,10.79,0,0,0,56.92,108.32Z"/><path class="grey" d="M138.31,191.23c-2.61-1.9-6.42-3-2.3-7.51,1.92-2.11,1.75-5.91-.23-8.83-.35-2.63,1-4.76,2.09-7,.52-1.05,1.18-2.17,2.63-1.42,1.27.66,1.41,2.53.8,3-3.51,2.47-3,5.05-.71,7.91l-.92.34.73.32c0,1.44,1.6,1.79,2,2.67C137.42,182.93,138.24,187.23,138.31,191.23Z"/><path class="grey" d="M27.48,124.68c1.48-.82,3.93.16,4.07-3.12.08-1.83,3-2.6,4.7-3a2.4,2.4,0,0,1,2.35,3.57c-.36.81-2.79,0-1.76,2.06.83,2.24,4.08-.18,4.94,3.56-4.46-3-7.11,5-11.79.69C28.8,127.37,27.3,126.63,27.48,124.68Z"/><path class="grey" d="M109.1,233.81c-.37,4.32-4.78,7.07-4.51,11.63-3.42-.79-6-1.35-3.19-6.12,1.68-2.92,2.93-6.24,4.61-9.31C108.46,230.33,106.63,233.77,109.1,233.81Z"/><path class="grey" d="M249.37,179c4.08,1.07,4,5.16,4.86,7.92,1.21,4,.86,8.42,1.18,12.67C250.05,193.71,249.62,186.38,249.37,179Z"/><path class="grey" d="M20.63,197.22a40.31,40.31,0,0,1-2.83-9.86c2.26.51,2-2.43,4.11-2.72a34.07,34.07,0,0,0,3.87,7.47c1.68,2.27,1.87,5.3-1.2,7.3l.16-.1C25.11,196.37,25.11,196.37,20.63,197.22Z"/><path class="grey" d="M72.3,150.18c-2.34-1.68-1.41-4.58-2.5-6.72-2.71-5.3-7.18-7.43-12.94-7.29,3.67-3.75,8.21-3.81,11.51.17,2.74,3.31,3.57,7.66,5.44,11.46A1.55,1.55,0,0,1,72.3,150.18Z"/><path class="grey" d="M96,307.29c0-2.64,1.13-3.59,3.63-2.2a3.53,3.53,0,0,1,3.58.94c1.39,1.38,2.55,2.88,5.12,1.71.93-.42,2.11,1.26.44,2.51-2.63.82-8.14-1.81-5.85,4.89l-4.76-.51C100.7,311.09,100.47,308.49,96,307.29Z"/><path class="grey" d="M57.29,320c4.07,1.79,7.37,5.29,12.15,5.45,1.22,0,1.31.72,1.14,1.6a1,1,0,0,1-1.48.71c-1.69-.93-3.49-.6-5.47-.61,2.32.93,2.45,3.15,3.27,4.95-2,.38-2.49-1.09-3.56-2.29s-1-3.38-3-3.37C54.68,326.48,54.73,323.9,57.29,320Z"/><path class="grey" d="M47.21,255.51c-.41-5.22-.39-10.48-2.1-15.52,1,.74,1.72,1.69,3.4,1,3.53-1.39,2,2.86,3.68,3.61C48.16,247.18,49.88,252.35,47.21,255.51Z"/><path class="grey" d="M94.84,99.24c2.52,4.14-.67,7.15-2.36,10.22-.9,1.64-2.28,3-1.84,5.77-2.19-2.24-5.37-1.73-5.86-4.82,2.34,1.09,4,1.18,4.9-2C90.67,105.05,91.9,101.61,94.84,99.24Z"/><path class="grey" d="M32.55,167.92c1.26,3.15-.65,6.08-.64,9.18a34.18,34.18,0,0,0,.87,9.25c-3.33.23-4.6-1.24-4.23-4.6s.23-6.78.52-10.15C29.24,169.6,30.86,168.65,32.55,167.92Z"/><path class="grey" d="M34.79,310.27c3.35-1.53,5.09,1.05,7.15,2.8-1.37,1.86,1.25,3,.91,4.72C37.08,317.93,35.72,316.65,34.79,310.27Z"/><path class="grey" d="M21.68,145.23c-1.77-1.43-.12-3-.11-4.45,0-2.35,1-4.91-1.69-6.54-.35-1.81,1.17-2.6,2.08-3.69.68-.81,1.43-2.3,2.71-1.17.88.77,2,2.81,1.72,3.14C23.17,136.2,25,141.67,21.68,145.23Z"/><path class="grey" d="M91,63.21c3.65,3.22,5.31,7.79,7.89,11.73-.75,1.75-1.68,1.23-2.52.13C93.65,71.54,90.83,68,91,63.21Z"/><path class="grey" d="M48.79,120.12c-1.25-4.9,2.74-5,5.62-6.13a8.55,8.55,0,0,0,0,1.43C55.31,121.64,55.32,121.64,48.79,120.12Z"/><path class="grey" d="M18.66,126.38c-1.37.2-2.09-.95-3.09-1.51,1.22-2.91,2.89-5.43,5.8-6.81C23.44,121.77,20.17,123.79,18.66,126.38Z"/><path class="grey" d="M56,265.37c-.77,2.78-5.41,3.95-6,1.49-.58-2.2-4.21-3.24-2.38-6.11C50.14,262.68,52.57,264.91,56,265.37Z"/><path class="grey" d="M10.07,207.23c1.59,2.53,4.66,3.75,5.82,6.65,0,.88.54,2.25-1,2.14C13.05,215.89,9.6,209.35,10.07,207.23Z"/><path class="grey" d="M16.91,157.26a7,7,0,0,1,1.4-3.92c1.69.08,2.91,1.12,4.26,2a1.73,1.73,0,0,1,.83,2.42c-.8,1.56-1.51.11-2.21-.27C19.79,156.71,18.33,157.41,16.91,157.26Z"/><path class="grey" d="M99.72,302.09c-1.34-3.32,1.39-10.28,4.51-11.52C103.6,294.75,101.19,298.23,99.72,302.09Z"/><path class="grey" d="M314,3.61c-1.67-.56-4.06.89-4-1.19,0-2.6,2.78-2.12,4.61-2.27,1.51-.12,4-.68,3.83,1.53C318.21,4.52,315.14,2.45,314,3.61Z"/><path class="grey" d="M110,149.41c-1.39,2.22-1.53,5.53-5.1,5.83C103.2,150.36,106,149.36,110,149.41Z"/><path class="grey" d="M19.88,134.24c-.51,3-2.45,1.28-3.72,1-1.88-.44-1.41-2.35-1.64-3.66-.39-2.29,1.16-2.64,3-2.51C17.86,131,16.32,133.79,19.88,134.24Z"/><path class="grey" d="M134.44,202.52c-2.35-3.19-1.79-6,1.2-8.4C138.06,197.32,134.57,199.68,134.44,202.52Z"/><path class="grey" d="M394.89,57.28c-3.59,4.26-4.38-.41-6.15-1.94C391.45,53.87,393.11,55.77,394.89,57.28Z"/><path class="grey" d="M126.56,137.57c4.79-.06,6.07,1.2,5,4.9Z"/><path class="grey" d="M28.84,115.69c-1-.73-2-1.47-1.88-3a2.49,2.49,0,0,1,2.5-2.5c1.36,0,1.69,1.36,1.62,2.56A2.82,2.82,0,0,1,28.84,115.69Z"/><path class="grey" d="M288.72,320.24c2.47.46,5.55-1.48,7.3,1.85C293,323.87,290.69,322.68,288.72,320.24Z"/><path class="black" d="M317.71,6.25c-2.3,3.13-5,3.2-8,1C312.22,5.53,315.07,6.71,317.71,6.25Z"/><path class="grey" d="M71,179.25c-1.26-3.35.25-5.88,2.45-8.19A17.34,17.34,0,0,1,71,179.25Z"/><path class="grey" d="M288.79,13.3c.09,3.81-2.44,4.42-5.44,4.46C284.75,15.77,286.33,14,288.79,13.3Z"/><path class="grey" d="M128.7,310c-.55,2.91-1.72,4.62-4.88,2.55C124.89,310.68,126.2,309.22,128.7,310Z"/><path class="grey" d="M32.8,268.27l-3.42,2.06.8-5.44C32.17,265.15,31.9,267.16,32.8,268.27Z"/><path class="grey" d="M26.78,300.27c2.93-.09,4,1.52,3.79,4.23A5.14,5.14,0,0,1,26.78,300.27Z"/><path class="grey" d="M469.77,112.3c-1.3-2.44,1.71-3.21,2-5,1.77.41.51,1.84.87,2.75C474,113.51,471.76,112.82,469.77,112.3Z"/><path class="grey" d="M112.66,153.25c-3.45-.24-1.79-2.61-1.78-4.3C111.37,150.43,115,150.6,112.66,153.25Z"/><path class="grey" d="M56.75,294.31A6,6,0,0,1,61.4,293C60.06,296.41,59.22,296.66,56.75,294.31Z"/><path class="grey" d="M401.66,61.36c-2.16-.57-5.05,0-5.21-3.54C398.48,58.57,400.66,59.09,401.66,61.36Z"/><path class="grey" d="M46.81,141.17c.41,2.69-.75,3.13-3,2.05C44.36,141.85,45.19,140.94,46.81,141.17Z"/><path class="grey" d="M125.86,324.06c1.06-1.1,2.47-.9,3.79-1C128.89,325.3,127.77,326.15,125.86,324.06Z"/><path class="grey" d="M91.9,57.29c.8,1.2,1.14,2.35-.42,3.24A2,2,0,0,1,91.9,57.29Z"/><path class="grey" d="M22.77,290.29c1.61.48,2.66,1.18,1.13,2.89C22.61,292.58,22.91,291.35,22.77,290.29Z"/><path class="grey" d="M51,137.43c-.26,2.26-1.91,1.67-3.3,1.61C48.45,137.83,49.26,136.71,51,137.43Z"/><path class="grey" d="M132.23,206.25c-.66-.29-1.15-.85-.83-1.49s1.07-.57,1.71-.28C133.17,205.25,133.11,206,132.23,206.25Z"/><path class="grey" d="M290.84,10.36c.06,1.24-.68,1.8-1.74,2.1A1.72,1.72,0,0,1,290.84,10.36Z"/><path class="grey" d="M92.6,53A2,2,0,0,1,92,55.27C90.31,54,91.4,53.52,92.6,53Z"/><path class="grey" d="M68.21,116.88c-.12,0-.3.12-.36.07s-.09-.25-.13-.38a1.18,1.18,0,0,1,.38.09C68.16,116.69,68.18,116.8,68.21,116.88Z"/><path class="black" d="M222.53,35.43l1.55.59c-.23.19-.45.51-.7.55-.95.12-.78-.62-.81-1.19Z"/><path class="black" d="M140.4,178l-.73-.32.92-.34A.76.76,0,0,1,140.4,178Z"/><path class="grey" d="M29.55,264.37h-.27l.12-.74Z"/><path class="black" d="M110.49,268.6l.19-.06-.09.13Z"/><path class="grey" d="M116.65,324.35l1.2.83C117,325.61,116.64,325.23,116.65,324.35Z"/><path class="grey" d="M285.79,317.18c.77-.16,1.15.12,1,.93Z"/><path class="grey" d="M329.14,119.26c-2.89.3-3.92-2.61-6.1-3.56-.79-.34-.57-1.33-.24-1.71a3.86,3.86,0,0,1,3.9-1.45c2,.54,4.28,1,5.86,2.28,3.5,2.74,7.18.09,10.71.81,1.12.23,1.93-1.07,1.52-2.48.43-1,1.3-.85,2.14-.76,5.07,2.67,8.31,1.09,10.86-5.29a3.14,3.14,0,0,1,.24-3c2.39.32,2.87-1.92,4-3.15,1.83-2,2.91-4.6,6.36-4.7,2.53-.07,2.21-3.24,3.3-4.81,2.72-3.9,8.18-5.75,8.46-11.63.14-2.73-1.14-4.79-1.71-7.14-.64-2.66-2.06-5.14-3.21-7.66-.72-1.61.19-1.61,1.32-1.48l.63.51V62.88c-1.57-1.91-3.91-3.22-3.65-6.39.16-1.88-2.79-4.16,1.23-5.39.65-.2.6-2.41-.2-3.62,3,.07,3.76,2.34,4.19,4.56,1.53,7.9,8.92,11,13.29,16.57l.24,5.78c-.94,1.08-5.61-.9-2.75,3.34a1.16,1.16,0,0,1,0,.92c-8.49,3-6.69,12.17-10.69,17.91-2,2.9-3.57,6.17-6.13,8.75l.07-.08c-.39,3.89-3.06,5.21-6.42,6.15-2.09.58-3.39,2.43-4.5,4.32-1.34,2.27-2.68,4.58-5.89,4.52-1.38,0-1.95.88-2.09,2.25s-.49,3-2.66,2.48c-2-3.31-5.86-.47-8.25-2.48-1-1.31-1.84-3-3.84-1.92-1.29.68-2.38.49-2.94-.59C334.14,116,331.67,117.69,329.14,119.26Z"/><path class="grey" d="M244.94,46.42c.25,5.08,1.37,8.89,6.92,11.6,4.58,2.24,10.09,6.13,10.68,11.7.55,5.13,4.58,10,1.54,15.63a5.5,5.5,0,0,0,.17,5.52c.43-1.45.78-2.64,1.12-3.81a1.93,1.93,0,0,1,1.57,2.62c-3.44,8.7,1,15.38,6.15,21.25,3.75,4.3,5.4,9.4,7.72,14.23.87,1.81-2,2.83-3.49,3.7a6,6,0,0,1-4.58.39c-.78-2,2.17-2.61,1-5-2.36-4.94-2-5.1-7.1.12-3.39-.78-4.24-3.09-3.77-6.21q-.09-3-.16-6l.84,0-.21-.61-.56.69-3.11-.28c-.29-5.2,2.62-10,1.37-15.48-.71-3.1-.6-6.74-2.37-9.2-3-4.15-4.56-9.09-7.87-13,0-2.92-1.5-3.67-4.08-3l0,0a1.92,1.92,0,0,0-.9-2.86c-3.64-1.69-6.19-5.12-10.16-6.23-2-2.73-.39-7.08-4-9.11.67-3.69,5.9-2.23,6.61-5.87C241.76,48.3,242,48.27,244.94,46.42Z"/><path class="grey" d="M117,40.1c-3.32,2.27-4.67,5.35-3,9.09a3.81,3.81,0,0,1-.39,4.13c-2.27,3,0,6.44,1.22,7.33,5,3.49,2.57,6.64-.4,8.51s1.74,3.87-.75,5.12c-1.31-.06-2-1.43-3.59-1.28-3,.29-4.59-1.62-5.5-4.44-3.11-9.61-1.3-18.39,4.08-26.68a24.22,24.22,0,0,0,2.86-5.16c.48-1.41.33-3.11,2.27-3.28,2.22-.2,2.47,2,3.15,3.29C117.39,37.63,117,39,117,40.1Z"/><path class="grey" d="M309,161.43A10.19,10.19,0,0,0,305,171.58c.07.43,0,1.18.25,1.25,6.24,2.08.82,4.72.8,8.1-3.15-3.53-1.72-7.48-3.75-10.23-3.65,2-8.5,2.58-10.18,7.53-1.37,4-5.5,7.18-3.69,12.16-4.94.53-5.9-1.72-4.11-5.89,1.38-3.19,4.17-6.31,0-9.59-1.11-.87-.46-2.45-.56-3.72,2.95-3.21,7.25-4.77,10.09-8.23.48-.58,2.15-1.4,2.33-2,1.58-5.71,4.53-4.19,7.93-1.85A34.16,34.16,0,0,0,309,161.43Z"/><path class="grey" d="M346.52,265.24c3.08-2.49,6.75-.11,10.3-1.54,7.28-2.95,9.05-10.22,3.59-16.19-1.41-1.54-.31-4.75-1.82-7.11-.56-.89-1.83-3.11-.4-5.11,2.42,1.22,2.05,4.34,4.22,5.92,1.59-1.65-.19-3.55.52-5.09,3.54,6.5,9.22,11.84,8,20.59-1.22,9.07-1.1,9.73-10.5,10.37-4,.27-5.16,1.84-2.66,5.45-5.07,1.9-4.65-3.35-7-5.25L347.62,270C345.84,268.52,346.76,266.76,346.52,265.24Z"/><path class="grey" d="M343.39,177.74c-.77-1.21.7-3.83-2.44-3.59-1.41.11-1.89-1.36-1.92-2.45-.1-4.7-1.66-9.16-2.3-14.12a4.25,4.25,0,0,0,4.51.12c-2.34-2.44-1.86-5.29-.65-7.9s3.56.73,5.23-.5c1.22,4.79-.31,9.64.46,14.54.62,3.88,1.61,7.92-.15,12.18-1.23,3,3.23,4.84,3.71,8.09.34,2.28,1.34,4.33.09,6.66-.42.78-.54,2.59-.14,2.83,3.43,2,1.09,4.85,1.19,7.31-3.11-.28-5.83-.91-3.69-5,.83-1.58-.31-2.44-.89-3.57-2.23-4.35-4.37-8.73-3.89-13.84.31.24.79.75.92.67C344.16,178.75,343.71,178.22,343.39,177.74Z"/><path class="grey" d="M457.22,94.29c-2.83-1.76-3.09-5.24-5-7.76-7.65-10-18.21-11-29.24-11.42-1.83-.07-3.62.16-5.21-1a57.74,57.74,0,0,1,12.94-6.75c1-.36,2-.21,3.05-1.18,3.91-3.72,6-3.17,7.8,1.58.15.4.75.62,1.12,1,5.48,5.08,9.42,11.49,14.43,17a2,2,0,0,1,.56,1.3C457.57,89.46,457.38,91.87,457.22,94.29Z"/><path class="grey" d="M300.68,284.09c-.91-2.79-1.66-5.66-2.78-8.37-1.88-4.57-2.13-9.21-1.85-14.09.4-7-4.59-12.6-5.36-19.43s-2.26-13.57-3.53-20.33c-.23-1.19.58-1.82.84-2.73,3.76,6.52,3.83,14.06,5.6,21.11.73,2.88,3.48,5.39,2.17,8.76,1.73,3.21-.42,7.89,3.82,10.16,3.05.87,3.44,4,3.9,6.09,1.11,5.1,3.08,9.87,4.68,14.78.54,1.65.23,2.8-1.3,3C304.77,283.24,302.93,284.91,300.68,284.09Z"/><path class="grey" d="M386.74,101.3c6.35,1.25,3.63,6.8,4.29,10.25.88,4.63,2.19,9.71-.39,14.44a1.6,1.6,0,0,0,0,1.43c4.31,4.34,3.28,10.4,5.09,15.53.51,1.45.85,3,3,2.22a51.74,51.74,0,0,0,4.21,17.74c-.86.27-2.21.06-2.07,1.47.12,1.17.9,1.63,2,.8l-.09-.1v5.18c-4.39-1.38-5.27-5.95-6-8.41-2.79-9.43-3.61-19.42-6.15-28.95a120.43,120.43,0,0,1-4-19.66c0-.21-.85-.34-1.3-.51-1.1-2-.93-3.65.64-5.69C387,105.71,386.53,103.25,386.74,101.3Z"/><path class="grey" d="M263.08,193c3.64,1.7,5.54,1.44,7.45-3.1,1.33-3.16,2.06-7.66,6-9.55,1.35,2-.15,3.89,0,5.77,2.18,1,2.89-1.19,4.27-1.8-.24,5.87,1.86,11.33,2.95,17-2.63-.71-4.95,1.78-5.6,2.73-2.26,3.32-5.69,3.13-8.66,4.33-1.65-1.07-.74-2.74-.81-4.1-.08-1.94-.3-3.3-2.41-4.3A5.62,5.62,0,0,1,263.08,193Zm6.62,8.66c1.56-.66,2.11-1,2.69-1.12.78-.21,1.6-.24,2.37-.46,2.48-.69,3.27-3.36,1.2-3.71C272.65,195.74,271.57,198.57,269.7,201.61Z"/><path class="grey" d="M168.91,27.36c-.31,2.31-.21,4.3,3,4,.06,1.73-2,3-1,4.93a6.47,6.47,0,0,0-3.52,1.61c-1,.86-2.29,2.11-3.31,2-5.31-.65-10.69-2.08-13.17,4.88a1.05,1.05,0,0,1-1.7,0,43.84,43.84,0,0,1-3.08-7.08c-.75-2.56-.43-4.81,3-5.53,1.74-.36,2.34-2.16,2.06-4a25.27,25.27,0,0,1,7.82,1C162.6,30.34,165.7,28.58,168.91,27.36Z"/><path class="grey" d="M384.94,113.41c-.76,3-1.15,5.92-4.76,7.44-2.73,1.15-2.66,5.56-.4,7.79,3,2.94,1.69,4.86-.58,8.22-1.93,2.84-6.52,1.38-6.83,5.49-.06.83-1.07.48-1.68.36s-1.47-.61-1.11-1.26c1.37-2.48-1.68-5.12,1.05-7.66-4.14-.45-6.5,1.82-8.55,3.84a7.82,7.82,0,0,1-8.54,2.08c.18-.81,1.11-1.55.25-2.46l0,0c2.44,1,4-.9,5.81-1.79,3-1.46,5.14-5.44,9.46-3.4.27.12,1.25-.43,1.23-.62-.36-5,5.52-5.42,6.7-9.64C378,118.09,380.13,114.16,384.94,113.41Z"/><path class="grey" d="M381.42,299.8c.36-.73.53-1.75,1.12-2.16,6.77-4.7,12.68-10.49,19.25-15.38,3.11-2.3,5-5.65,8.36-7.69,1.47-.89,2.71-1.77,4.39-1.76.38,0,1.14.55,1.19.05.79-8.43,6.6.16,9-2.69-1.33,4.76-6.12,6-9.21,9-.26.25-1.08-.59-1.68.17-3.86,4.9-10.3,6.76-14.28,10.77-3.54,3.57-7.66,4.47-11.44,6.36C385.94,297.52,384.54,300.62,381.42,299.8Z"/><path class="grey" d="M324.71,279.13c5.22-3.62,1.22-7.62.42-11.45-.15-.73-1.32-1.82-1.21-1.93,3.64-3.6-1.07-6.88-.38-11,2.53,3.48,4.92,1.45,7.33.55,3,2.17,2.09,4.81.91,7.49-.17,3.85-1.8,1.46-3.12.63-.86,3.75-.85,7.3,1.17,10.59,3-.39,1.39-4.51,4.28-4.81,3.09,1.31,3.56,4.6,3.11,6.78-.52,2.48-2.83,4.31-6.33,4.31C328.62,280.28,326.76,279.51,324.71,279.13Z"/><path class="grey" d="M320.57,220.44c-2.23-.93-1.18-3.18-1.88-4.72-.55-1.2-.38-3.19-2.84-2-1,.44-2.36-.23-1.66-1.74,1.05-2.26.76-2.95-1.86-2.38-1.16.26-1.47-.89-1.35-2a11.7,11.7,0,0,0-1-5.22c-.56-1.6-.78-3.36,1.73-4.32,2.16-.82,2.43-2.84,1.07-4.85l-.11.08,3.73-.1c1.34,0,2.84.26,2.92,1.81.05,1-1,1.27-2.24,1.21-2.33-.11-1.34,1.84-1.17,2.77a34.93,34.93,0,0,0,2.29,8.5C320.3,211.74,320.09,216.08,320.57,220.44Z"/><path class="grey" d="M327.72,241.28a11.53,11.53,0,0,1-3.29-.71c-1.42-.8-2.28-2.29-3.65.38-1.27,2.47-.58,3.48,2.76,4.41-4.88-.09-6.07-1.22-5.55-5.26.38-3,.92-5.58-2.16-7.6-1.5-1-1.17-3-1.12-4.64,0-1.12,1.22-1,2-.93a5.16,5.16,0,0,1,1.68.8c-1,.6-4.35,1.05-.63,2.23,2.06.66,3.15-1.83,3.24-4.09,0-.56.54-1.1.83-1.65C324.66,229.6,325.78,235.58,327.72,241.28Z"/><path class="grey" d="M315.64,313.45c2.67-1.05,5.93-1.75,3.28-5.83a6.17,6.17,0,0,1,5.05.17c1.78.95,3.48,1.69,4.57-.92.33-.78,1.12-.51,1.65-.34,5.24,1.67,10.4.15,15.59-.26a8.17,8.17,0,0,1,1.93.31c.78,3.41-1.79,4.4-4,4-7.06-1.33-13.21.69-19.61,3.36C322.09,314.79,318.24,316.76,315.64,313.45Z"/><path class="grey" d="M272,146.07c4.65-3,4.87-7.67,4.55-12.48-.06-.89-1.09-2,.49-2.34s.82,1.12,1.14,1.81c2.64,5.7,1.74,11.11-1,16.5-.73,1.43-.78,3.2-1.5,4.63-.92,1.81-1.32,4.3-4.21,4.26-.85,0-1.74.2-1.68,1.3.05.91,2.43,2.62-.68,2.3-2.41-.24-1.49-1.94-.9-3.35a16.93,16.93,0,0,0,.61-2.38C270,152.94,272.05,149.84,272,146.07Z"/><path class="grey" d="M267,37.81c-6-.72-9.27,3.64-12.74,7.23-2.3,2.39-3.95,4.71-6.75.71-.18-.26-1.7.42-2.59.67a8.25,8.25,0,0,0-.7-1.84c-.62-.88-1.94-1.53-.54-2.8,1-.92,1.67-.08,2.58.3,2.32,1,4.54,3.48,6.15-1.7.69-2.2,5.59-3.94,9.3-4.22,2.81-.21,2.81-.26,1.53-3.89,2.07,1.37,4.58.23,5.69,2.73C269.81,36.93,266.05,35.75,267,37.81Z"/><path class="grey" d="M308.58,314c-.41-2.65-.58-5.45-4.6-4.52-.84.19-2.5-.07-2.31-1.22.52-3.19-2.95-4.14-3.51-6.69,9.13-.36,16.74,4.85,17.35,11.8C313.3,314.74,310.94,314.41,308.58,314Z"/><path class="grey" d="M425,269.33c-.63-2.4-3.07-5.32,2.29-5.6,1.53-.08,1.29-2.71,1.79-4.23,1.9-5.77,6.28-9.49,11.2-12.68,1,2.17-.76,3.56-1.74,4.82a55.14,55.14,0,0,0-8.31,13.55C429.55,267,428.92,270.76,425,269.33Z"/><path class="grey" d="M112.06,102.05c3.31.53,3.39.53,3.06,3.34-.13,1.2.63,1.38,1.34,1.64,2.06.74,3.33,1.19,2.57,4.3-.82,3.33,1.11-.34,1.86.2,2.2,1.6,4.33,3.35,7.08,4-1.44,3.26-4.85,4.31-7.56,1.59C116.3,112.94,112.74,108.23,112.06,102.05Z"/><path class="grey" d="M173.84,146.25c-5.63-4.54-5.63-4.54-.65-11.16a29,29,0,0,0,8.63,4.06c-.25,1.63-.5,3.26-.76,4.88C178.08,142.9,175.89,144.34,173.84,146.25Z"/><path class="grey" d="M237.24,112.23c-1.23-3.11-2.19-6.35-5.1-8.47-2.06-1.51-1.14-4-1.62-6-.26-1,.95-1.24,2.25-.52,3.32,1.85,6,3.94,6.34,8.13.13,1.38,1.1,2.69,1.69,4Z"/><path class="grey" d="M358.25,305.46a26.8,26.8,0,0,1,9.71-7.81c1.86-.84,3.81-.09,2.09,2.7-.78,1.26-.11,2.15.72,3-2,3-5.26,2.81-8.21,2.55C361.15,305.77,359.71,305.46,358.25,305.46Z"/><path class="grey" d="M423.74,215.12c-2.21,4.74,1.64,8.75,1.62,13.22l-3.63-4.26c.6-3.67-1.82-6.48-2.93-9.62-1.28-3.61-.23-4.57,3.23-3.85Z"/><path class="grey" d="M298.69,142.16c.08-1,.13-2.11,1.56-1.84.76.13,1.93,1,2.1.85,4.94-5.45,5.33,1.34,7.67,2.8-1.52,3.62-5,1.45-7.34,2.45C297.42,148.64,301.33,142.35,298.69,142.16Z"/><path class="grey" d="M295.43,51.28c.16,3.43-3.86,4-4.62,3.61-3.11-1.52-5.12.86-6.51,2-2.17,1.8-4,1.53-7.58,1.29,4.64-3.45,9.74-3.66,13.09-6.88C291.7,53.33,293.55,50.19,295.43,51.28Z"/><path class="grey" d="M186.86,156.26l0-3.1c.1-1,.72-1.21,1.58-1.1,1,1.57,2.56,1.24,4,1.15,2.36-.14,3.16,1.26,3.41,3.27.36.5,1.22.7,1,1.58-.09.77-.18,1.54-.28,2.31l-2.13.11c-.52-5.06-4.55-3.85-7.66-4.29Z"/><path class="grey" d="M220.9,57.15c-6.09.14-7.67-1.88-6.12-7.83C217.47,51.42,220.85,53,220.9,57.15Z"/><path class="grey" d="M71.88,329.81c5.82.38,8.17,1.51,11.09,4.91C78.3,336,75.89,332.81,71.88,329.81Z"/><path class="grey" d="M438.73,234.23c-2-3.92-7.94-4.07-8.75-9.14C434,227.08,439.19,228,438.73,234.23Z"/><path class="grey" d="M111.16,93c4,1.53,4.52,4.82,1.12,7.65C110.24,98.31,110.73,95.64,111.16,93Z"/><path class="grey" d="M191,31c-3.76-.67-7.34-1.77-10.14-4.58C185,26.34,188.5,27.49,191,31Z"/><path class="grey" d="M398.49,92.14c-.06,1.48,1.53,2,2.05,3.58-3.17-.72-6.35-.17-9.07-2C393.31,90.93,396.3,93.34,398.49,92.14Z"/><path class="grey" d="M314.59,29.51c-1.11-.14-3.13-.23-2.73-1.31,1.13-3.11-1.58-3-2.83-4.59l7.46.4C317.17,26.29,314,27.24,314.59,29.51Z"/><path class="grey" d="M416.93,74.45c-1.49,4.41-4.81,6-9.18,5.83C410.16,77.3,413.5,75.81,416.93,74.45Z"/><path class="grey" d="M361.93,275.35c-2.3,4.15-5.48,4.06-9.1,1.91,0-.85.41-2.18,1.05-1.81C356.67,277.06,359.26,275.29,361.93,275.35Z"/><path class="grey" d="M223.86,69.24c-.87-2.31-3.69-1.9-5.17-3.82,1.53-1.51,3.69-.36,5.54-1.76-.26,1.91-1.16,3.24-.28,4.59a3.38,3.38,0,0,1,.16.7C224.12,69,224,69.14,223.86,69.24Z"/><path class="grey" d="M251,167.32a2.91,2.91,0,0,1-2.54,3.32c-1.34.05-1.71-1.69-1.63-3,.09-1.5.26-3.18,2.18-3.3C251.44,164.15,250.18,166.56,251,167.32Z"/><path class="grey" d="M195.13,54l1.62,3.92c-2.33-1-6.57,1.22-5.82-3.69Z"/><path class="grey" d="M142.85,137.55c.36-1.5,1.38-2.27,2.81-1.76,2.5.9.33,3.1,1.08,4.54C145,140.09,143.29,139.67,142.85,137.55Z"/><path class="grey" d="M190.9,54.2c-3.45-.61-.24-4.8-3.08-5.75,2.6-2,4.24-2.07,3.71,1.94C191.36,51.66,191.11,52.93,190.9,54.2Z"/><path class="grey" d="M351.85,140.12c-2.63,1-5.28,1.77-8.13,1C346.72,139.12,350.72,138.6,351.85,140.12Z"/><path class="grey" d="M293.6,36.6c1,1.06,3.63-1.43,3.71,1.49.07,2.48-2.1,1.88-3.57,2.13C293.51,39,291.86,37.87,293.6,36.6Z"/><path class="grey" d="M460.07,102.43c-.54-2.46-3.2-4.23-2.34-7.15C461.69,96.62,461.46,99.34,460.07,102.43Z"/><path class="grey" d="M289.3,297.24c2.2-.45,4.09-.16,5.31,2.36-2.14,1.3-3.9-1.81-5.86-.48C288.44,298.35,288.37,297.64,289.3,297.24Z"/><path class="grey" d="M290.56,195.25a8.14,8.14,0,0,1,2.25,6C289.62,200.15,288.66,198.24,290.56,195.25Z"/><path class="grey" d="M313.37,270.1c.8.93,4.12.43,1.79,3.14-1.38-.55-2.91-.9-3.39-2.58C311.76,270.63,312.81,270.29,313.37,270.1Z"/><path class="grey" d="M389,59.08l-3.51-.5c.27-.56.39-1.42.83-1.64C388,56.1,388.36,57.93,389,59.08Z"/><path class="grey" d="M97.31,67.46c-.49-1.34-1.52-2.25-.8-3.5.08-.14.64-.19.83-.06C99,65,97.35,66.08,97.31,67.46Z"/><path class="grey" d="M128,37.16c3,2.7,3,2.7.34,4.56C128.22,40.2,128.1,38.68,128,37.16Z"/><path class="grey" d="M262.69,188.22c1.71,1.16,1.57,2.53.48,4-1.92-.57-.84-2.54-1.7-3.6l.72-.81.39,0Z"/><path class="grey" d="M352,205.21c-1-.93-1.45-2-.57-3.25C354.57,202.52,353.77,203.78,352,205.21Z"/><path class="grey" d="M391.45,95.11c.26,1.93-1.06,2.69-2.49,3.39C387.22,95.48,388.66,94.8,391.45,95.11Z"/><path class="grey" d="M186.44,46.55c.07-1.69.62-2.95,2.6-2.93C189.57,45.83,188.47,46.6,186.44,46.55Z"/><path class="grey" d="M127.67,43.2c.63,1.44,1,2.83-.7,3.86C127.11,45.76,124.72,44,127.67,43.2Z"/><path class="grey" d="M261.47,188.64c-3.49-.22-1.81-2.39-1.54-4.76,1,1.68,1.6,2.82,2.25,4Z"/><path class="grey" d="M113.17,77.35c.91-.28,1.09.45,1.34,1,0,.07-.38.46-.62.51-.7.14-1.31,0-1-.94l-.22-.29Z"/><path class="grey" d="M176.37,26l-.15,0a6.31,6.31,0,0,1-.63-1c.53-.45,1.17-.63,1.63.07C177.27,25.12,176.67,25.64,176.37,26Z"/><path class="grey" d="M223.74,57.78c.18,1-.5,1.91-1.11,1.88-1.26,0-.72-1.41-1-2.19C222.37,57.27,223.14,57,223.74,57.78Z"/><path class="grey" d="M123.87,46.43c-1.83,1.66-2.28,0-2.89-1.21C122,45.57,123.18,45.37,123.87,46.43Z"/><path class="grey" d="M362.49,273.09c-.22.11-.51.36-.65.3a6.44,6.44,0,0,1-1.06-.76,3.71,3.71,0,0,1,.83-.24C362.08,272.36,362.53,272.45,362.49,273.09Z"/><path class="grey" d="M338.15,138.68a2.85,2.85,0,0,1-2.25,1.71C335.86,138.79,336.88,138.57,338.15,138.68Z"/><path class="grey" d="M362.16,232.39c-.54-1.44-.51-2.51,1.49-2.31C364.1,231.45,363.14,231.93,362.16,232.39Z"/><path class="grey" d="M350,128.39c-.43-1.35-.27-2.34,1.42-2.47C352.07,127.39,352,128.45,350,128.39Z"/><path class="grey" d="M96.61,58.51l-.34.66a4.36,4.36,0,0,1-.13-.87,4.46,4.46,0,0,1,.17-.87Z"/><path class="grey" d="M257.15,112.87v0l-1.73.41c0-.13,0-.32,0-.39A1.21,1.21,0,0,1,257.15,112.87Z"/><path class="grey" d="M372.73,105.31c.52.09,1.43-.37,1.21.78-.05.2-.5.33-.76.49-.13-.45-.25-.9-.38-1.35Z"/><path class="grey" d="M191.43,182c.68,1.56.08,2.26-1.53,2.28C189.81,183.16,189.67,182,191.43,182Z"/><path class="grey" d="M57,168.28c-1.69-1.36-.91-2.8-.18-4.28a29.22,29.22,0,0,0,2.83-17.49c1.12-.45,2.7-.77,2.76.71.19,4.83,1.62,9.91-2,14.24C58.73,163.47,59.54,166.73,57,168.28Z"/><path class="grey" d="M42.12,182c2.15.69,2.42,2.48,2.57,4.35C41.57,186.23,42.17,183.92,42.12,182Z"/><path class="grey" d="M42.55,176.27c2.54,1.73,1.17,2.93-.54,4.09C42.27,179,41.34,177.5,42.55,176.27Z"/><path class="grey" d="M44,170.23c2.45,2-.5,2.13-1.09,3.07A3.63,3.63,0,0,1,44,170.23Z"/><path class="grey" d="M41.24,120.44c-.63-.13-1.43,0-1.44-.93a1.2,1.2,0,0,1,1.26-1.23,1.27,1.27,0,0,1,1.4,1.08C42.65,120.39,41.75,120.21,41.24,120.44Z"/><path class="black" d="M402.9,162.91a51.74,51.74,0,0,1-4.21-17.74c.74-4.8.46-9.83,3.55-14.09,1.23-1.71.49-3.87.61-5.83.52-1.34,4-2.71-.05-4-.66-5.8,4-8.4,7.19-11.85,3.89.12,3.85-4.76,7.47-5.57,5.52-1.23,10.83-3.32,16.47-.76a20.25,20.25,0,0,1,6.36,10.4c.22.77,0,1.71.84,2.21,3.78,2.25,3.95,6.15,4.4,9.86.54,4.51.91,9,1.35,13.56-.82,2.38.32,4.74-.73,7.41-2.37,6-3.67,12.46-5.4,18.73-.51,1.41-2.31,2.16-2,4l.15,3.15h0c-2.63.59-2.35,2.65-2.32,4.59l-1.71,1.37a5.79,5.79,0,0,0-6.13,2.95c-7.78,2.9-15.53-.14-19.88-7.43-1.81-3.05-2.65-6.86-6.12-8.78l.09.1C402.86,164.42,402.88,163.67,402.9,162.91Zm10.81-29.66a14.31,14.31,0,0,0-.59,1.86c-1.78,10.52,2.68,19.85,5.91,29.33,1.26,3.7,7.87,4.67,9.17,1.64,3.14-7.3,6.79-14.52,7.4-22.65.77-10.35-4.89-18.63-9.45-27.09-2.8-5.19-8-5.32-10.66-1.21-1.51.2-2.13.77-.89,2.13l-2,5C411.29,126.1,414.25,129.5,413.71,133.25Z"/><path class="black" d="M421.73,224.08l3.63,4.26c5,14.22-3.64,25.47-16.76,29.88-3.72,1.25-7.34-.91-11-.14l-1.78.09a8.92,8.92,0,0,1-5.15-1.86c1.45-1.88,1.06-3.26-1.14-4.15l.15-1.94,1.1-2,1.77.49c.4,1.34,1.06,1.82,2.22.66,1.91-.22,3.9.85,5.75-.37,1.38.08,2.51-.1,2-2l0,0c3.72-.3,5.95-.92,6-6.05,0-3.74-2.53-4.74-3.76-6.88-3.15-5.5-4.28-12.06-8.8-16.81l.06-2c1.34-2-1.14-2.68-1.43-4.11A222.93,222.93,0,0,0,384,183.14a212.53,212.53,0,0,1-11.07-30.86c-.48-1.8-1.33-3.6.26-5.09s3.06.08,4.59.33c.22,1.13.7,3.76,1.74,1.87,1.26-2.3,2-.19,2.61-.55,3.42-2.15,3.3,4.29,6.43,2.54,2.76,4.67,5.4,9.39,3.44,15.11-.33,1,.24,1.45.62,2.17A141.43,141.43,0,0,1,405,203c1.21,5.13,2.64,10.72,5.45,15.54a5.27,5.27,0,0,0,1,6.33c1.37,1.25,3.66.2,5.23-1.13C418.44,222.68,420,224.13,421.73,224.08Z"/><path class="grey" d="M440.75,165.25c1.73-6.27,3-12.71,5.4-18.73,1.05-2.67-.09-5,.73-7.41,2-1.85,6.05-4.23,5.73-5.45-.95-3.61.1-7.75-1.73-10.64-1.27-2-4.22-3-3.62-6.22,7.63,1.93,10.64,5,9.56,12.54-.42,2.9,1.71,3.78,1.79,6,.1,2.7,1.16,5.88-1.13,7.47s-4.27-1.37-6.53-2.72c-2.84,6.42-3.07,13.24-4.45,19.77C445.8,163.12,444.13,165,440.75,165.25Z"/><path class="grey" d="M396,217.23c4.52,4.75,5.65,11.31,8.8,16.81,1.23,2.14,3.77,3.14,3.76,6.88,0,5.13-2.25,5.75-6,6.05,1.5-2.8,2.78-5.57-1.82-6.66a1.83,1.83,0,0,1-1.4-1.79c-.51-7.06-2.61-13.8-4.06-20.67C395.24,217.7,395.71,217.44,396,217.23Z"/><path class="grey" d="M433.93,103.08c-5.64-2.56-10.95-.47-16.47.76-3.62.81-3.58,5.69-7.47,5.57-.28-6.06,5.12-7.14,8.76-9.28C425.63,96.07,428.55,96.92,433.93,103.08Z"/><path class="grey" d="M388.55,151.38c-3.13,1.75-3-4.69-6.43-2.54-.58.36-1.35-1.75-2.61.55-1,1.89-1.52-.74-1.74-1.87.75-1.64-1.39-3.07-.36-4.74,2.45,2.13,5.18,1.6,5.24-1.05,0-1.29-2.49-2.18-.37-4.13C385.75,141.59,388.16,146,388.55,151.38Z"/><path class="grey" d="M409.26,202.32c-.33-.87-.3-1.81.88-1.57.89.19,2.27-1.3,2.74.83s1.6,2.51,3,.63c.53-.68,1.06-1.46,1.82-.29a3.07,3.07,0,0,1,.66,1.74,2.68,2.68,0,0,1-1,1.66c-2.48,1.82-3.89,6.91-6.28,6C408.2,210.25,410.45,205.35,409.26,202.32Z"/><path class="grey" d="M435.92,99c6.51-2.24,8.19,1.72,9.76,5.2.83,1.85,4.29,3.53,1.92,5.63-1.06.94-2.57-2.8-4.22-3.33C439.58,105.25,439.94,100.88,435.92,99Z"/><path class="grey" d="M416.67,223.72c-1.57,1.33-3.86,2.38-5.23,1.13a5.27,5.27,0,0,1-1-6.33c1.14-2.45,3.15-2.85,5.21-1.63,1.81,1.07,2.68,2.78,1.12,4.92C416.44,222.24,416.69,223.07,416.67,223.72Z"/><path class="grey" d="M428.74,181.29a5.79,5.79,0,0,1,6.13-2.95c-.46,4.95-3.92,8.36-9.94,9.51C426.48,185.63,429.46,184.45,428.74,181.29Z"/><path class="grey" d="M310.87,174.1c-1.79-2.23-3.26-4.69-1.27-7.37,1.26-1.7,8.72-1.42,10,.37,1.57,2.17-.18,2.72-2,2.92-3.81-3.1-5.95-2.27-6.37,2.69A8,8,0,0,1,310.87,174.1Z"/><path class="black" d="M310.87,174.1a8,8,0,0,0,.38-1.39c.42-5,2.56-5.79,6.37-2.69-.33.53-.53,1.26-1,1.56-2.07,1.31,1,4-1.18,4.88C313.44,177.25,313.23,173.36,310.87,174.1Z"/><path class="grey" d="M351.74,216.73c.9,3.2,4,5.8,2.64,9.85C351.46,223.79,351.56,220.26,351.74,216.73Z"/><path class="grey" d="M403.29,178.39c-.28-1.82-2.8-3.4-.59-5.34.81-.71,1.28.18,1.57.51C406.15,175.66,403.56,176.75,403.29,178.39Z"/><path class="grey" d="M453.06,158.35c2,2.68.11,4.52-1.41,6.44C451.57,162.56,451.48,160.33,453.06,158.35Z"/><path class="grey" d="M307,181.55c.44,2.06,4.2,3.3.84,6.58-.72-2.23-1.36-4.24-2-6.25Z"/><path class="grey" d="M395.8,258.17l1.78-.09,2.2,2.84c-1.54.16-3,1.75-4.57.3C394.17,260.25,396.19,259.33,395.8,258.17Z"/><path class="grey" d="M402.8,121.26c4.1,1.28.57,2.65.05,4C401.4,123.94,401.84,122.6,402.8,121.26Z"/><path class="grey" d="M389.51,252.16c2.2.89,2.59,2.27,1.14,4.15C390.28,254.92,387.52,254.19,389.51,252.16Z"/><path class="grey" d="M436.58,177c0-1.94-.31-4,2.32-4.59C438.42,174.06,438.92,176.23,436.58,177Z"/><path class="grey" d="M390.76,248.18l-1.1,2c-1.11-.64-2.63-1.29-1.36-2.83C389.35,246.11,390.25,246.93,390.76,248.18Z"/><path class="grey" d="M394.59,211.08c.29,1.43,2.77,2.11,1.43,4.11C394.46,214.19,393,213.18,394.59,211.08Z"/><path class="grey" d="M438.9,172.38l-.15-3.15C441.46,171.1,441.46,171.1,438.9,172.38Z"/><path class="grey" d="M312.82,193.19l-1.61-.62c.35-.26.83-.81,1-.72.53.24,1.13.69.47,1.42Z"/><path class="grey" d="M402.53,247c.48,1.85-.65,2-2,2A1.87,1.87,0,0,1,402.53,247Z"/><path class="grey" d="M394.75,249.33c-1.16,1.16-1.82.68-2.22-.66C393.34,248.66,394.35,248,394.75,249.33Z"/><path class="black" d="M181.82,139.15a29,29,0,0,1-8.63-4.06c-3.07-3.33-6.17-6.63-9.21-10-1-1.08-1.78-2.14-2.49.13l-.23-.2-.23.21a22.36,22.36,0,0,1,2.78-9.67c1.53-2.62-.22-6.32,1.89-9.29.7-1,.54-2.71,1.37-4.06,2.13-3.45.92-6.07-2.49-7.89,1.9-1.82,1.12-2.79-1.05-3.32L163,89.28l2.94-.14c2,1.41,4.82-1.52,6.11.56,3.56,5.76,8.75,11.45,6.44,18.83-2,6.3,2.67,10.59,3.29,16a1.57,1.57,0,0,0,1.8,1.2c4.25-.52,6.92,1.68,6.93,5.62,0,4.32-2.1,7.71-7.26,7.71C182.8,139.05,182.31,139.12,181.82,139.15Z"/><path class="black" d="M194.41,160.48l2.13-.11c.64,1,1.77,1.9,2.63,1.23,1.14-.88-.56-1.54-.9-2.33-.23-.51-1-.81-1.45-1.21.25-.88-.61-1.08-1-1.58,3.87.32,7.77.42,11.6,1,6.6,1,12.62,1.16,15.62-6.51.26-.66.77.51,1.06,1,1,4.27,2.49.09,3.73.27h0c.85,1.23-3,3.51.89,4.07a16.33,16.33,0,0,1-13.59,15c-4.89.75-9.6,1.37-14-1.86-.76-.56-2.25-.12-3.4-.14-1.3-2.25-3.52-3.49-5.55-4.92-2.4-1.7-1.86-3.22.1-4.76,0,0,.27,0,.34.14a1.71,1.71,0,0,1,.19.46l.42,1,.68-.37A.69.69,0,0,1,194.41,160.48Z"/><path class="black" d="M195.8,90.37c0-.45-.19-1,0-1.34.48-.67.89-.16,1.51.13,5.34,2.45,9.41,6.49,13.5,10.51.35.35.58.94,1,1.09,6.45,2.33,6.24,7.56,5.63,13-2.15.56-2.49-2.53-4.54-2.33-.77,1.78,1.22,4.92-1.88,5.36-2.31.33-3.73-1.53-5-3.79a130.94,130.94,0,0,0-8.79-12.77c-2.21-3-4.59-6.25-8-.32,1.08-3.43-2.45-5.65-.87-9,2.32-4.85,5.06-.27,7.53-.69-.91,1.79.5,2.16,1.72,2.78-.06-1.39,1.19-2.68,0-3.91A12.83,12.83,0,0,0,195.8,90.37Z"/><path class="black" d="M155.2,61.89c3.07-.29,6.8,4,6.71,7.9A19.32,19.32,0,0,1,154.55,85c-1.18,1-3.83-.64-3.32-2.51,1.33-4.9-1.93-8.75-2.24-13.23C148.69,65,150.79,62.3,155.2,61.89Z"/><path class="grey" d="M213.07,124.5c4.05-4.56,7.85-5.54,8.48,2.32.26,3.28-3.94,3.52-5.86,3.78-3.61.5-3.55-3.39-4.24-5.88C211.17,123.67,211.81,123,213.07,124.5Z"/><path class="grey" d="M133,65.12c1.88-1.11,3.56-2.49,4-4.69.32-1.47.45-2.65,2.4-2.14a4.16,4.16,0,0,1,2.71,3.25c.35,1.56-1.2,1.17-2.52,1.43-3,.57-1.29,4.6-3.55,6.54-.87.75-1.72,2.4-3,3.64V65.06Z"/><path class="black" d="M153.9,58.46c-4.38,3.89-8.07,0-12-.62C145.39,53,149.28,53.17,153.9,58.46Z"/><path class="grey" d="M161,125.24l.23-.21.23.2c-.13,2.51-.09,2.62-1.73,3.09-2.57.74-4.51,1.29-1.67,4.37.93,1,.46,3.32.65,5.24-5.05-2.46-6.5-5.89-3.84-9.57C156.23,126.52,159.77,127.93,161,125.24Z"/><path class="black" d="M170.83,36.3c-.92-1.91,1.11-3.2,1-4.93,1.53-.41,2.61.85,4,1.05.57,1.25.81,2.75,2.51,3.08a14.77,14.77,0,0,1,.43,7.26c0,.07-.28.19-.37.15a5,5,0,0,1-.68-.48c-1.81-2.59-2.85-6.06-6.91-6.13Z"/><path class="grey" d="M242.82,156.62c-1.49-2.56-4.47-1.15-6.54-2.44-1.55-1-3.11-1.89-2.15-3.72,1.2-2.28,2,.59,3,.63,1.66,0,2.87,1.8,4.68,1.22l.06-.05,1,4.26Z"/><path class="grey" d="M172.84,43.3c-2.73,3.14-5.71,5.88-11.09,6.48,3.09-4.25,7.09-5.33,11-6.53Z"/><path class="grey" d="M170.83,36.3c4.06.07,5.1,3.54,6.91,6.13a6.84,6.84,0,0,1-4.9.87l-.08,0C172.36,40.86,172.26,38.4,170.83,36.3Z"/><path class="grey" d="M178.36,35.5c-1.7-.33-1.94-1.83-2.51-3.08.47-1.11-.27-3.29,1.45-3.14a5.51,5.51,0,0,1,4,2.61C182.2,34,179.5,34.37,178.36,35.5Z"/><path class="grey" d="M248.93,95.28c-.85,3.1,1.3,6,.29,9.11-.1-3-5.45-5.72-.21-9Z"/><path class="grey" d="M166,89.14l-2.94.14c-2.15-1.18-1.63-2.35.27-2.9,1.32-.39,2.84-.08,4.26-.08C167.93,88,164.87,87.27,166,89.14Z"/><path class="grey" d="M167,141.68c-2.62,1.32-3.8.33-4.46-1.85C164.29,139.42,165.62,140,167,141.68Z"/><path class="grey" d="M227.86,152.21c-1.24-.18-2.78,4-3.73-.27.75,0,1.57.4,2.17-.4l1.21-1.62C227.63,150.68,227.74,151.44,227.86,152.21Z"/><path class="grey" d="M163.53,91c2.17.53,2.95,1.5,1.05,3.32C161,94.24,163.78,92.14,163.53,91Z"/><path class="grey" d="M228.75,156.28c-3.89-.56,0-2.84-.89-4.07C231.48,152.83,228.08,155,228.75,156.28Z"/><path class="grey" d="M199.93,58.48c-.13.59-.16,1.27-1,1.33-.14,0-.48-.52-.42-.68a9.11,9.11,0,0,1,.84-1.4Z"/><path class="grey" d="M119.5,60.66a2.91,2.91,0,0,1,.41.55c0,.06-.17.33-.25.32a2.56,2.56,0,0,1-.62-.22Z"/><path class="grey" d="M133.06,65.06l-.4.14.33-.07Z"/><polygon class="grey" points="241.84 152.31 241.95 152.12 241.88 152.26 241.84 152.31"/><path class="black" d="M284.42,81.43l4.44-1.08-.11-.08c.81,1.54,2.05,1.43,3,.45.55-.55-.18-1-.92-1,.66-.59-.07-1-.18-1.53h0l1,.29c3.35,2.57,6.15,2.64,8.86-1.19,3.37-4.75,5.68-4.81,8,.4,1.49,3.29,3,6.46,1.06,11.47-2.13,5.37-6.49,8.73-8.39,13.8-.87-.6-2.31-.37-2.62-1.8-8.74-1.12-17.51-4.12-26.31,1.66.48-4.47,6.39-8.24-.93-10.59-1-.33-.39-1.27,0-2,.92-1.9,1.68-3.88,2.5-5.83,2.44-1.74,5.87-.73,8.16-2.92a.69.69,0,0,1,.59.56c-.48.45-.82,1.26-.3,1.52.92.47,1.22-.46,1.47-1.19l.71-.89Z"/><path class="black" d="M355.69,64.92c-.37,5-5.84,11.43-11.14,13.1a46.42,46.42,0,0,1-13.46,2.5c-2.47,0-7.94-5-8.14-7.8a44.76,44.76,0,0,1,.37-6.42c.28-3.63,3.82-2.25,4.26-1.6,4.06,6,7.13,1.26,10.09-.9,3.19-2.33,5.84-5.39,9-7.84s6.12-1.06,6.67,2.88a4.7,4.7,0,0,0,.6,2.28C355.53,63.1,355.79,63.46,355.69,64.92Z"/><path class="black" d="M346.93,112.39c-.84-.09-1.71-.28-2.14.76-4.93-.42-9.85-.85-14.49-2.86-1.69-.73-3.29-1.5-2.34-3.48.71-1.47-.18-3.47,3.15-4.31,3.71-.94,9.79.91,11.1-6.07.35-1.88,4.41-3,6.67-4.68,1.84-1.36,3.19-3.11,4.89-4.54-.11,1.12-.72,2.62.54,3.14,1.57.65,2.73-.67,3.78-1.75l.37.28c-1.19,2.39-.47,3.53,2.21,3.39,2.5,4.69-.75,8.09-2.64,11.79a3.14,3.14,0,0,0-.24,3Z"/><path class="grey" d="M328,32.25c1.45-2.51,2.38-3.24,5.52-2.24,5.15,1.64,10.05,3.08,13.59,7.39,1.19,1.46,4,3.18,1.85,4.93a5.86,5.86,0,0,1-8.1-.1c-2.26-2-1-6.72-6.53-6.65C331.65,35.62,329.5,32.23,328,32.25Z"/><path class="grey" d="M282.06,81.41c-2.29,2.19-5.72,1.18-8.16,2.92-2.41-3.25-1.76-6.5.25-9.55a18.9,18.9,0,0,1,3.35-3.13c-.55,2.78,4.44,2.53,3.14,5.44C279.68,79.25,280.45,80.34,282.06,81.41Z"/><path class="grey" d="M304.44,39c-2.48.38-4.58-1.39-4.27-3,.42-2.15,3-3.54,5.47-3.2,1.7.23,4.78-.35,4.66,2.18C310.16,38,307.14,38.68,304.44,39Z"/><path class="grey" d="M327.7,62.28c-.6-.53-1.69-1.1-1.63-1.53a2.62,2.62,0,0,1,3.05-2.36c.85.07,2.34,0,2.09,1.3C330.91,61.28,328.94,61.17,327.7,62.28Z"/><path class="grey" d="M358.09,88.6c-1,1.08-2.21,2.4-3.78,1.75-1.26-.52-.65-2-.54-3.14C356.35,84.13,357.47,85.59,358.09,88.6Z"/><path class="grey" d="M298.66,101.14c.31,1.43,1.75,1.2,2.62,1.8-2,1.6-4,2.86-7,2.18C294.77,102.61,297,102.19,298.66,101.14Z"/><path class="grey" d="M291.71,78.46l-1-.29A16.58,16.58,0,0,1,296,72.25C296.64,76.12,293.76,77,291.71,78.46Z"/><path class="grey" d="M360.67,92.27c-2.68.14-3.4-1-2.21-3.39C360.05,89.46,362.94,89.19,360.67,92.27Z"/><path class="grey" d="M283.82,82.3c-.25.73-.55,1.66-1.47,1.19-.52-.26-.18-1.07.3-1.52Z"/><path class="grey" d="M290.69,78.18c.11.51.84.94.18,1.53a1.9,1.9,0,0,1-2.12.56l.11.08C288.12,78.49,289.26,78.21,290.69,78.18Z"/><path class="grey" d="M284.42,81.43l.11,0c-.12-.09-.35-.18-.34-.26.05-.51.24-.54.46-.08C284.68,81.14,284.5,81.31,284.42,81.43Z"/><path class="grey" d="M281,183.05c-1.69-.63-3.74-6.27-2.62-7.22.7-.58,1.28-.3,1.44.47.32,1.55,3.77.54,2.59,3.24-.53,1.2-1,2.42-1.53,3.63Z"/><path class="grey" d="M186.75,156.19l.09.67-.58-.12.6-.47Z"/><path class="grey" d="M194,160.83l-.68.37-.42-1Z"/><path class="grey" d="M412.6,122.27c3.3,3.37,3,7.09,1.11,11C414.25,129.5,411.29,126.1,412.6,122.27Z"/><path class="grey" d="M415.49,115.13c.57,1.07,0,1.65-.89,2.13C413.36,115.9,414,115.33,415.49,115.13Z"/></g></g></svg>