<svg xmlns="http://www.w3.org/2000/svg" viewBox="0 0 486.67 350.79"><defs><style>.grey{fill:#454545;}.black{fill:#050505;}</style></defs><g id="Capa_2" data-name="Capa 2"><g id="Capa_3" data-name="Capa 3"><path class="grey" d="M486.67,41l-1.39-.82c.43-.36.83-.89,1.39-.18Z"/><path class="black" d="M80.85,318.73a13.24,13.24,0,0,0,8,1.47c-.75,3.9-4.5,2.14-6.6,3.5-1.82-1.15-3.31.56-5,.57-3.19.33-6.91-2.46-9.46,1.62A45.22,45.22,0,0,1,52,335a31.74,31.74,0,0,0-15.42,1.19c-2.56.85-4.06.4-4.72-2.26l1-2c1.71-.35,2.52-.93.54-2.19L31,327.18c.3-3.18-4.21-2.54-4.28-5.42.08-1.35-2.61-2.13-.79-3.84,2.52-2-1.67-4.39,1-6.41-5.55,0-3.2,2.4-2.13,4.37-1.78,1.6-3.26,3.39-3.52,5.9l-4.33.07-2-14.13-.19-.08c3.7,1.51,3-2.29,4.41-3.62,1.59-.38,4.93.51,2.08-3-.33-.42.45-1.73.71-2.62,2.48.07,3.77-1.69,5.11-3.35,1.88,0,1.93,2.62,4,2.6-.4-1.68,1.25-2.63,1.68-4.62-2.75.68-4.66-1.82-7.24-.85a.58.58,0,0,1-.65-.31c1.57-5.57,2.73-6.09,8.62-3.8.78,1.21-1,3.68,1.46,3.86s1.79-2.28,2.18-3.71c1-3.66,4.74-6.47,3.36-10.86.73-3.2,3.22-5.22,5.12-7.63.13.15.28.29.42.43,2.06,2.51,6.51,2.55,7.94.08.88-1.53.26-1.92-1.28-2.2-5.39-1-5.38-1.06-1.77-5.82,1.16,1.18,1.47,4,4.29,2,3.05-2.17,3.64-3.62,2-7.26-2.67-.54.73,3.11-2.14,2.76-3.06-.36-6.24.58-9.23-.74l.37-1c1.53-1.07.43-2.61.71-3.9l1.25-3.19c3.51-.55,3.78-4.75,6.69-6,.31.92-.47,2.59,1.37,2.44a1.62,1.62,0,0,0,1.4-2.14c-.63-1.68-1.9.35-2.81-.25l-.14-3.25c2.18-2.36,2.33-5.75,4.59-8.29,1.42-1.6-.56-4-3.06-4.66l-.24.08c.26-1.08-.65-.77-1.14-1-1.77-3.76-6-3.39-8.86-5.27-1-.67-2.56-1.62-1.67-3.11.74-1.23,2.07-.34,3.15,0,1.54.54,2.88,1.85,6.1,1.58-2.78-1.37-4.34-2.23-6-2.93s-3.29-1.51-3.24-3.94l4.48-.3,10.83,1.75c3.83,1.52,7.67,3,11.24-.56l1.51-3.21c3.13-2.72,5.12-6,5.24-10.28.68-1,1.3-2.13,2.06-3.11,2.11-2.68,1-3.65-1.9-3.78a2.78,2.78,0,0,0-2.7-1.91c-2.64-2.43-6.51-3.34-8.39-6.71,1.8-2.63-1.55-5.32.08-7.95l2.31,0c2.61,1.95,5.72,1.66,8.7,1.95l2.9.29c5.36,4.24,7.11,3.79,10.59-1.16,2.95-4.2,5.5-8.44,6.72-13.43,1.65,0,3.44.16,2.48-2.46l2.28-3a60.76,60.76,0,0,1,16.64-12.63c1.68-.82,1.35-1.78.46-3.14a61.28,61.28,0,0,1-4.72-8.14c-.75-1.66-2.87-4.74,1.95-4.14a1,1,0,0,0,1.18-1.16c-.13-1.29-.84-2.41-2.08-2.43-2.92-.06-3.13-1.14-2.14-3.62a2.69,2.69,0,0,0-2.28-3.72c-6.22-.1-5.49-5.18-6.8-8.84l1.35-1.11c-2.35-1.81-2.13-4.68-.5-5.9s4.39-.49,5.92,1.77a23.22,23.22,0,0,0,1.89,2.21c1.25,2.39,2.43,4.82,3.8,7.13.62,1.05,1.62,2.54,2.44,0,4.29,6.72,11.27,10.57,16.87,15.88,2,1.92,3.57,1.79,5.57.2,8.78-7,18.9-11.17,29.57-14.3,3.23-1,6.26-2.53,3.7-7.71,2.83,1.55,5,1.79,6.16-1.11,1-2.55-1.51-1.37-2.33-2.11.53-1.18,1.59-.48,2.37-.62s1.76-.06,1.64-1.27-.78-1.43-2-1.43c-2.52,0-4.94,1.57-7.5.42-2.72-3.91,1.27-5.56,2.83-8.28.22,2-.19,4.05,1.81,5.19,4-4.91,3.7-7.09-1.19-8.75-2.32-.79-4.33.53-6.49,1.35-4.53,1.71-4.27,7.42-9,9.14,2.53,1.29,4.52.41,6.41.69,1.17.17,2.86-2.15,3.44.74-2,2-5.56,1.38-6.85,2.59-3.63,3.39-6.72.13-10,.44q-1.06-2.7-2.11-5.4c.6-.17,1.2-.35,1.81-.51,2.68-.72,0-4.43,2.85-5.07,3.12.72,5.24.47,3.42-3.56,4.22-.38,7.62-2.6,11-4.91,1.69,1.11,3.4,3.23,5-.09a3.53,3.53,0,0,1,.84-.25c1.12,0,2-.26,2.12-1.55l1.94.45c1.15,2,1.69,1,2.15-.44.76-.66,1.79-1.09,1.83-2.31s.05-2.53-1.31-3.23l-.72-1.72L182,68c-.08-2.17,1-2.48,2.81-1.83,3.8,4.08,11,6.11,8.5,14,4,3.7,6.27,10,13.43,9-2.55,1-4.62,3.37-6.15,5-2,2.12-.16,6.12,2.83,8.27l2.35,1.69c-.45.83-2.36,1.5-.94,2.54,1.63,1.18,6.17-2.52,6-4.69,1.34-.17,1.17-1,.88-1.94l1.22-1.22c1.91,2.29,4.2,1,6.39.7,2.53.62,5.29.23,8.07,2.83-.52-2.06-.75-3-1-3.92l1.17-1.67c2.22,0,2-1.68,2.1-3.13.14-2.75.26-5.5.38-8.24L229.84,82c2.69-.55,1.53-2.68,1.73-4.25-.79-1.29-.12-2.18.81-3,2.8.67,5.12,0,5.85-3,1.66-6.85,2.68-13.83-.19-20.57-1.08-2.54-.81-3.94,1.56-5.07,1.46,4.6,5.9,7.82,6.06,13,.13,4.45.26,8.89.34,13.34,0,1-.39,2,.7,2.67.06,2.6.32,5.38-2.26,7-2.28,1.43,0,2.43.08,3.62-.73,1.6-1.45,3.21-2.2,4.8-.65,1.37-.61,2.55.88,3.33,3.19,1.68,9.18-2,9.55-5.77l2-1.14c2.51.56,3.38-.57,3-3v0a20.85,20.85,0,0,0,8-15.84c1.95-3,.86-6.5,1.8-9.69s1.76-6.32,4.19-8.53c2.22.42,1.58,3.12,3.51,3.51,1.11-1.44,0-4.32,3.31-4.43,4.7-.14,4.7-.35,6.88,3.41,2-4.53,3.28-8.78,3.11-13.42,1.42-.07,1.91-.78,1.94-2.22a52.62,52.62,0,0,0-.57-8.86c-.28-2-2.31-5.71,2.54-5.85,4.64,7.05,2.09,14.63,1.46,22-.22,2.71-1.36,5.34-2.09,8-3.2-.09-3.68,1.34-2.16,3.89-1.82,3.09-2.19,6.63-3,10,0,.93,0,1.86,0,2.8-1.84,1.09-1.13,2.14,0,3.19-1.41,1.75-3,3.42-3,5.87-2.53,5.78-4.48,11.81-7.65,17.3a1.62,1.62,0,0,0-.05,2.26c3.31,2.74,8.1,1.81,10.88-2a41.69,41.69,0,0,0,4.94-14.76l1.44-1.34c.63-.63,2.38,0,1.84-2-.37-1.35-1.05-1.38-2-1.25-1.51.2-3,.44-4.52.66-1.57-2.79,2.52-3.26,2.26-5.51a6.21,6.21,0,0,1,.82-.3c2.51.34,4.26,4.24,7,2.28s-.42-4.88,0-7.38a.61.61,0,0,1,.69-.13c4.79,1,5.71-3.66,8.42-5.72.21,1.75,1.1,3.85,2.6,3.76,2.34-.14,1.71-3.32,3.14-4.69l-5.79,1V56.94l.87-1.06.95.24c2,.5,3.84,3.72,5.92.9,1.83-2.49-2.85-2-2.56-4.13,0-.24-.65-.57-1-.86l0-1c1.32,0,2.41-.34,2.88-1.73,1.06-3.74,6-3.11,7.36-7,1.71-5,4.37-9.59,6.46-14.43.47-1.09.33-2.14,2.09-1.89,3.5.49,5.6-2.53,4.09-5.79-.26-.57-1-1.5-.57-1.64,5.59-1.81.91-7.9,4.45-10.59.61-.47.55-1.83.8-2.78l2.72.69c-.89,5.28,2.08,10.85-.8,15.89-3,5.29-2.82,11.38-4.68,17-1,3,0,6.86-.49,10.31-1.15,3.4.32,7.36-2.75,10.49-.77.79.13,4.11,3.22,2.55l3-.2c1.7.67,3.41,2.1,5.07-.06.91-.19,1.77-.26,2.14.87,1.29,2.54-4.37.63-2.3,3.57a2.62,2.62,0,0,0,3.75,1c2.68-1.27.3-2.74.46-4.08,5.84-3,11.8-4.78,18.18-1.66.79.39,2.18.68,2.24.26.81-5.59,8.59-4.12,9.6-9.73.36-2,2.12-3.78,4.06-5.32,5.17-4.13,5-4.34,8.59,1.29,2.16,3.38,2.41-.42,3.53-.94,2.24,0,3.55-1.44,3.38-3.35-.49-5.52,2.47-5.53,7-4-1.54-2.54,1.21-4.64-.62-6.76l.27-1.91.45.08.34-.3c1.16.07,2.32-1.07,3.51.25.4.44,1.25-.23,1.4-.92a2.07,2.07,0,0,0-.56-2.25c-.64-.53-.86-1-1.66.17-1.29,1.85-2.17-.32-2.92-.95-1.28-1.07.38-1.52.82-2.21l6.34-10c4.08-3.71,5.67-8.89,8-13.61.64-.09,1.33-1.86,1.72-.51.8,2.71,1.63,5.3.47,8.5a112.37,112.37,0,0,1-9.64,20.45,4.2,4.2,0,0,1-.69.71c5.74,4-2.92,7.27-.62,11.12a2.47,2.47,0,0,0,.95.11c2.06-.59,2.92-4.05,5.11-3.2s-.32,3.89,1.06,5.71c1.18,1.55-1.13,5.69,3.5,4.7,2.39-.06,4.91.69,7-1.07l1,0c.14,1.62-1.53,3.08,1.26,4.79s1.7,4.41-1.87,5.17c-2.2.46-4.7-.05-6.42,2-.76.22-1.92-.35-2.09,1.06l-.07.07-8.83,1.21a2.73,2.73,0,0,0-4.51,2.52c.47,4-2.13,4.84-4.55,6.43s-5.25,3.35-4.86,7.08c-.77.92-1.55,1.83-2.33,2.75-1.51.09-2.89,1.67-4.58.21-1.19-1-2.7-1-3,.77-.32,1.94-.9,5.76.61,5.63,7.33-.66,2.86,2.95,2.22,5.21l-3.58.59c-6.71-.69-8.5,4.93-11.59,9-1.3,1.69-1.09,3.27.49,4.24s3.16.28,3.7-1.77c4.25.21,8-1.9,12-2.77,2.31,1.25,4,.59,5.07-1.71,5.83-1.62,8.11-7.77,13.23-10.48,1.16-.61,4.11-3.43,3.5-4.64-2-3.94,2.48-3.24,3.05-5.12,3,1.82,3.86-2,3.83-2.54-.15-3.65,3-4.48,4.78-6.45a2.49,2.49,0,0,0,1.58-2.61l3.14-4.38c3.46-4.45,6.93-8.88,10.37-13.34.59-.76,1.53-2.17,2.13-1,1.79,3.39,6.53,2.23,8.09,5.67-.89.88-2.19.55-2.51,3-.58,4.39-4.43,7.8-6.66,11.77-2.6,4.6-5.51,9.13-8.4,13.59-1.42,2.2-5,2.7-6.07,6.24,2,.23,3.31,1.34,5.38-1.23s6.5-1,9.86-1.94c6.48-1.85,12.31-4.16,16.91-9.45,2.28-2.63,5.75-4.23,8.67-6.3l3.68-.9c.33.72.21,1.72,1.21,2,3.28.93,4.92,2.21,1,4.67-1.87,1.18-1.13,3.3-1.74,4.93-1.68,4.51-4.45,8.49-6.31,12.93-1.42,3.38-4.69,8.14-9.64,9.1a3.59,3.59,0,0,0-3,3.4c-.42,3.34,1.29,7.44-4,8.47,3.36,3.49-1.07,5.81-2.18,7.15-3.47,4.17-6,8.92-9.2,13.18h-4.8l0,0c-.08-1.59.06-3.47-2.08-3.69-1.69-.18-2,1.28-2,2.65l-1.94,4.19h5l-.07-.12c1,3.46-2.07,8-6.79,10-1.38,1.34-2.54,3.39-.72,4.44a4.73,4.73,0,0,0,6.56-1.41l5.53-1.74c-.29,2-1.45,4.34,1.95,4.85,0,1,.91.79,1.47,1-1.15,3.12,3.21,3.37,3.09,5.95l-13.6,8.28c-.8-.31-1.29-.14-1.29.82l0,0c-2.2-.94-3.65.32-5.06,1.71l-.65-.33.27.71c2.66,2.68,4.26,1.55,5.33-1.48a29.07,29.07,0,0,0,9.62-2c1.4.64,2.25.26,2.44-1.32,1.25-.27,2.51-.49,3.75-.8.94-.24,2-.72,2.64.27.74,1.14.05,2.13-.82,3-1-.22-1.57.31-1.87,1.21l-2.81.91c-6.44-1.48-8.59,6.66-14.63,6.63-.81,0-1.64,4-2.46,6.12-1.65-.32-3.65,2.05-5-.66-.92-4.05-4.68-4.61-8.89-1.31-1.84-.32-3.34-.11-3.52,2.21-4.19.31-3.87,3.22-3.54,6.14l-7.26,8.69c-1.45-3.4-3.9,1.23-5.54-.68.18-.21.55-.55.51-.61-.41-.6-.66-.12-.92.19-1.25.35-2.66,1.55-.9,2.07,5,1.47,2.74,3.9,1.2,6.2-.87,1.31-1.72,2.43-1,4,.07.68-1.08,1.32-.06,2l.1-.13c-1.26-.76-1.09.59-1.55,1-3.31,3.21-4.48,8.3-9.1,10.36l-7.47-.33a.75.75,0,0,1-.16-.74c-.09-2.08,2.18-3,2.39-4.94l.1-.19c1.87-.36,1.57-1.88,1.7-3.17q7.51-14.88,15.07-29.73c.26-.5,1.08-.72,1.64-1.07,2.95-2.36-.06-3.49-1.23-4.4-1.51-1.17-3.54-1.68-4.82-3.42a12.62,12.62,0,0,1,6.18-1.51c1,0,2.62.59,2.6-1.27a2.19,2.19,0,0,0-1.61-2.27,21,21,0,0,0-3-.19,1.07,1.07,0,0,1-.77-.5c-.49-1-1.45-2-1.38-3,.2-2.83,0-3.54-2.64-3.55-1.68,0-3.59-.68-5.08.8l-.46.16-.48-.09a4.83,4.83,0,0,0-1.93-2.72c-3.15-2.39-5.46,1.32-8.28.91l-1.93-2c-2-4.23-8.8-7.7-13.89-7.12-1.94.63-2.24-3.19-4.51-1.67-2.14-.66-4.18-.21-6.31.22-1.3.26-3.33,1-4-.69-2.08-5.23-5.37-1.91-8.28-1.42-3.9-2.64-8.77-2-12.91-3.78-3.86-.71-6.34,1-7.83,4.45-.06,1.28-.11,2.55-.17,3.82l-4.85,0q-2-2.59-4-5.17c0-1.51-.42-2.29-2-1.26-2.07.7-3.88-1.85-6-.48-1.34.31-2.94-.59-4.05.85l-3.05-.08c-2.33-.15-4.55-2.89-7-.31a6.65,6.65,0,0,0-4.32,2.39c-3.71.43-7.13,2.11-11-1.21-1.54-1.31-6.52-3.72-9.67.12-4.71,2.06-8.24-3.47-12.86-2-1.1-4-4.09-4.83-7.14-3.12-2.67,1.5-7.33,3.13-3.34,7.87.1,2.58-2,2-3.43,2.48-4,1.32-10.3.35-8.18,8,.07.24-.15.57-.27.84-2.95,6.28,1.83,14.6,8.69,15.38,8.74,1,14.88-4.24,21.42-8.6.85-.57,2.21-2.36,2.64-1.22.64,1.67,3.47,2.61,2.39,4.38-2.31,3.76.25,5.82,2.13,8.25-.51,3.18,1.07,6.09,1.18,9.18a8.35,8.35,0,0,0,1.8,6.2c1.78-1.24,0-4.45,3-4.4,1.83,1.59,1.93.21,2-1.18l1.95.21,1,.95-1.14,6c-1.73,1.3-5.32.85-4.82,4.22.41,2.75-.7,4.68-2,6.72-2.11-1-2.75.48-3.71,2-2.64,4.07-5,8.43-10.33,9.84A134.42,134.42,0,0,1,223.46,226c-1.21.13-5,.59-4.34-2.26.56-2.37-.3-1.78-1.49-1.83-4.46-.21-8.71,1.88-13.52-.22-2.35-1-3.55-3.74-6.31-3.67-.15-1.84-1.65-2.39-3-3.1l-.13-1.89c.06-.32.1-.65.13-1,.89-.32,2.54.37,2.61-.64a14.37,14.37,0,0,0-.93-5.12c-.21-.7-1.28-.6-1.58,0-1.37,2.72-3.88,1.13-6.41,2.48,1.26-2.42,3.4-4.43-.08-5.14-2-.4-1.53-1.9-1.95-2.94-1.65-4.1-3.16-8.38-3.16-12.74,0-4.07-1.69-8.74,2.32-12.13,3.47-2.41,7.63-2.32,11.78-2.82,0,2.74.84,4.95,4.51,2.82.76,2.44,3.08,4,3.18,6.75,4.13-2.16,3.63-4.2.51-6.22-1.23-.79-2.53-1.48-3.8-2.21-.66-1.31-1.34-2.62-2-3.93-.75-1.48.49-3.29,1.16-2.77,4,3.1,4.27-.62,5.88-2.62.65-.81,2.06-.87,1.27-2.41-.64-1.24-1.49-1.71-2.8-.9-1.57,1-2.62,1.15-4-.85a3,3,0,0,0-4.77.18c-1.76,2.55,1.68.88,1.83,1.91s1.38,2.26.07,3.08c-2.22,1.38-5.42,2.09-7,.49-1.91-1.91,2.24-2.07,2.49-3.84-3.22-1.32-3.22-1.32-.63-4-5.48-2.53-11-.85-13.85,4.34-.78,1.4-.91,3.47-3.17,3.15-3.77-.52-5.25,2-5.69,4.81-.76,4.8-4.53,5.48-8,6.73-2,.74-3.63.54-2-2.1,1-1.53.81-2.41-.76-3.1-.55-.24-8.81,4.82-8.65,5.38.61,2.12-1.67,2.18-2.11,3.28-.85,2.1-4.48,1.35-4.13,4.36-2.57,3.52-.91,7.44-.75,11.09.43,10.26,1.33,20.39,5.28,30.21,1.46,3.65,4.2,7.07,4.13,11.35-2-.18-2.65-3.2-5-2.41-5.5,1.87-8.35-.51-9.6-5.74a2.4,2.4,0,0,0-1.88-2l-.32-1.89c1-.77,1.11-1.49-.12-2.13-2.27-9.31-4.84-18.57-4.91-28.27v-4.83c-3,3.11-4.94,6.34-8.11,8.29-.23-.47.21-1.39-.86-1.26a.48.48,0,0,0-.33.32c-.17,1.07.77.67,1.23.89-.28,2.45-2.19,3.8-3.5,5.61-2.66,3.69-7.66,5.9-7.5,11.43h0c-.77-.17-1.11.16-1,.93v0c-4.48,1.6-9.29,2.9-8.69,9.26l-.26-.18.24.2c-2.73-.42-5.47-.53-6.76,2.52-2.26,5.36-6.47,9.08-10.56,12.9-1.82,1.7-3.62,3.28-4.06,5.87-5.56,6-9.81,12.94-14.25,19.79-2.17,3.34-5.32,6.51-7.8,9.87-5.94,8-14.71,14.15-17.13,24.56-1,4.15-4,7.63-3.75,12.13,0,.8,0,1.88-.92,2.11-3.42.79-2.48,2.6-1.29,4.67,1.44,2.51,3.12,4.15,6.29,2.82A25.85,25.85,0,0,1,47.51,322c2-.41,3.27.29,3,2.62-.61.15-1,.49-.82,1.18-.78,0-1.63,0-1.75,1,0,.32.35.94.61,1,1,.18,1.85-.12,1.64-1.45l1-.37c1.69,1,3.33,1.29,4.63-.6a4,4,0,0,1,3.8-1.57c2.38,0,2-1.66,2-3.16,1.31-.67,1.72.3,2.17,1.19.78.59,1.06.25,1.09-.58a1.32,1.32,0,0,1,1.9-.29l.68.78.37-.72,2-.17C74,322.77,77.61,321.72,80.85,318.73ZM327.7,96.4c1.32-1.27,3.52-1.83,3.44-4.23,3.5-2,7.87-3,8.67-8,2.29-.68,4.71-1.21,5.27-4.11,2.34-.53,3.05-2.22,2.34-4.19-.57-1.57-1.77-.62-2.66.06-2.67.48-.86-6.36-5.25-3.18-2.27,1.64-4.41,3.57-7.59,3.44-.86,0-1.53,1.16-1.58,2.26-.11,2.52-2.07,3.85-3.55,5.48-1,2.33-2.45,4.55-1.86,7.28-.38,1.51-4.3,1-2.24,3.88-.41.71-.86,1.39-1.2,2.13s-2.24,1.47-.49,2.71a1.9,1.9,0,0,0,2.93-.24C325.09,98.55,327.51,98.76,327.7,96.4Zm19,1.49c-1.48,1-2.94,2-3.55,3.84,7,2.94,9.35,2,11.5-4.74.86-.06,1.71-.12,2.05-1.11,4.08-2.12,5.95-6,8-9.79a3.22,3.22,0,0,0-1-4.64c-1.1-.6,1-2.47-1-2.63a1.87,1.87,0,0,0-2,1.71l-3.15-1.18c2.08-3.93-4.13-1.88-3.44-4.8,3.17-1.77,4.77,1.62,7.22,2.5,0-5.51-1.64-6.85-6.18-5-1.19.49-2.18.22-3.26.3s-3.69.25-2.84,2.25c.63,1.48-.66,5,3.27,4.3,1.72-.3,3.57.15,5.37.26-3.11,1.39-.6,4.16-1.11,6.2-.88,3.5-5.71,3.72-5.09,7.61C349,93.71,347.07,95,346.73,97.89ZM232.56,209.34c-6.22-1.15-12.43-2.55-18.51.47-.87.43-2.77-.62-2.48,1.36.14.91.22,2.44,1.71,2.7s3.15,0,3.37-1.92c.25-2.18,1-1.67,2.54-1.1C223.82,212.54,228.17,210.55,232.56,209.34Zm-32.41-13.07c-2.34,6.1,2.86,7.64,6.22,10.36C208.36,201,208.36,201,200.15,196.27ZM274.31,83.33c-2.65,3-3.78,5.86-5,8.66-.36.81-.46,1.67.58,2a1.45,1.45,0,0,0,2-.92C273,90.27,274.6,87.58,274.31,83.33ZM397.49,184.64c.25,2.54-2.63,2.21-4.11,4.23,2.87-.31,4.92,2.92,6.83.24C401.66,187.08,398.11,186.69,397.49,184.64Zm10.72-7.54c3.76,1.59,6-.1,8.48-.27.79-.05,1.82-.11,1.49-1.37-.25-1-.94-1.17-1.91-.84C414,175.38,411.63,176.05,408.21,177.1Zm-267.93,44a1.26,1.26,0,0,0-1.44,1.52c.08,1.19.95,1.68,1.95,1.92s1.72-.2,1.71-1.2C142.48,222,141.55,221.35,140.28,221.13ZM26.54,305.5c-.82,1.2-1.86,2.22-.89,3.74a1,1,0,0,0,1.65.21C28.19,308.09,28,306.73,26.54,305.5Zm179.94-151c-1.93-.62-3.37-1.19-4.63.59C203.43,156.35,204.69,156.22,206.48,154.48Zm-6.81.5c1.28-.18,1.38-1.25,1.52-2.19,0-.19-.68-.72-1-.68-1,.16-1.91.64-1.9,1.84C198.31,154.76,198.93,155,199.67,155Zm222.88,12.28c-1.15.11-2.75-1-3.4,1C420.76,169.24,421.71,168.39,422.55,167.26ZM137.24,219.45c.21-.25.53-.47.56-.73.07-.69.33-2-.6-1.74S136.52,218.59,137.24,219.45Zm296.15-89.28c-.15-.25-.25-.61-.45-.68s-.5.14-.75.23l.61.94ZM111.77,155.68l.41-.19c-.12-.09-.23-.24-.35-.25s-.27.12-.4.18Zm313.89,10.45c-.13.08-.3.14-.37.25s.13.23.21.35l.57-.42Z"/><path class="black" d="M158.26,253.4c-2.49-1.54,1.15-3.71-.55-5.34.21-.91-.36-2.23.7-2.67a2.31,2.31,0,0,1,2.87,1.29c2.37,4.45,6.05,5.39,10.61,4.18,3,3.13,8.51,2.84,10.16,7.7-.28,2.42,1.41,2.22,3,2.21l5.61,2c1.47,2,3.1,3.17,5.34,1l1.84-.62c2.15.9,1.39,4.39,4.2,4.7l.42-.2.41.25c.06.78.09,1.7,1.16,1.66.69,0,.94-.69.85-1.39,1.11-1,2.48-.84,3.82-.79,1.21,2.19,2.27,2.13,3.17-.21l4-.09c2,1.42,3.72,1.6,5.07-.82l2.84-.06c1,2.33,2.08,2.41,3.15,0l1.83.05c3.22,4.37,3.24,4.37,5,1.53,1.2-1.34,2.25-.29,3.5,0,2.72.72,6.22,1.39,8.06-.56,7-7.45,16.85-9.31,25.47-13.52.84-.41,1.55-1,2.28-1.31,3.91-1.62,3.63-7.15,8-8.26,4.71-1.19,7-4.57,7.79-9.18a1.84,1.84,0,0,1,2.06,1.11,1,1,0,0,0,0,.86,2,2,0,0,0-.84,2.92c.11.25.76.26,1.17.39l.55-2.26c2.47-1,7.7-9.42,7.25-11.67-.07-.31-.13-.83-.29-.87-5.25-1.44-1-4.27-1-6.47a7.36,7.36,0,0,0,1-5.1l.36-.19.41,0c.77.38.9,1.88,2,1.42.33-.14.19-1.42.26-2.18a13.91,13.91,0,0,0-.27-4.89,35.75,35.75,0,0,1,1.31-16.89c1.9.37,3.46.14,3.06-2.35-.26-1.59.7-2.87.81-4.29.17-2.28,1.46-3.53,3.41-3.39,2.17.16,1.82,2.31,1.84,3.85,0,1,.45,1.47,1.62,1.92.67-1.72.88-3.75,2.38-5l1.81.65c0,1.43-.68,3.38.95,4,1.93.76,1.68-2.1,3.09-2.57,3.16,4.56,1.49,9.8,1.18,14.47-.6,9.32-2.39,18.66-7.1,27-1.13,2-2.35,7.32-6.05,1.41-1.23-2-5.48,0-5.92,2.68-.17,1.11-.24,2.69.39,3.39,5.09,5.69-.54,8.86-2.95,12.65-3.1,4.89-8.11,7.46-13,10.21-7.71,4.31-13.87,10.93-21.86,14.89a162.73,162.73,0,0,1-22.21,8.73c-1.16.37-1.83-.52-2.68-1-3.26-1.73-6.32-2.34-8.95,1.19-1.28,1.73-3,.89-4.55.28a9,9,0,0,0-7.62.33c-8,3.73-15.32.65-22.39-2.6-4-1.85-7.88-4.19-12.29-4.67s-7.92-1.67-10.8-5c-4.09-4.75-10.61-7.21-12.94-13.63C161,252.69,159.63,253.1,158.26,253.4Z"/><path class="black" d="M164.75,320.78c-1.84,1.53-4,.68-6,.83-2.81-2.74-5.88-1.81-9-.62-4.8,1.48-9.22,1.66-14-1.13-1.25-.73-5,1.9-7.82.39l0-5.53c15.07-.8,29.45-6.64,44.7-6.17.86,1.45,1.58,1.3,2.19-.18l5.88-.37c.58.79,1.2,1.09,1.94.19l3-.29c.68,1,1.35.73,2,0l3,0c.8.9,1.51.79,2.16-.17a33.3,33.3,0,0,1,8.85-.8,53.6,53.6,0,0,0,5.67,1.46c2.14.34,4,1,4.24,3.37.26,2.59-1.51,3.76-3.78,4.44-1.4.42-3.87,1.19-3.51,2.21,1.34,3.92-1.61,2.35-3,2.64-1.1.24-2.39-.07-2.76,1.48l-11.75-.07c-.64-1.2-.76-2.94-2.62-2.9-.18,0-.34,1.46-.51,2.25h-2c-2.49-3.89-5.1,1.36-7.63-.09l-6.35-1.85C166.23,318.32,165.2,318.56,164.75,320.78ZM133.5,320c.91.56,1.81.75,2-.59s-1-1.32-1.81-1.56C131.67,318.37,132.26,319.15,133.5,320Z"/><path class="black" d="M360.68,236.86c.14-2.75,1.86-4.5,3.89-6.05,1.29.38,3,2,3-1.14,1.73,0,2.47-1.49,3.62-2.35,2.54,2.79,4.85.52,7.22-.34l-.39,2.08c-1.46.38-2.44,1.15-2.32,2.82-4.31,4.41-6.64,10.43-11.65,14.26-.75-.15-1.58-.34-1.89.62-.25.76.39,1,1,1.23l-1.55,3.9c-3.16.7-6.24,1.5-5.57,5.85-.12,2-4.08,2.67-1.77,5.62.33.42-1.36,1.52-2.64,1.08-6.72,1.84-12.1,5.32-14.86,12-6.27.13-9.94,5.24-14.92,7.84-6.3,3.28-13.22,5.21-19.21,9.2-1.76,1.17-5.2,1.89-3.82-2.72.05-.78-.31-1.06-1.05-.89l-1.8.14-1.14-.16-.94-1.35-.25-2.81,7.49-4.69c1.6,0,3.27-2.28,4.82.2,1.39,2.24.75,3.68-1.49,4.79a1.45,1.45,0,0,0-.45,2.16,1.32,1.32,0,0,0,2.14.27c2.67-2.86,7-3.87,8.78-7.67,1.55-.59,3.14,2.33,4.38.25.74-1.24-1.6-2.12-1.77-3.09-.24-1.33-4.36-4.84,1.56-4.22,1.05.11,2.15-1.38,3.08-2.14,5.78-4.77,12.22-8.55,18.33-12.82,2.94-2,7.92-3.6,6.59-9.22,1.51-.6,2.1,1.41,3.42,1.22C356.48,250.35,360.69,244.59,360.68,236.86Z"/><path class="grey" d="M66.79,178.19c-1.63,2.63,1.72,5.32-.08,7.95-6.5-1.91-12.12-5.42-17.61-9.27a11.11,11.11,0,0,1-3.28-4.15l-.11.18c.95.32.86-.54,1.14-1-.06-2.84-.66-7.1-3.81-5.28-2,1.17-7.72,1.13-6.57,6.62.31,1.47-3.73,3.41.43,4.77,1.91.62,3.56,2.71,5.86,1-1.77,5.38-5.49,9.74-7.92,14.83-2.09,4.38-3.35,9.46-7.09,13-2.26-1.57-.39-3.48.13-4.67,1.25-2.85.06-4.14-2.15-5.29.45-5.56,4.26-9.91,5.46-15.31.74-3.41,3.74-6.3,1.77-10.25a1.89,1.89,0,0,1,.64-1.76c4.6-2.25,4.58-7.79,7.89-10.92,2.18,2.33,3.92,4.79,5.4-.82.85-3.24,2.61-7.56,7.87-4.88-1.23,3.1-2.37,6.24-5,8.55-2.17,1.92-1.4,4.73.8,6.61a32.26,32.26,0,0,0,15.21,7.6C67.08,175.92,66.24,177.42,66.79,178.19Z"/><path class="black" d="M434.08,216.13a.85.85,0,0,1,.76.58c-.54,2.37,2.13,4.83-.2,7.15l0,0-4.11.18c-4.64-1.35-9.37-2.44-13.87-4.16-2.28-.87-4.45-.43-6.65-.77-2-.3-4-.55-5.1,1.64a20.27,20.27,0,0,1-4.21,5.14l.05,0c-.07-.78,0-1.82-1.08-1.77-1.65.09-1.89,1.42-2,2.77l0,0c-1.8.18-2.77-.88-3.46-2.34l0-.13c1.36.72,2.25.43,2.51-1.19.53-2.14,1.31-4.11,3.71-5.12a60.68,60.68,0,0,1-8.34-1c-2.2-.27-2.75-1.31-2.39-3.25l-.1.13,2.07-2.1c3.57.29,6.17-3.6,10-2.29.68-3.26,5.63,0,5.9-3.87,3.55.13,5-2.75,7-4.87l1.4.21-.43,2.86c-2.3,3.68,1,3.75,2.92,4s4.67.54,5.25,2.11C425.64,215.17,430.4,214.58,434.08,216.13Z"/><path class="grey" d="M110,97.12c-2.82,2.37-5.69,4.67-8.43,7.13-.8.72-3.3.82-1.16,3.3.62.73-2.75,3.43-4.83,2.34-3.92-2.06-6.67-.33-9.36,2s-6,3.79-7,7.78c5.46.49,6.11-8.38,13.21-4.93a320.45,320.45,0,0,0-26.6,26.13c.14-1.55-.16-2.79-2-2.95.6-1.91,3-1.14,3.91-2.69s2.47-3.42-1.16-3.35c-.85,0-1.45.31-1.82-.85-1.17-3.64,2.62-11.81,6.34-13.48.75-.34,1.27-.67,2.07.22,2.5,2.76,4.11-1.37,4.09-1.51-1.35-8,5-7.36,9.4-7.91,2.1-.27,3.29-.84,4.11-2.36,2.73-5.11,7.45-6.56,12.67-7,2.87-.27,3.47-4,6.43-4Z"/><path class="grey" d="M206.73,89.21c-7.16,1-9.41-5.31-13.43-9,2.49-7.9-4.7-9.93-8.5-14,.21-.25.52-.74.61-.71,6.43,2.74,12.37-.28,18.46-1.51,1.43-.29,1.78.63,1.31,1.74-1.14,2.73-.6,4.18,2.65,3.79,2.7-.33,2.62,2,3.27,3.5a1.69,1.69,0,0,0,1.84-1.37c.31-1.93,1.66-1.91,2.95-1.58a2.33,2.33,0,0,1,1.65,2.76c-.33,2.08-1.84.36-2.77.67-2.13.71-4.45.62-5.89,3s-3.92,1.24-6,1.34c-2.46.11-4.94,0-7.77,0,1.12,3.42,2.42,4.44,5.66,2.63,3.82-2.13,8.1-1.58,13.57-.87l-8.27,4.86c-.15,2,3.92.47,2.94,3.44C208.55,89.28,207.63,89,206.73,89.21Z"/><path class="grey" d="M198.67,322.54c.37-1.55,1.66-1.24,2.76-1.48,1.37-.29,4.32,1.28,3-2.64-.36-1,2.11-1.79,3.51-2.21,2.27-.68,4-1.85,3.78-4.44-.23-2.37-2.1-3-4.24-3.37a53.6,53.6,0,0,1-5.67-1.46c3.57-.68,7.13-1.51,10.73-2,1.32-.17,3-1.58,4.08.07s-1.34,2.76-1.67,4.75c4.5,0,8,1.88,11.62,4.43,2.38,1.67,6.33.75,8.82-1.77a11.26,11.26,0,0,1,2.43-1.5c.43,1.69-.88,3.53.5,5.27,1.81-2,4.26-1,6.43-1.34-.91,2.06-3.62,1.1-4.74,2.82L236,319c-4.68-1.92-8.72,1.51-13.27,1.58C214.71,320.7,206.69,321.83,198.67,322.54Z"/><path class="grey" d="M336.75,276.48c2.76-6.72,8.14-10.2,14.86-12,.43,2.14-3.23,2.29-2.3,4.68-2.14,3.23-6.32,4.46-7.43,9.07-.51,2.12-.69,3.2.69,4.37s3.36,1.39,4.43,3c-5,.37-8.58,3.77-13.47,5.45,3.38,3.08,7.42,4.63,9.49,8.4.78,1.42.67,2.34-.76,3s-2.56,1.32-3.51-.74a10.88,10.88,0,0,0-8.58-6.53c-2.94-.26-6.22,1.64-9.09,3.1a12,12,0,0,1-4.42,1.63c-1-.25-1.22-.91-.91-1.83A11.1,11.1,0,0,0,321,293c1.1-2.31,1.35-3.95,4.9-2.4,3.4,1.49,12.72-5.18,13.82-9-2.45-.48-3.21,2.46-5.49,2.61-1.39.09-2.67.62-3.24-.86-.5-1.32,1-1.72,1.77-2.5C334.11,279.44,338.51,280.72,336.75,276.48Z"/><path class="black" d="M347,285.58c-1.07-1.63-3.08-1.88-4.43-3s-1.2-2.25-.69-4.37c1.11-4.61,5.29-5.84,7.43-9.07.74,1.62,3,3.19.17,4.92a1,1,0,0,1,.25,0l-.17-.16c.86-2.34,3.18,1.19,4.07-1,2.29.79,3.8-.82,5.1-2.07,2.3-2.21,3.77-1.93,5,.87-3.7.62-4.58,4.19-6.63,6.49-1.27,1.42.45,2.34,1.48,2.89,2.6,1.39,4.08,3.92,6.18,5.8.12,2.63-.29,4.7-3.76,4.12-1.72-.29-3.46-.3-3.35,2.27l-3.81-1.67c-.09-1.41-1-1.66-2.19-1.61l-.85-1.46c-.53-1.4-1.67-1.68-3-1.62-.41-.56-1.22-1-.61-1.9,1.17-.54,3.22.67,3.48-1.6.11-.93-.78-1.32-1.66-1.42-2.79-.31-.65,2.36-1.83,3A.4.4,0,0,1,347,285.58Z"/><path class="grey" d="M427.76,68.44a2.49,2.49,0,0,1-1.58,2.61c0-.31,0-.85-.15-.9-4.48-1.58-7.26-3.84-3.64-8.77l-.83-.44.07-.07c1.59,1.44,1.8.11,2.09-1.06,1.72-2,4.22-1.51,6.42-2,3.57-.76,4.73-3.4,1.87-5.17s-1.12-3.17-1.26-4.79c4.35-.89,9.56.69,12.43-4.44.53-.94,1.36-.49,2.05.11,6.5,5.71,7.3,5.81,13.4,1.68a22,22,0,0,1,1.24,4.07c.21,1.93,1.13,4.35-2.87,3.65-1.64-.29-3.66,1.53-5.51,2.4-1.56-3.44-6.3-2.28-8.09-5.67-.6-1.13-1.54.28-2.13,1-3.44,4.46-6.91,8.89-10.37,13.34-2.83-2.42-4.46,1.25-6.8,1.33C424.37,67.55,425.75,68.38,427.76,68.44Z"/><path class="black" d="M315.75,298.06c-.31.92-.1,1.58.91,1.83,2.08,4.27,4.22,8.47,7.56,12a5.58,5.58,0,0,1,1.66,5c-.5,2.13-2.6,1.58-4.14,1.81-3.1.46-5.39.73-7.23-3.32-2-4.36-5.68-8.15-9.29-11.46-2.48-2.26-3.26-5.24-1.72-6.81s5.09-1.72,7.79-.61C312.76,297.1,313.81,298.83,315.75,298.06Z"/><path class="black" d="M399.62,231.92c-.17,1-.33,1.9-.49,2.84-3.74,1.13-3.44,3.37-.9,5.17,2.85,2,6.18,3.35,9.3,5l1.07,3c-2.22,1.19-4.38,3.12-6.76.07-.27-.34-1.77.28-2.7.45a24.62,24.62,0,0,1-8.44-3.6c-1.44-1-2-.49-2.25,1-1.84.69-3.62,1-5-1,1-3.38-2-3.72-3.77-5,0-1.67,1.52-3,1.06-4.78l1.49-.54c5.56-1.73,12.93.18,15.46-7.67l0,0,3-1-.05,0c0,.57-.05,1.14-.07,1.71-1,.49-1.06,1.4-1.07,2.34C398.18,230.67,398.53,231.31,399.62,231.92Z"/><path class="black" d="M236,319l4-1.27,1.62,3.51c.11,1.93,1.66,2.2,3,2.66-.13.48-.49,1-.37,1.42,1.66,5.56,3.37,11.09-.11,16.64-8.86-1.77-8.82-10.65-12.08-17-.55-1.07.69-2.49,1.68-2.66C235.9,321.9,235.67,320.33,236,319Z"/><path class="grey" d="M171.89,250.86c-4.56,1.21-8.24.27-10.61-4.18a2.31,2.31,0,0,0-2.87-1.29c-1.06.44-.49,1.76-.7,2.67l-4.38-1.7c1.64-.45,2.54-1.76,2-3.36a4.12,4.12,0,0,0-3.91-2.6c-2.95.1-6.58,2.36-8.65-.09a26.53,26.53,0,0,1-5.48-12.51,2.4,2.4,0,0,1,1.88,2c1.25,5.23,4.1,7.61,9.6,5.74,2.36-.79,3,2.23,5,2.41l3.95,1.21c.13-3.52-4.29-4.62-3.27-8.94.68,1,.9,1.7,1.37,2,5.84,4.07,11.18,8.45,11.73,16.33.07,1,.82,1.29,1.8.79C170.85,248.64,171.26,250,171.89,250.86Z"/><path class="black" d="M92.9,318.07c1.85-1.38,4-.8,6.07-.92,1.7-.11,3.28.06,3.7-2.1,1.43-1.17,2.78-1.51,4.21.1.85,1,1.68.76,2.09-.54a11.43,11.43,0,0,1,8-1.62l2.36.28c.09.82.19,1.65.28,2.48-1,.24-2.27-.44-3.21.91,1.45.84,2.83,2.47,3.58-.6,1.3-.8,1-2,.78-3.18l2.67.18.18.21c-3.33,2.35.41,4.69,0,7-5.2-1.05-9.5,3.41-14.77,2.35-1.79-.35-3.44.16-5.42-1.07-3.46-2.15-7.12.31-10.64,1.26C91.68,321.23,92.82,319.66,92.9,318.07Z"/><path class="black" d="M143.92,80.42c1.83-3.65,5.08-2.48,8-2.36,3.51,1.58,6-1.8,9.23-1.83a.58.58,0,0,1,.56.49c.88.81,1.67,1,2.25-.33-.89-4,3.57-1.16,4.15-3.28,1.91.38,3.43-.84,5-1.44,3.42-1.31,5.26-.43,5.79,3.19l-.24.25c-1.79,1-6.05-3.1-5.67,2.8.07,1.09-1.87,1.26-3,.69-3.61-1.92-6.28,1.81-9.72,1.59-1.3-.09-.21,1.8.39,2.71l0,0c-3.22-1.3-4,3.38-7,2.8l-4,.09c-1.44-2.14-3.09-2.89-5.67-1.55-1.75.91-3.88,1.13-5.39-.88,1.5.57,3,1.08,3.33-1.31C143.32,82.26,144.05,81.83,143.92,80.42Z"/><path class="grey" d="M239.6,46.1c-2.37,1.13-2.64,2.53-1.56,5.07,2.87,6.74,1.85,13.72.19,20.57-.73,3-3,3.65-5.85,3,.79-2.53,0-5.16.65-7.81.82-3.28-2.24-4.11-4.38-3.48-2.89.84-4.76-.12-6.8-1.78,2.68-.24,5.23-1.07,7.72,1,.92.77,3.23-.71,2.64-1.61-3.45-5.24,1.42-2.4,2.55-2.61,2.91-.56,4.36-2.26,1.85-4.16-2.73-2.08-.57-5-2.31-7.08-.8-1,1.1-2.19,1.85-2.5A2.54,2.54,0,0,1,239.6,46.1Z"/><path class="black" d="M275.67,328.68a1.09,1.09,0,0,1-1.76-.27c-.12-2-1.53-1.7-2.83-1.62a2.39,2.39,0,0,1,.08-2.76c1.27-.18,2.46-.48,2.62-2.07-.14-.61-.08-1.55-.45-1.77-5-2.95-6.64-9.32-2.91-13.11,1.87-1.9,4.59-1.21,6.65.79,3.36,3.28,4.12,12.64,1.33,16.91C276.14,325.13,275.81,326.84,275.67,328.68Z"/><path class="grey" d="M363.73,271.66c-1.23-2.8-2.7-3.08-5-.87-1.3,1.25-2.81,2.86-5.1,2.07-.11-1.39.76-2.1,1.86-2.6,2.73-1.25,4-3.08,2.28-5.7,1.81-2,7.57,3.27,5.87-3.79,0-.1.25-.38.29-.37,5.43,2.31,6.42-5.93,11.5-4.84,1.09.24,1.79-1.69,2.48-2.79s1.79-1.74,2.86-.72a1.7,1.7,0,0,1-.66,2.83c-3.86,1.27-4.44,4.52-4.94,7.75-.15,1-.48,1.77-1.16,1.92-3.67.8-4.87,4.08-6.93,6.53C366.27,272,365.27,274,363.73,271.66Z"/><path class="grey" d="M195.92,343.85a38.62,38.62,0,0,1,3.53-16c.83-1.73,10.22-3.11,11.51-1.72a1.73,1.73,0,0,1,.18,2.26c-2.17,3.51-4.26,7-4.69,11.3-.16,1.58-1.26,2.19-2.73.92-4.28-3.7-4.27-3.69-6,1.5C197.59,342.5,197.07,342.76,195.92,343.85Z"/><path class="grey" d="M424.62,185.72c.82-2.14,1.65-6.12,2.46-6.12,6,0,8.19-8.11,14.63-6.63l-.54,1.36c-.82.24-1.79.21-2.21,1.25a3,3,0,0,0,3.1-.22c3,1,6.46-.21,9.46,2.32-2.9.17-4.2,4.33-8.55,1.11-2.37-1.76-7.17,2.31-9.32,5-1.23,1.54-3.22,2.74-4.17,4.91,3.55,1.62,7.21-2.21,10.46.48C434.55,189.41,428.53,192.31,424.62,185.72Z"/><path class="black" d="M63.73,137.9c1.88.16,2.18,1.4,2,2.95-2.66,5-7.21,8.16-11,12.07-5.26-2.68-7,1.64-7.87,4.88-1.48,5.61-3.22,3.15-5.4.82,1.51-1.84,1.37-5,4.38-5.64a1.27,1.27,0,0,0,1.63-.72c.24-.72-.22-1.22-1-1.34l2.57-4.85c1.5.43,2.28-.45,2.92-1.59,0-.16,0-.33,0-.5,0-2-.29-4.8,1.94-4.92,2.61-.14,2.64,2.79,2.84,4.92-1.19.72-1.63,2.14-.41,2.56,1.67.58,2.42-.93,2.48-2.56l2.41-2.88c1.47-.25,1.62-1.24,1.36-2.45Z"/><path class="grey" d="M70.89,215.14c-3.57,3.54-7.41,2.08-11.24.56,3.66.37,4.49-1.26,5.11-4.89,1-5.7,5-10.19,8.73-14.53a5.3,5.3,0,0,0,1.61-3.43,2.78,2.78,0,0,1,2.7,1.91c-1.06,2.27-2,4.55-.16,6.89-.12,4.26-2.11,7.56-5.24,10.28a8,8,0,0,1-2.37-.5,2.64,2.64,0,0,0-3.72,1.13c-.82,2.08,1.72,1.69,2.69,2.5C69.39,215.38,70.25,215.13,70.89,215.14Z"/><path class="grey" d="M178.93,74.86c-.53-3.62-2.37-4.5-5.79-3.19-1.59.6-3.11,1.82-5,1.44,1.54-3.94,5.47-2.61,8.29-3.58,1.79-.61,3.89-.32,5.58-1.51l1.71,11.1c-2,1.16-4.79.91-6.09,3.4-.15.29-.94.61-1.13.47-5.25-3.66-10.52,1.25-15.75-.09-.6-.91-1.69-2.8-.39-2.71,3.44.22,6.11-3.51,9.72-1.59,1.09.57,3,.4,3-.69-.38-5.9,3.88-1.76,5.67-2.81l.63.37Z"/><path class="grey" d="M45.83,258.91c3,1.32,6.17.38,9.23.74,2.87.35-.53-3.3,2.14-2.76,1.66,3.64,1.07,5.09-2,7.26-2.82,2-3.13-.8-4.29-2-3.61,4.76-3.62,4.82,1.77,5.82,1.54.28,2.16.67,1.28,2.2-1.43,2.47-5.88,2.43-7.94-.08l.36-.7-.78.27c-1.9,2.41-4.39,4.43-5.12,7.63-.91.1-1.72-.09-1.57-1.21s1-2.13.73-2.81c-3.13-7,2.35-5.91,6.64-6.54C43.24,264.07,44,261.48,45.83,258.91Z"/><path class="grey" d="M353.71,155c5.09-.58,11.85,2.89,13.89,7.12a11.31,11.31,0,0,0-7.49-.83c-.62,3.06.58,5.06,3.48,6.12,4.14,1.53,1.74,2.89-.14,4.44-1.52-2.07-1.86-5.3-6-3.59-1.36.56-4.56-1.75-6.05-3.5-2-2.39.3-4,2.09-5.56C354.85,158,353.93,156.43,353.71,155Z"/><path class="grey" d="M293.62,285.73l.25,2.81a9.18,9.18,0,0,0-6.52,7.68c-.77,5-4.51,6.21-8.21,7.45-.79.26-4.46.43-2.79-3.17a2.12,2.12,0,0,0-2.6-2.54l0,0c4.93-4.74,11.69-6.43,17.21-10.22A14,14,0,0,1,293.62,285.73Z"/><path class="grey" d="M265.82,68.17a20.85,20.85,0,0,1-8,15.84c-.93-1,1.61-2.18-.1-3.19-.59-1.65,1.27-4.23-1.87-4.92l-.56-.38.42.53c0,1.32.05,2.63.07,4-.66,2.78-1.66,3.47-3.3.56-1.49-2.64-2.22-1.38-3,.53-.91,2.13-1,5-4.14,5.43l-.76-.76c-.08-1.19-2.36-2.19-.08-3.62,2.58-1.63,2.32-4.41,2.26-7a17.91,17.91,0,0,1,9-1.35c5.51,1.11,5.26-2,6-5.19a7.68,7.68,0,0,1,.69-1.45c0,.14-.11.3-.07.42C263.07,70,264.57,68.32,265.82,68.17Zm-3.45,5.37c0-1,1.65-1.58.46-2.63-.21-.17-.81-.26-.9-.14A2,2,0,0,0,262.37,73.54Z"/><path class="grey" d="M174.14,321.74c2.53,1.45,5.14-3.8,7.63.09-4.31,1.24-6.92,7.46-5.21,13.69.76,2.77,1.95,5.16-2.17,5.49-3.34.27-5.76-.9-5.69-4.95.07-4.34,0-8.61,4.21-11.39A2.41,2.41,0,0,0,174.14,321.74Z"/><path class="grey" d="M17,321.85l4.33-.07,5.42,0c.07,2.88,4.58,2.24,4.28,5.42A11.22,11.22,0,0,0,25.31,332c-.46.84-.19,2.76-1.94,2.31a2.14,2.14,0,0,1-1.58-2.67c.26-1.48.49-2.62,2.38-2.29.58.11,1.28.53,1.76-.33.22-1.36-1.48-1.54-1.73-2.7s-.38-3-2.37-2.25c-1.56.55-3.51.66-3.86,3-.37,2.54-1,5-1.53,7.56-.21.94-.35,2.19-1.66,2-.87-.09-2.17,0-2.21-1.62,0-.37-.55-.74-.87-1.09-2.11-2.35-5.95-4.76,1.16-5.59C15.85,328,16.78,324.78,17,321.85Z"/><path class="grey" d="M390.55,172.06a21,21,0,0,1,3,.19,2.19,2.19,0,0,1,1.61,2.27c0,1.86-1.59,1.28-2.6,1.27a12.62,12.62,0,0,0-6.18,1.51c1.28,1.74,3.31,2.25,4.82,3.42,1.17.91,4.18,2,1.23,4.4-4.94-2.46-10.53-3.22-15.32-6.21-1.57-1-2.53-2.06-2.58-3.45-.05-1.65,1.54-1.94,3-1.64,1.13.24,1.52-.24,1.5-1.26a1.46,1.46,0,0,1,2-1.47c1.44.89.62,1.85-.43,2.62-1.8,1.33.18,2.15.69,2.57C382.38,177.23,389.75,173.73,390.55,172.06Z"/><path class="grey" d="M54.67,241.7l.14,3.25,0,0c-2.91,1.22-3.18,5.42-6.69,6-1,.15-1.35-1.64-2.93-.52-1.77,1.25-4.36,1.74-6-.45-1.85-2.5.83-3,2-4.52,2-2.48,2.38-6.3,6.57-7.32C48.07,243,51.14,242.82,54.67,241.7Z"/><path class="grey" d="M292.53,22.09c-4.85.14-2.82,3.87-2.54,5.85a52.62,52.62,0,0,1,.57,8.86c0,1.44-.52,2.15-1.94,2.22-1.88-.82-4.54,1.72-5.93-1.67-1.24-3-1.27-5.62.82-8.27.35-.44,1.31-1.18.57-2.5-1.68-3-1.59-3.3-.14-3.93C286.69,21.46,289.36,17.41,292.53,22.09Z"/><path class="grey" d="M33.5,288c-5.89-2.29-7-1.77-8.62,3.8-1,.06-2.75.22-2.7-.41.38-4.53-2.17-8.94-.43-13.49.41-1.05,1.19-.87,2-1.08,4.07-1.09,10.45,3.82,10.15,7.87C33.77,285.82,33.62,286.91,33.5,288Z"/><path class="grey" d="M140.79,111.8c-2.39,0-4.81.51-6.33,2.15-1.93,2.08-3.65.58-5.39.29a2,2,0,0,1-1.82-2c.09-1.21.85-1.63,2-1.76,3.37-.4,5.78-1.92,6.23-5.61a2.1,2.1,0,0,1,.42-.88,2.14,2.14,0,0,1,3.41-.17c1.28,2.9,7.21.67,6.1,5.42C145,110.71,143.71,113.47,140.79,111.8Z"/><path class="grey" d="M48.82,214l-4.48.3c-.05,2.43,1.51,3.21,3.24,3.94s3.18,1.56,6,2.93c-3.22.27-4.56-1-6.1-1.58-1.08-.39-2.41-1.28-3.15,0-.89,1.49.64,2.44,1.67,3.11,2.88,1.88,7.09,1.51,8.86,5.27-.26,1.08.08,1.45,1.14,1l.24-.08c-3,1.85-4.88-1-7.31-1.61-6-1.62-8.8-6-11.21-11.54,2.53.22,5.53,1.89,5.71-2.93C43.44,211.32,47.35,211.49,48.82,214Z"/><path class="grey" d="M98,165.8c-1.22,5-3.77,9.23-6.72,13.43-3.48,5-5.23,5.4-10.59,1.16,4.11-.69,5.66-3.24,7.38-7.06C89.65,169.85,91.79,164.36,98,165.8ZM86.52,180.23c-.1-.1-.21-.27-.31-.26s-.19.18-.29.28l.46.28Z"/><path class="grey" d="M171.69,104.68c-.58-2.89-2.27-.57-3.44-.74-1.89-.28-3.88.6-6.41-.69,4.76-1.72,4.5-7.43,9-9.14,2.16-.82,4.17-2.14,6.49-1.35,4.89,1.66,5.16,3.84,1.19,8.75-2-1.14-1.59-3.21-1.81-5.19-1.56,2.72-5.55,4.37-2.83,8.28Z"/><path class="grey" d="M416,201.11l-1.4-.21c.56-3.74,0-5.65-4.31-3.22-3.38,1.89-5.61.09-5.35-3.75,0-.58-.83-1.22-1.28-1.83-.33-2.92-.65-5.83,3.54-6.14,1.22,1.42,5.08,1.84,1.41,5-1.54,1.34,1,1.69,1.78,2.5.64.66.49,2.13,1.49.16,1.54-3,4.55-1.93,6.51-1.19,1.78.66-.32,3,.14,4.61l.1.07C415.91,197.23,417.37,200.1,416,201.11Zm.36-5.46c-.2-.27-.38-.67-.5-.65a5.32,5.32,0,0,0-1.12.44,4.22,4.22,0,0,0,.34.74A10.52,10.52,0,0,0,416.38,195.65Z"/><path class="black" d="M25.73,196.86c2.21,1.15,3.4,2.44,2.15,5.29-.52,1.19-2.39,3.1-.13,4.67a51.64,51.64,0,0,1-4.3,11.86c-1.67-1.17-1.7-2.49-.76-4.26.69-1.31.46-2.68-1.59-2.65-2.33-4.28-1.07-8.12,2.41-10.72C25.25,199.75,23.13,197.15,25.73,196.86Z"/><path class="grey" d="M434.08,216.13c-3.68-1.55-8.44-1-10.32-6.06-.58-1.57-3.2-1.85-5.25-2.11s-5.22-.31-2.92-4c3.23,1.77,6.74,0,10.34,1.25C431.68,207.2,432.68,211.54,434.08,216.13Z"/><path class="grey" d="M357.65,293.23c-.11-2.57,1.63-2.56,3.35-2.27,3.47.58,3.88-1.49,3.76-4.12,2.48,1,3.46,3.18,4.14,5.54.21.77.05,1.75.47,2.33,1,1.34,4.24,2.27,2.66,3.89-1.87,1.91-5.15,2.42-7.83,3.53a.53.53,0,0,1-.45-.16,7.61,7.61,0,0,1-1.5-2.29c-.16-.66.35-1.49.56-2.25l2.82,1.87c.17-2.21.81-4.17-2.37-4.87-2.4-.54-2.5.62-2.3,2.66C359,296.08,358.38,294.6,357.65,293.23Z"/><path class="grey" d="M439.17,155.07c-3.4-.51-2.24-2.85-1.95-4.85,3.95-3.92,9.33-5.86,13.16-10.36,1.79,4.39,1.94,7.43-3.07,8.38-.7.13-1.9,1-1.83,1.36C447,155.63,441.57,153.63,439.17,155.07Z"/><path class="grey" d="M81.68,247.48c.44-2.59,2.24-4.17,4.06-5.87,4.09-3.82,8.3-7.54,10.56-12.9,1.29-3.05,4-2.94,6.76-2.52-2.73,2.89-4.75,6.47-8.45,8.43-.72.38-1.74,1.12-.83,2.31l.06,0c-.68-.14-1.3-.11-1.11.82.15.72.7.37,1.12.26l-.08,0C90.33,241.86,88.21,247.46,81.68,247.48Z"/><path class="grey" d="M21.1,211.77c2,0,2.28,1.34,1.59,2.65-.94,1.77-.91,3.09.76,4.26A11.42,11.42,0,0,0,20.74,226a5.78,5.78,0,0,1-3.29,4.42c-1.29.38-2.32-2.79-4.48-2.95,1.52-1.43-.29-3.93,1.8-5.27,1.86-1.19,5.4-1.74,2.36-5.45C16.82,216.39,21,214.52,21.1,211.77Z"/><path class="black" d="M317.38,160.9c-.22,4.14,2.85,7.72,2,12a.54.54,0,0,0-.83.18c-1.82-2.06-6.13,1.4-6.85-3.09a1.58,1.58,0,0,0-.89-2.12c-.53-1.93-1.26-3.82-1-5.89a2.7,2.7,0,0,0,1.92-1.93c1.27.44,2.28.23,2.81-1.14C316.06,158.74,316.68,159.88,317.38,160.9Z"/><path class="grey" d="M3.39,341.37a10.88,10.88,0,0,1,3.14-1.48c1-.14,2.42-.78,3.23.32s.27,2.2-.41,3.23c-.55.83-1,1.73-1.53,2.56-1,1.56.13,5.28-2.26,4.73-3-.69-6.85-2.43-5.13-7.33.29-.83,0-1.9.48-2.85s.5-3.11,2.35-2.43S2.06,340.19,3.39,341.37Z"/><path class="grey" d="M472.35,70.09l-3.68.9c.69-3.13,2.56-5.38,5.69-5.86,2.76-.41,2.29-3.33,4.44-4.55,2.74-1.55,3.53-2.34,3.53,1.4l1.27,0-.06,0c0,2.56-1.39,4.64-2.86,6.45-1.34,1.65-2.93,6.12-5.3.29C474.72,67.08,472.48,67.55,472.35,70.09Z"/><path class="grey" d="M330.59,151.45c2.91-.49,6.2-3.81,8.28,1.42.69,1.72,2.72.95,4,.69,2.13-.43,4.17-.88,6.31-.22-1.26,2.37-4.2.12-5.65,2,.78,1.7,3.11,1.06,4.14,2.82-3.41,1.49-6.44-.07-8.86-1.42-3.42-1.91-8,.43-10.73-3.37C328.69,152.35,330.44,152.93,330.59,151.45Z"/><path class="grey" d="M397.73,226.92c-2.53,7.85-9.9,5.94-15.46,7.67-1.27-3.14-4.4-1.78-6.58-2.71-.12-1.67.86-2.44,2.32-2.82,5.65-.66,12.24,2.1,16.26-4.48C395,226,395.93,227.1,397.73,226.92Z"/><path class="grey" d="M360.68,236.86c0,7.73-4.2,13.49-10.18,13.91.08-.15.22-.29.22-.43,0-2.66-2.14-5.67,2.34-7.38C356,241.84,357.36,238,360.68,236.86Z"/><path class="grey" d="M112.83,216c-.16-5.53,4.84-7.74,7.5-11.43,1.31-1.81,3.22-3.16,3.5-5.61l0,.05c3.17-1.95,5.08-5.18,8.11-8.29v4.83c-2.24-1.17-2.59.59-3.47,2A86.23,86.23,0,0,1,112.83,216Z"/><path class="grey" d="M314.91,280.79c-1.82,3.8-6.11,4.81-8.78,7.67a1.32,1.32,0,0,1-2.14-.27,1.45,1.45,0,0,1,.45-2.16c2.24-1.11,2.88-2.55,1.49-4.79-1.55-2.48-3.22-.22-4.82-.2-.48-4.34,3.63-1.49,4.88-3.12C308.55,280.17,313.46,275.12,314.91,280.79Z"/><path class="black" d="M42.76,179c-2.3,1.75-3.95-.34-5.86-1-4.16-1.36-.12-3.3-.43-4.77-1.15-5.49,4.54-5.45,6.57-6.62,3.15-1.82,3.75,2.44,3.81,5.28-.64,0-1.55-.23-1.14,1l.11-.18c-1.1-1.18-1.82.59-2.8.37-1.34-.23-2.16-2.84-3.68-1.28-1.15,1.18.12,3,.83,4.08,1.22,1.88,2.46.74,3.4-.63C44.19,176.69,42.73,177.67,42.76,179Z"/><path class="grey" d="M31.86,333.93c.66,2.66,2.16,3.11,4.72,2.26A31.74,31.74,0,0,1,52,335c-6.13,2.1-12,5.68-18.88,3.84-1.89-.51-3.28,1.61-5.47.6C29,337.39,29.45,335,31.86,333.93Z"/><path class="grey" d="M92.9,318.07c-.08,1.59-1.22,3.16-.09,4.77a22.07,22.07,0,0,0-8,2.32c-2,1-2.5.47-2.5-1.46,2.1-1.36,5.85.4,6.6-3.5l-7.37-5.34c2.44-1.78,5.11.12,7.31-.95l.06,0C88.3,317.13,91.81,316.44,92.9,318.07Z"/><path class="black" d="M110,97.12l-.22-2.2c.51-1.81,3.23-1.8,3.28-4,3-3.14,6.4-1.57,9.74-.93l0,0c-1.25.27-1.24,1.12-1,2.09-.21,1-.41,2-.62,2.93-3.46-.44-6.67.06-9.34,2.55A1.61,1.61,0,0,1,110,97.12Z"/><path class="grey" d="M96.41,160.33,94.12,160a16.73,16.73,0,0,1-8.27-10.57c.31-1.71-.51-4.75,1.21-4.82,2.34-.1,5.19,1.09,5.66,4.38-1.25.26-2.43-2-3.49-.47s.94,2.12,1.61,3.13C92.72,154.54,94.56,157.44,96.41,160.33Z"/><path class="grey" d="M428,196.6c2.84,1.15,5.46,3.74,8.85,1.38,1.15,2.3,3.85,2.69,5.39,4.44.23.27-.5,2.07-1.11,2.29-3.83,1.41-12-3.76-13.05-8.07Z"/><path class="grey" d="M246.4,308.59c.18-2.77,3.19-2.44,4.53-4,.44-.52,2.37-.38,3.16.15s0,1.78-.26,2.71c-1.27,4.07-2.39,8.26-8.2,7a23.62,23.62,0,0,1,1.94-3.7C249,308.93,246.94,309.21,246.4,308.59Z"/><path class="grey" d="M404.78,33c1.83,2.12-.92,4.22.62,6.76-4.56-1.55-7.52-1.54-7,4,.17,1.91-1.14,3.36-3.38,3.35-.46-4,1.61-7.59,2.11-11.43.19-1.43,1.15-1.9,1.82-1.32C401.63,36.69,402.88,33.63,404.78,33Z"/><path class="grey" d="M317.38,160.9c-.7-1-1.32-2.16-2.84-2-1.14-2.55-.27-6.49-4.69-6.75,1.49-3.45,4-5.16,7.83-4.45-2,1.73-2.41,3.64-1,6S318.66,158.36,317.38,160.9Z"/><path class="grey" d="M122.79,90c-3.34-.64-6.77-2.21-9.74.93-2-.88-1.44-2.18,0-2.49,3.66-.76,7.39-3.18,11.14-.18.35.28,1.07.61,1.29.46,1.57-1.13,3.53-1.8,3.45.81-.08,2.33-2.45,2.28-4.4,1.57Z"/><path class="black" d="M246.4,308.59c.54.62,2.55.34,1.17,2.15a23.62,23.62,0,0,0-1.94,3.7l-.9.45c-2.17.38-4.62-.68-6.43,1.34-1.38-1.74-.07-3.58-.5-5.27.26-1.31-.69-3.41,2-3.16.11,2.41,1.67,2.22,3.32,1.84Z"/><path class="grey" d="M380.68,165.82c1.49-1.48,3.4-.81,5.08-.8,2.63,0,2.84.72,2.64,3.55-.07,1,.89,2,1.38,3-.95-.12-2-.56-2.81-.31-3.24,1-4.54-.48-4.86-3.44C382,166.84,382,165.85,380.68,165.82Z"/><path class="grey" d="M138.71,83.38c1.51,2,3.64,1.79,5.39.88,2.58-1.34,4.23-.59,5.67,1.55-2.69,1.57-5.75,1.1-8.59,1.15-2,0-3.74-.38-5.31,1.38-.54.6-1.84,1.82-2.75,0s1-1.18,1.51-1.6C135.94,85.56,136.77,83.75,138.71,83.38Z"/><path class="grey" d="M420.81,1.39c-2.37,4.72-4,9.9-8,13.61-.61-.48-1.57-.86-1.75-1.47-.34-1.11,6.26-11.73,7.43-12.09A8.07,8.07,0,0,1,420.81,1.39Z"/><path class="grey" d="M407.53,244.92c-3.12-1.64-6.45-3-9.3-5-2.54-1.8-2.84-4,.9-5.17.23,3.64,4.56,3,5.86,5.68C405.74,242,408.55,242.33,407.53,244.92Z"/><path class="grey" d="M298.65,65.82c-.44,2.5,2.79,5.37,0,7.38s-4.49-1.94-7-2.28c0-.63,0-1.25,0-1.87,1.27-.62,1.29-1.69,1-2.86Z"/><path class="grey" d="M161.16,76.23c-3.19,0-5.72,3.41-9.23,1.83.12-1.88,4.93-2,1.92-5.06a1.24,1.24,0,0,1-.18-.44v0c-.06.13-.19.35-.15.4,1,1.16,2.14.26,3.19,0C159.42,72.43,162.45,71.29,161.16,76.23Z"/><path class="black" d="M96.41,160.33c-1.85-2.89-3.69-5.79-5.57-8.66-.67-1-2.61-1.69-1.61-3.13s2.24.73,3.49.47c2,2.45,5.21,4.06,5.18,7.83-.21.78.1,1.15.9,1.13h0c.1,1.65-1,2.19-2.33,2.44Z"/><path class="grey" d="M111.89,97.53c2.67-2.49,5.88-3,9.34-2.55.86.37,2.14.34,2.33,1.4.08.39-1,1.3-1.66,1.48C118.56,98.74,115.05,102.68,111.89,97.53Z"/><path class="grey" d="M369.53,164.08c2.82.41,5.13-3.3,8.28-.91a4.83,4.83,0,0,1,1.93,2.72c-.64.07-1.64-.11-1.88.23C373.26,172.75,372,165.79,369.53,164.08Z"/><path class="black" d="M85.85,149.45A16.73,16.73,0,0,0,94.12,160c0,.83.09,1.66.14,2.49-4.08.11-4.43-4.82-7.75-5.73L85,154.65c0-1.54.94-3.5-1.73-3.81C82.69,147.69,84.72,149.42,85.85,149.45Z"/><path class="grey" d="M153.73,85.72c2.93.58,3.75-4.1,7-2.8-.45,4.94-3.74,6.92-10.89,6.36C152.56,89.57,154.21,88.73,153.73,85.72Z"/><path class="grey" d="M230,85.46c-.12,2.74-.24,5.49-.38,8.24-.07,1.45.12,3.1-2.1,3.13.1-1.74,1.06-3.41-2-4.26-1.88-.53-3.91-3.32.48-4.17C227.93,88,227.77,85.15,230,85.46Z"/><path class="grey" d="M132.48,99.11c5.18-1.56,7.91-4.74,12.1-3.49.87.26,2,.06,2.35,1a1.8,1.8,0,0,1-1.32,2.29c-3.46.14-6.93-.13-10.29,1.09C134.82,100.21,134.05,99.65,132.48,99.11Z"/><path class="grey" d="M399.14,248.47c.93-.17,2.43-.79,2.7-.45,2.38,3,4.54,1.12,6.76-.07.88,1,2.88,2.92,1.39,3.28-2.53.63-5.75,2.24-8.19-.12A34.92,34.92,0,0,0,399.14,248.47Z"/><path class="grey" d="M336.7,62.15c-3.09,1.56-4-1.76-3.22-2.55,3.07-3.13,1.6-7.09,2.75-10.49.92,3.34,2,6.65-.16,10C335.33,60.22,336.16,61.19,336.7,62.15Z"/><path class="grey" d="M103.08,226.17c-.6-6.36,4.21-7.66,8.69-9.26A26.32,26.32,0,0,1,103.08,226.17Z"/><path class="grey" d="M226.37,98.5c.24.93.47,1.86,1,3.92-2.78-2.6-5.54-2.21-8.07-2.83,1.35-2.36-.9-4-1.36-6.3C222.24,92.81,222.29,99.12,226.37,98.5Z"/><path class="grey" d="M20.29,344.51c-.69,1.48-2.1,1.73-3.55,1.83-1.13.08-2.81.12-2.46-1.38.46-2,1.79-4.52,3.6-4.8C20.64,339.74,17,344.24,20.29,344.51Z"/><path class="grey" d="M123.64,320.3c.4-2.34-3.34-4.68,0-7l4.4,1.45,0,5.53C126.55,320.21,125.11,321.1,123.64,320.3Z"/><path class="grey" d="M383.49,244.89c1.34,2,3.12,1.64,5,1,.64,2.27-.13,4-2.42,4.39-1.73.26-4.18.59-5.12-1.2C379.8,246.91,383.1,246.61,383.49,244.89Z"/><path class="grey" d="M400.61,227.63c0-.57.05-1.14.07-1.71a20.27,20.27,0,0,0,4.21-5.14c1.13-2.19,3.13-1.94,5.1-1.64-1.55,2.92-4.73,4.54-6,7.72C403.37,228.3,401.91,228.15,400.61,227.63Z"/><path class="grey" d="M318.59,173a.54.54,0,0,1,.83-.18q1.15,5.53,2.32,11.09c-1.41.47-1.16,3.33-3.09,2.57-1.63-.64-.93-2.59-.95-4C319.88,179.52,318.47,176.21,318.59,173Z"/><path class="grey" d="M443.73,162c.12-2.58-4.24-2.83-3.09-5.95,2.08-.23,4.29,2.1,6.3-.45.42-.52,1.56-.33,2.1.52a1.55,1.55,0,0,1-.34,2.19C447.1,159.65,446.12,161.8,443.73,162Z"/><path class="grey" d="M311.88,52c.35.29,1,.62,1,.86-.29,2.18,4.39,1.64,2.56,4.13-2.08,2.82-3.95-.4-5.92-.9l-.95-.24C308.83,53.88,309.23,52,311.88,52Z"/><path class="grey" d="M149.78,321c3.08-1.19,6.15-2.12,9,.62C155.55,324.32,152.51,324.78,149.78,321Z"/><path class="grey" d="M431.69,152a4.73,4.73,0,0,1-6.56,1.41c-1.82-1.05-.66-3.1.72-4.44A14.53,14.53,0,0,1,431.69,152Z"/><path class="grey" d="M410.74,183.75c4.21-3.3,8-2.74,8.89,1.31-.61.54-1.23,1.07-1.85,1.6-1.65-2.63-4-1.69-6.35-1.39C410.69,185.36,410.77,184.36,410.74,183.75Z"/><path class="grey" d="M119.88,116.65c-.82,2.52-1.82,1-2.44,0-1.37-2.31-2.55-4.74-3.8-7.13C117.91,110,119,113.26,119.88,116.65Z"/><path class="grey" d="M342.2,5.93l-2.72-.69c-1.67-2-.81-3.54.85-4.85a1.83,1.83,0,0,1,2.6.37C340.66,2.2,346.3,4.75,342.2,5.93Z"/><path class="grey" d="M244.65,323.88c-1.38-.46-2.93-.73-3-2.66,2.09-.84,4.34,2.09,6.42-.36.92-1.08,2.06-1,2.77.42.93,1.9-1.36,2.48-1.88,2.68C247.68,324.43,246.1,324,244.65,323.88Z"/><path class="grey" d="M434.64,223.86c2.33-2.32-.34-4.78.2-7.15,2.17.62,4.31,1.61,3.75,4.24C438.24,222.62,437.26,224.69,434.64,223.86Z"/><path class="grey" d="M109,314.61c-.41,1.3-1.24,1.49-2.09.54-1.43-1.61-2.78-1.27-4.21-.1l-1-.84c0-1,.06-2,.1-3,1-.41,1.39.63,2,.78C105.74,312.39,108.36,313.57,109,314.61Z"/><path class="grey" d="M307.76,60c-2.71,2.06-3.63,6.73-8.42,5.72,3.34-2.39,5.53-5.88,8.36-8.75V60Z"/><path class="grey" d="M77.8,180.1c-3-.29-6.09,0-8.7-1.95,1-.33-1-3.67,2.19-1.93C73.52,177.43,76.06,178.06,77.8,180.1Z"/><path class="grey" d="M80.85,318.73c-3.24,3-6.85,4-11,2.11C73.5,320.18,77,318.4,80.85,318.73Z"/><path class="grey" d="M346.72,304.78c.71,2,5.71-.83,4,3.59-.35.94-1.33,2.23-2.61,1.85-1-.29-1.2-1.48-.84-2.57a2.74,2.74,0,0,0-.54-2.79Z"/><path class="grey" d="M356,257.74c-.67-4.35,2.41-5.15,5.57-5.85C363.16,255.45,360.9,257.82,356,257.74Z"/><path class="grey" d="M123.45,313.06l-2.67-.18.06.06-.41-1.15-.3.84-.79.64L117,313c.8-.72-1.71-2.77,1.09-2.7C120.33,310.34,123.22,309.12,123.45,313.06Z"/><path class="grey" d="M25.53,292.13c2.58-1,4.49,1.53,7.24.85-.43,2-2.08,2.94-1.68,4.62-2.08,0-2.13-2.64-4-2.6C27.64,293.46,25.6,293.33,25.53,292.13Z"/><path class="grey" d="M378.4,227c-2.37.86-4.68,3.13-7.22.34l.49-2.36,7.47.33A1.37,1.37,0,0,1,378.4,227Z"/><path class="grey" d="M86.51,156.78c3.32.91,3.67,5.84,7.75,5.73C89.35,164.06,87.26,162.52,86.51,156.78Z"/><path class="grey" d="M210.8,102.05c.19,2.17-4.35,5.87-6,4.69-1.42-1,.49-1.71.94-2.54C207.21,102.94,208.53,101.39,210.8,102.05Z"/><path class="grey" d="M152.78,102.31q1,2.7,2.11,5.4a29.35,29.35,0,0,1-4.23-.65c-1-.3-2.53-1.42-1.3-2.23S149.73,100.31,152.78,102.31Z"/><path class="grey" d="M67.82,325.89c2.55-4.08,6.27-1.29,9.46-1.62-1.22,1.15-2.48,2.19-4.31,1.29A5.45,5.45,0,0,0,67.82,325.89Z"/><path class="grey" d="M380.78,235.13c.46,1.77-1,3.11-1.06,4.78-2-.36-4.46.21-3.85-3.39C376.61,232.18,379.15,235.54,380.78,235.13Z"/><path class="grey" d="M172.75,111.8c-.05,1.8-1.23,2-2.35,2.16a2.27,2.27,0,0,1-2.67-2.18c-.07-1.81,1.8-1.41,2.86-1.63A1.68,1.68,0,0,1,172.75,111.8Z"/><path class="grey" d="M96.48,160.42c1.37-.25,2.43-.79,2.33-2.44,1.59.33,3.17.68,4,2.37l-2.28,3C99.42,162,97.14,162.32,96.48,160.42Z"/><path class="grey" d="M348.79,63.21c-.16,1.34,2.22,2.81-.46,4.08a2.62,2.62,0,0,1-3.75-1c-2.07-2.94,3.59-1,2.3-3.57Z"/><path class="grey" d="M43.57,175.26c-.94,1.37-2.18,2.51-3.4.63-.71-1.11-2-2.9-.83-4.08,1.52-1.56,2.34,1.05,3.68,1.28Z"/><path class="grey" d="M223.17,81c-1.24-.46-3.49.78-3.5-1.6,0-1.88,2-1.2,3.17-1.52a1.94,1.94,0,0,1,2.62,1.59C225.78,81.34,224.3,81,223.17,81Z"/><path class="grey" d="M212.9,98.89l-1.22,1.22c-1.86-1.54-3.41-3.45-5.78-4.3.28-.45.38-.84.59-.92C210.29,93.54,213.34,93.45,212.9,98.89Z"/><path class="grey" d="M22,298.35c-.26.89-1,2.2-.71,2.62,2.85,3.56-.49,2.67-2.08,3C19.24,301.7,18.29,298.89,22,298.35Z"/><path class="grey" d="M423.81,172.82c1.41-1.39,2.86-2.65,5.06-1.71l.18.35-.29.26c-1.07,3-2.67,4.16-5.33,1.48C423.56,173.08,423.69,173,423.81,172.82Z"/><path class="grey" d="M160.86,93.17c1.82,4-.3,4.28-3.42,3.56C156.62,93.67,158.32,93,160.86,93.17Z"/><path class="grey" d="M373.9,219.28c-.21,1.92-2.48,2.86-2.39,4.94a24.05,24.05,0,0,1-2.15-1.15C370.2,221.05,371.5,219.47,373.9,219.28Z"/><path class="grey" d="M433.76,135.93h4.8c-1.09,2.73-3.25,3.37-5.92,3l.07.12Z"/><path class="grey" d="M429.71,47.91c-2.13,1.76-4.65,1-7,1.07C424.65,46.24,427.24,47.46,429.71,47.91Z"/><path class="grey" d="M344.74,61.89c-1.66,2.16-3.37.73-5.07.07C341.34,59.82,343.05,61.52,344.74,61.89Z"/><path class="black" d="M292.68,66.19c.26,1.17.24,2.24-1,2.86l-2.87-1.16c0-.37.09-.75.13-1.13Z"/><path class="grey" d="M231.57,77.73c-.2,1.57,1,3.7-1.73,4.25-.94-.68-5-.72-.47-2.5A9.68,9.68,0,0,0,231.57,77.73Z"/><path class="grey" d="M183.79,321.82c.17-.79.33-2.25.51-2.25,1.86,0,2,1.7,2.62,2.9A3,3,0,0,1,183.79,321.82Z"/><path class="grey" d="M46.91,254.06c-.28,1.29.82,2.83-.71,3.9-.63-2.45-1.62-.43-2.47-.2l.09.1C44.52,256.32,44.56,254.25,46.91,254.06Z"/><path class="grey" d="M275.67,328.68c.14-1.84.47-3.55,2.73-3.9C278.7,326.93,278.79,328.93,275.67,328.68Z"/><path class="grey" d="M289.74,56c-1.52-2.55-1-4,2.16-3.89Z"/><path class="grey" d="M176.85,88.17c-1.61,3.32-3.32,1.2-5,.09C173.48,86.27,175.2,89,176.85,88.17Z"/><path class="grey" d="M58.84,144c-.06,1.63-.81,3.14-2.48,2.56-1.22-.42-.78-1.84.41-2.56Z"/><path class="grey" d="M83.24,150.84c2.67.31,1.76,2.27,1.73,3.81C82,154.46,84.29,151.89,83.24,150.84Z"/><path class="black" d="M101.73,311.18c0,1-.07,2-.1,3-.91.35-1.68.15-1.79-.85A1.76,1.76,0,0,1,101.73,311.18Z"/><path class="grey" d="M61.65,320.63c.05,1.5.39,3.19-2,3.16C58.56,321.63,59.8,320.93,61.65,320.63Z"/><path class="grey" d="M430.51,224.07l4.11-.18C433.4,227.45,431.92,225,430.51,224.07Z"/><path class="grey" d="M158.26,253.4c1.37-.3,2.78-.71,3.71.88C160.57,254.66,159,255.6,158.26,253.4Z"/><path class="grey" d="M164.75,320.78c.45-2.22,1.48-2.46,3-.89Z"/><path class="grey" d="M375.7,215.92c-.13,1.29.17,2.81-1.7,3.17C373.49,217.45,374,216.37,375.7,215.92Z"/><path class="grey" d="M243.13,309.64c-1.65.38-3.21.57-3.32-1.84C241.21,307.89,243.11,307.07,243.13,309.64Z"/><path class="grey" d="M314.8,49.34c-.47,1.39-1.56,1.75-2.88,1.73C311.89,48.84,312.41,47.55,314.8,49.34Z"/><path class="grey" d="M143.92,80.42c.13,1.41-.6,1.84-1.88,1.65a1.88,1.88,0,0,1,.36-2.42C142.53,79.53,143.4,80.15,143.92,80.42Z"/><path class="grey" d="M52,144.48c-.64,1.14-1.42,2-2.92,1.59C49.86,145.21,50.61,144.26,52,144.48Z"/><path class="grey" d="M288.91,66.76c0,.38-.09.76-.13,1.13l-2.09.94c0-.94,0-1.87,0-2.8Z"/><path class="grey" d="M347.81,286.87c1.32-.06,2.46.22,3,1.62C349.89,287.79,347.82,289.25,347.81,286.87Z"/><path class="grey" d="M273.78,322c-.16,1.59-1.35,1.89-2.62,2.07C269.87,320.61,273.15,323,273.78,322Z"/><path class="grey" d="M367.56,229.67c0,3.12-1.7,1.52-3,1.14C365.31,229.75,366.47,229.79,367.56,229.67Z"/><path class="grey" d="M271.08,326.79c1.3-.08,2.71-.36,2.83,1.62C272.55,328.59,271.38,328.45,271.08,326.79Z"/><path class="grey" d="M184.42,80.84c1.36.7,1.34,2,1.31,3.23C183.93,83.55,183.46,82.49,184.42,80.84Z"/><path class="grey" d="M187.79,307.88c-.66.75-1.33,1-2,0A1.15,1.15,0,0,1,187.79,307.88Z"/><path class="grey" d="M62.61,138.65c.26,1.21.11,2.2-1.36,2.45C61.55,140.2,61.22,139,62.61,138.65Z"/><path class="black" d="M122.79,90l1.79,1.1-1.66.54-.1-1.68Z"/><path class="grey" d="M192.94,307.74c-.65,1-1.36,1.07-2.16.17A2.06,2.06,0,0,1,192.94,307.74Z"/><path class="grey" d="M136.81,223.78c1.23.64,1.14,1.36.12,2.13A1.76,1.76,0,0,1,136.81,223.78Z"/><path class="grey" d="M46.5,150.92c.78.12,1.24.62,1,1.34a1.27,1.27,0,0,1-1.63.72C46.17,152.32,45.6,151.39,46.5,150.92Z"/><path class="grey" d="M363.14,248c-.6-.2-1.24-.47-1-1.23.31-1,1.14-.77,1.89-.62A1.64,1.64,0,0,1,363.14,248Z"/><path class="grey" d="M183.9,86.38c-.46,1.4-1,2.4-2.15.44C182.28,85.76,183.17,86.44,183.9,86.38Z"/><path class="grey" d="M444.52,172.06c.3-.9.85-1.43,1.87-1.21C446.47,172.34,445.6,172.36,444.52,172.06Z"/><path class="grey" d="M179.81,86.37c-.14,1.29-1,1.6-2.12,1.55C177.84,86.64,178.17,85.61,179.81,86.37Z"/><path class="grey" d="M399.62,231.92c-1.09-.61-1.44-1.25-.08-1.95.37.21,1,.37,1.06.66A1.05,1.05,0,0,1,399.62,231.92Z"/><path class="grey" d="M182.74,308.19c-.74.9-1.36.6-1.94-.19C181.52,307.35,182.18,307.29,182.74,308.19Z"/><path class="grey" d="M351.65,290c1.16-.05,2.1.2,2.19,1.61C353,291.25,351.7,291.41,351.65,290Z"/><path class="grey" d="M174.92,308.37c-.61,1.48-1.33,1.63-2.19.18A2,2,0,0,1,174.92,308.37Z"/><path class="grey" d="M33.45,329.74c2,1.26,1.17,1.84-.54,2.19Z"/><path class="grey" d="M440.82,168.42c-.19,1.58-1,2-2.44,1.32C438.34,167.72,439,167,440.82,168.42Z"/><path class="grey" d="M43.73,257.76l-.31,2.46c-.82-1.25-.12-1.78.4-2.36Z"/><path class="grey" d="M122.82,90l.1,1.68-1.07.41C121.58,91.08,121.57,90.23,122.82,90Z"/><path class="grey" d="M483.6,61.93l.77-.15-.25-.31-.58.49Z"/><path class="grey" d="M164,76.39c-.58,1.28-1.37,1.14-2.25.33Z"/><path class="grey" d="M93.78,236.93c.08.56.36.81.94.63-.67-.77-.75-.06-1,.37l.08,0c.1-.12.29-.26.28-.36a4,4,0,0,0-.29-.72Z"/><path class="grey" d="M294.81,289.89l1.14.16-.84,1.36C294.74,291,294.38,290.5,294.81,289.89Z"/><path class="black" d="M105,112.53c-.66-.61-.89-1.3,0-1.82.65-.38,1.11.08,1.35.71Z"/><path class="grey" d="M297.75,289.91c.74-.17,1.1.11,1.05.89Z"/><polygon class="grey" points="273.75 297.96 273.61 298.05 273.73 297.91 273.75 297.96"/><path class="grey" d="M346.78,304.86l-.18-.06s.13,0,.12,0Z"/><path class="grey" d="M405.84,30.89l-.34.3-.45-.08,0-.71Z"/><path class="grey" d="M418.55,197.07h.23l-.13.08Z"/><path class="grey" d="M98.8,158c-.8,0-1.11-.35-.9-1.13Z"/><path class="black" d="M15,307.72l-.21.18a2.34,2.34,0,0,0,0-.26Z"/><path class="grey" d="M64.91,321.24c0,.83-.31,1.17-1.09.58Z"/><path class="grey" d="M67.86,321l-.37.72-.68-.78Z"/><path class="grey" d="M428.84,171.14c0-1,.49-1.13,1.29-.82C430.05,171.14,429.6,171.38,428.84,171.14Z"/><path class="grey" d="M111.78,216.89c-.06-.77.28-1.1,1-.93Z"/><path class="grey" d="M88.82,313.91l.13-.15a.91.91,0,0,0-.07.14Z"/><polygon class="grey" points="428.05 196.64 427.84 196.69 427.97 196.6 428.05 196.64"/><path class="grey" d="M185.65,175.87c.13-4.44-.64-4.84-4.48-3.29a192.5,192.5,0,0,1-22.76,7.9c-4.55,1.21-8.9,3.22-13.33,4.87-.35-3,3.28-2.26,4.13-4.36.44-1.1,2.72-1.16,2.11-3.28-.16-.56,8.1-5.62,8.65-5.38,1.57.69,1.73,1.57.76,3.1-1.67,2.64-.07,2.84,2,2.1,3.44-1.25,7.21-1.93,8-6.73.44-2.78,1.92-5.33,5.69-4.81,2.26.32,2.39-1.75,3.17-3.15,2.9-5.19,8.37-6.87,13.85-4.34-2.59,2.71-2.59,2.71.63,4-.25,1.77-4.4,1.93-2.49,3.84,1.58,1.6,4.78.89,7-.49,1.31-.82.08-2-.07-3.08s-3.59.64-1.83-1.91a3,3,0,0,1,4.77-.18c1.34,2,2.39,1.82,4,.85,1.31-.81,2.16-.34,2.8.9.79,1.54-.62,1.6-1.27,2.41-1.61,2-1.83,5.72-5.88,2.62-.67-.52-1.91,1.29-1.16,2.77.66,1.31,1.34,2.62,2,3.93l.11,1.68c-3.67,2.13-4.49-.08-4.51-2.82C193.28,173.55,189.12,173.46,185.65,175.87Z"/><path class="grey" d="M396.48,80.93c1.26,1.5,2.63,2.92,3.73,4.53s1.74,3.14,3.91,1.08c1.47-1.39,1.75.64,2.25,1.36,1.1,1.63-.82,1.2-1.28,1.45-1.91,1-4,1.7-5.92,2.64-3.25,1.57-3.82,5.21-1.38,8.29-1.1,2.3-2.76,3-5.07,1.71.35-.84,2.65-1,.71-2.66s-1.93-4.18-1.69-6.58c.64-2.26,5.11-5.87-2.22-5.21-1.51.13-.93-3.69-.61-5.63.29-1.74,1.8-1.81,3-.77C393.59,82.6,395,81,396.48,80.93Z"/><path class="grey" d="M396.42,200.79c.56,1.52,1.51,3,1.58,4.58.11,2.33,1.89,2.21,2.53,1.41,2.2-2.72,4.62-1.6,7.1-1-.27,3.88-5.22.61-5.9,3.87-3.8-1.31-6.4,2.58-10,2.29l-2,.08c-.7-1.62.15-2.74,1-4,1.54-2.3,3.8-4.73-1.2-6.2-1.76-.52-.35-1.72.9-2.07l.42.42C392.52,202,395,197.39,396.42,200.79Z"/><path class="grey" d="M326.79,84l13,.24c-.8,4.93-5.17,6-8.67,8-2.65,3.63-4.05-1.21-6.21-.92C324.34,88.52,325.79,86.3,326.79,84Z"/><path class="grey" d="M274.39,151.85c-3,5.6-8.26,2.83-12.61,3.31-1.41.15-2.89-.56-4.35-.62-2.19-.07-2-.35-1.11-2.32,1.06-2.51-1.45-1.4-2.63-1.46,3.15-3.84,8.13-1.43,9.67-.12C267.26,154,270.68,152.28,274.39,151.85Z"/><path class="grey" d="M412.73,62.15c0,.66-.18,1.63.17,1.93,4,3.38-.58,5.62-1.77,5.8-4.74.73-6.38,4.81-9.31,7.41a2.88,2.88,0,0,1-3,.89c-.39-3.73,2.37-5.43,4.86-7.08s5-2.4,4.55-6.43A2.73,2.73,0,0,1,412.73,62.15Z"/><path class="grey" d="M240.83,148.76a59,59,0,0,1-10.48,4.75c-4-4.74.67-6.37,3.34-7.87C236.74,143.93,239.73,144.78,240.83,148.76Z"/><path class="grey" d="M388.16,93.34c-.61,2.71-3,4.08-4.79,5.66s-2.37,3.56-2.61,5.76c-.54,2-2,2.83-3.7,1.77s-1.79-2.55-.49-4.24C379.66,98.27,381.45,92.65,388.16,93.34Z"/><path class="grey" d="M357.64,79.35l.14-.15c-1.8-.11-3.65-.56-5.37-.26-3.93.66-2.64-2.82-3.27-4.3-.85-2,1.64-2.16,2.84-2.25s2.07.19,3.26-.3c4.54-1.89,6.2-.55,6.18,5-2.45-.88-4.05-4.27-7.22-2.5C353.51,77.47,359.72,75.42,357.64,79.35Z"/><path class="grey" d="M252.75,88.12c-.37,3.82-6.36,7.45-9.55,5.77-1.49-.78-1.53-2-.88-3.33.75-1.59,1.47-3.2,2.2-4.8l.76.76c.05,2.41,1.49,1.35,2.66,1.09C249.59,87.23,251.33,86.2,252.75,88.12Z"/><path class="grey" d="M265.62,199.9c.35,3.76.06,7.25-2.41,10.5-1.62,2.13-2.76,2.29-4.45.44,1.34-2,2.45-4,2-6.72C260.3,200.75,263.89,201.2,265.62,199.9Z"/><path class="grey" d="M255.74,183c2.84,3.14,7.47,4.8,8.05,9.8-.1,1.39-.2,2.77-2,1.18-1.41-1.15-2.44-3.33-4.84-1.8C256.81,189.07,255.23,186.16,255.74,183Z"/><path class="grey" d="M354.68,97c-2.72-.33-5,3.24-7.95.9.34-2.9,2.3-4.18,4.85-4.88.89,0,2.58-2.24,2.42-.28-.23,2.74,2.11,1.94,2.73,3.15C356.39,96.87,355.54,96.93,354.68,97Z"/><path class="grey" d="M327.7,96.4c-.19,2.36-2.61,2.15-3.77,3.33A1.9,1.9,0,0,1,321,100c-1.75-1.24.11-1.86.49-2.71s.79-1.42,1.2-2.13C324.94,93.26,326.74,93.17,327.7,96.4Z"/><path class="grey" d="M276.06,95.19c3.58,1.51,7.21,1,10.83.25-2.78,3.82-7.57,4.75-10.88,2A1.62,1.62,0,0,1,276.06,95.19Z"/><path class="grey" d="M309.68,155.94l2.05,4.07a2.7,2.7,0,0,1-1.92,1.93c-3.77-.27-2.2-4.94-5-6Z"/><path class="grey" d="M288.55,76.73c-1.25,1.88-3.32.38-4.84,1.16,0-2.45,1.61-4.12,3-5.87,1.52.55,2.52-1.58,4.08-.8C291.07,73.47,287,73.94,288.55,76.73Z"/><path class="grey" d="M274.31,83.33c.29,4.25-1.33,6.94-2.47,9.77a1.45,1.45,0,0,1-2,.92c-1-.36-.94-1.22-.58-2C270.53,89.19,271.66,86.32,274.31,83.33Z"/><path class="grey" d="M397.49,184.64c.62,2.05,4.17,2.44,2.72,4.47-1.91,2.68-4-.55-6.83-.24C394.86,186.85,397.74,187.18,397.49,184.64Z"/><path class="grey" d="M408.21,177.1c3.42-1,5.75-1.72,8.06-2.48,1-.33,1.66-.13,1.91.84.33,1.26-.7,1.32-1.49,1.37C414.25,177,412,178.69,408.21,177.1Z"/><path class="grey" d="M197.8,218.05c-.39,3.3-1.83,1.33-2.74.43s-3.56-2.15-.23-3.53C196.15,215.66,197.65,216.21,197.8,218.05Z"/><path class="grey" d="M307.71,60l5.79-1c-1.43,1.37-.8,4.55-3.14,4.69-1.5.09-2.39-2-2.6-3.76Z"/><path class="grey" d="M285.71,149.77c-2.42,1.93-4.69.22-7-.31C281.16,146.88,283.38,149.62,285.71,149.77Z"/><path class="grey" d="M140.28,221.13c1.27.22,2.2.9,2.22,2.24,0,1-.75,1.44-1.71,1.2s-1.87-.73-1.95-1.92A1.26,1.26,0,0,1,140.28,221.13Z"/><path class="grey" d="M26,317.92c-.61-.55-1.63-.88-1.11-2-1.07-2-3.42-4.35,2.13-4.37C24.29,313.53,28.48,315.89,26,317.92Z"/><path class="grey" d="M433.74,135.9l-4.09-1c.05-1.37.32-2.83,2-2.65C433.8,132.43,433.66,134.31,433.74,135.9Z"/><path class="grey" d="M345.08,80.1c-.1-1.38-.21-2.76-.32-4.13.89-.68,2.09-1.63,2.66-.06C348.13,77.88,347.42,79.57,345.08,80.1Z"/><path class="grey" d="M26.54,305.5c1.46,1.23,1.65,2.59.76,3.95a1,1,0,0,1-1.65-.21C24.68,307.72,25.72,306.7,26.54,305.5Z"/><path class="grey" d="M206.48,154.48c-1.79,1.74-3,1.87-4.63.59C203.11,153.29,204.55,153.86,206.48,154.48Z"/><path class="grey" d="M54.81,245c.91.6,2.18-1.43,2.81.25a1.62,1.62,0,0,1-1.4,2.14c-1.84.15-1.06-1.52-1.37-2.44Z"/><path class="grey" d="M199.67,155c-.74,0-1.36-.22-1.37-1,0-1.2.89-1.68,1.9-1.84.31,0,1,.49,1,.68C201.05,153.73,201,154.8,199.67,155Z"/><path class="grey" d="M422.55,167.26c-.84,1.13-1.79,2-3.4,1C419.8,166.28,421.4,167.37,422.55,167.26Z"/><path class="grey" d="M292.81,149c-.61,3.76-2.58,1.15-4.05.85C289.87,148.41,291.47,149.31,292.81,149Z"/><path class="grey" d="M254.76,87c-.19-2.21,2-2,3-3C258.14,86.41,257.27,87.54,254.76,87Z"/><path class="grey" d="M363.78,81.45a2,2,0,0,1-3-.92,1.87,1.87,0,0,1,2-1.71C364.73,79,362.68,80.85,363.78,81.45Z"/><path class="grey" d="M137.24,219.45c-.72-.86-1-2.18,0-2.47s.67,1.05.6,1.74C137.77,219,137.45,219.2,137.24,219.45Z"/><path class="grey" d="M433.39,130.17l-.59.49-.61-.94c.25-.09.55-.3.75-.23S433.24,129.92,433.39,130.17Z"/><path class="grey" d="M300.82,150.74c-1.09.25-1.58-.44-2-1.26C300.4,148.45,300.84,149.23,300.82,150.74Z"/><path class="grey" d="M123.83,198.92c-.46-.22-1.4.18-1.23-.89a.48.48,0,0,1,.33-.32c1.07-.13.63.79.86,1.26Z"/><path class="grey" d="M111.77,155.68l-.34-.26c.13-.06.27-.19.4-.18s.23.16.35.25Z"/><path class="grey" d="M425.66,166.13l.41.18-.57.42c-.08-.12-.24-.29-.21-.35S425.53,166.21,425.66,166.13Z"/><path class="grey" d="M390.47,199.69c.26-.31.51-.79.92-.19,0,.06-.33.4-.51.61Z"/><path class="grey" d="M423.43,173.2l-.27-.71.65.33C423.69,173,423.56,173.08,423.43,173.2Z"/><path class="grey" d="M265.74,193c.92-.3,1.23,0,1,.95Z"/><path class="grey" d="M194.7,213.06l-.71-.86.84-.12C194.8,212.41,194.76,212.74,194.7,213.06Z"/><path class="grey" d="M302.77,191.15c.47-3.2-1.78-7.2,2.73-9.25a1.44,1.44,0,0,0,.19-1.37c-4.82-6.91,2.71-8.77,5.16-12.7a1.58,1.58,0,0,1,.89,2.12c-2.82,5.92-1.95,8.66,3.35,10.73.36.14.54.77.8,1.17-1.5,1.29-1.71,3.32-2.38,5-1.17-.45-1.6-.93-1.62-1.92,0-1.54.33-3.69-1.84-3.85-1.95-.14-3.24,1.11-3.41,3.39-.11,1.42-1.07,2.7-.81,4.29C306.23,191.29,304.67,191.52,302.77,191.15Z"/><path class="grey" d="M197.8,263.07c2.28-1.64,4.52-3.29,7.34-4a3.64,3.64,0,0,1,4.57,2.45c.45,1.93-1.83,1.37-3.14,1.74-2.19.62-4.57,1.44-4.57,4.47C199.19,267.46,200,264,197.8,263.07Z"/><path class="grey" d="M288.77,234.94c-.87-4.81,2.84-4.95,6.9-6.38-2,3.08-2.27,5.91-4.84,7.49A1.84,1.84,0,0,0,288.77,234.94Z"/><path class="grey" d="M228.68,266.2c2.22-1.33,3,1.89,5,1.53C231.92,270.57,231.9,270.57,228.68,266.2Z"/><path class="grey" d="M190.62,262.73c2-.75,3.38,1.64,5.34,1C193.72,265.9,192.09,264.76,190.62,262.73Z"/><path class="grey" d="M297.73,219c-1.93-2.13-3.08-4.11,1-5.1A7.36,7.36,0,0,1,297.73,219Z"/><path class="grey" d="M215.79,267a6.46,6.46,0,0,1,5.07-.82C219.51,268.6,217.75,268.42,215.79,267Z"/><path class="grey" d="M290.86,236.91a.88.88,0,0,1,.88,1.05l-.55,2.26c-.41-.13-1.06-.14-1.17-.39A2,2,0,0,1,290.86,236.91Z"/><path class="grey" d="M208.66,267.3l3.17-.21C210.93,269.43,209.87,269.49,208.66,267.3Z"/><path class="grey" d="M223.7,266.12l3.15,0C225.78,268.53,224.73,268.45,223.7,266.12Z"/><path class="grey" d="M182.05,258.56a4.36,4.36,0,0,1,3,2.21C183.46,260.78,181.77,261,182.05,258.56Z"/><path class="grey" d="M299.47,213.69a1.86,1.86,0,0,1,2.26-.76c-.07.76.07,2-.26,2.18C300.37,215.57,300.24,214.07,299.47,213.69Z"/><path class="grey" d="M202.83,267.82l2,.27c.09.7-.16,1.35-.85,1.39C202.92,269.52,202.89,268.6,202.83,267.82Z"/><path class="grey" d="M133.5,320c-1.24-.86-1.83-1.64.23-2.15C132.91,318.5,133.38,319.27,133.5,320Z"/><path class="grey" d="M400.73,226l-3,1c.07-1.35.31-2.68,2-2.77C400.74,224.14,400.66,225.18,400.73,226Z"/><path class="grey" d="M394.3,224.45c.37-1.38,1.55-1,2.51-1.19C396.55,224.88,395.66,225.17,394.3,224.45Z"/><path class="grey" d="M347.19,285c1.18-.66-1-3.33,1.83-3,.88.1,1.77.49,1.66,1.42-.26,2.27-2.31,1.06-3.48,1.6Z"/><path class="grey" d="M120,316.06c-.76,3.07-2.14,1.44-3.59.6.94-1.35,2.19-.67,3.21-.91Z"/><path class="grey" d="M119.63,315.75c-.09-.83-.19-1.66-.28-2.48l.77-.64a3.82,3.82,0,0,0,.72.31l-.06-.06c.2,1.17.52,2.38-.78,3.18Z"/><path class="black" d="M178.93,74.86l.39.61-.63-.37Z"/><path class="black" d="M45.62,269.68l.78-.27-.36.7C45.9,270,45.75,269.83,45.62,269.68Z"/><path class="black" d="M257.7,80.82,255.76,80c0-1.32,0-2.63-.07-4l.14-.15C259,76.59,257.11,79.17,257.7,80.82Z"/><path class="black" d="M255.69,76.05l-.42-.53.56.38Z"/><path class="black" d="M120.84,312.94a3.82,3.82,0,0,1-.72-.31c.11-.28.21-.56.31-.84Z"/><path class="grey" d="M256.74,176.88c3.43-1.3,5.78-.37,7.14,2.8.6,1.39,1.35,2.51-.89,3.35a2.06,2.06,0,0,1-3-1.94C260,178.73,259,177.61,256.74,176.88Z"/><path class="grey" d="M253.44,221.75c-.88,1.77-1.49,3.69-3.88,3.7-.22,0-.74-.9-.63-1.11C249.85,222.61,250.71,220.66,253.44,221.75Z"/><path class="grey" d="M283,88.08c2,.36,1.95,1.9,2.35,3.07.58,1.72-.69,1.81-1.89,2-2.12.28-1.45-1.31-1.4-2.25S281.77,88.58,283,88.08Z"/><path class="black" d="M291.83,80.68c-.64-.36-1.74-.68-1-1.6s1.7-.57,2.44.26Z"/></g></g></svg>