<svg width="145" height="100" viewBox="0 0 145 100" fill="none" xmlns="http://www.w3.org/2000/svg">
<path d="M142.247 39.026C138.058 41.6166 139.456 41.3617 142.813 45.6454C144.955 48.3759 144.665 51.5581 143.11 54.7521C139.572 58.8937 138.56 59.53 141.408 61.5438C149.139 68.2639 140.774 74.4066 134.768 69.2215C132.597 67.2136 129.579 69.8554 126.329 72.0566C120.739 75.8399 120.906 77.8255 121.813 81.0311C123.486 86.9421 117.735 92.0563 114.914 87.1934C111.653 81.5699 108.452 84.9921 103.104 86.5731C96.3029 88.5808 94.4446 89.3166 94.6256 93.9601C94.9017 101.074 85.3556 102.402 83.9755 95.2539C82.9409 89.9005 78.4658 90.4489 73.9383 90.0095C69.0132 89.5315 64.051 90.9032 63.4987 95.0975C62.7013 101.158 52.9705 98.0596 54.1539 92.7715C55.45 86.9776 51.4376 87.2082 47.5746 85.3975C41.391 82.5001 39.6458 83.2605 37.2087 86.4398C29.1666 95.4726 24.4401 84.0108 26.6373 79.6561C27.9669 77.3157 28.6262 76.3415 24.6219 72.7992C21.6173 70.1421 20.2095 71.0239 18.0542 72.9265C11.4379 78.7682 7.01706 73.3841 10.7283 66.9515C12.4437 63.9771 6.22384 61.9189 4.17961 60.3522C-0.639747 56.6605 -0.755169 51.0608 3.83636 43.9246C7.26026 38.6061 8.7473 40.0341 4.73681 33.8137C-2.27414 25.2643 6.41543 22.0902 11.8382 26.4588C16.0931 30.0177 16.0456 29.0183 21.2516 25.3103C25.4404 22.3258 28.6743 22.2176 25.5464 15.4439C22.6453 9.16035 30.6416 6.56534 33.8539 12.9425C35.9716 17.1461 38.2985 16.3894 42.7823 14.6622C49.3967 12.1149 49.5953 10.9266 48.9156 7.84445C47.39 0.93037 56.2195 -1.18058 58.1115 5.04839C59.1556 8.48747 59.6644 9.07361 68.8498 8.53094C73.9558 8.22779 79.8681 8.67229 80.4494 5.02735C81.614 -2.27465 89.3605 -1.28008 88.802 5.79902C88.3642 11.3505 90.7281 11.2719 98.8342 13.176C105.245 14.6815 107.968 18.9358 111.509 11.9032C115.164 4.64702 124.528 8.22864 120.828 16.6966C118.882 21.15 122.316 23.2912 126.265 26.3666C129.779 29.1039 132.162 34.8583 137.704 32.102C143.319 29.3101 146.886 34.511 142.24 39.028L142.247 39.026ZM89.6488 26.9579C89.1503 27.4966 96.1149 35.9621 97.786 40.7357C100.813 50.9729 98.9996 63.6504 93.9582 68.8326C99.8799 67.844 114.995 63.7703 123.976 53.787C127.893 49.4338 91.425 26.0903 89.6488 26.9579ZM33.0632 34.3218C25.3881 38.1328 17.5429 43.1224 15.6294 45.4099C12.4342 49.2293 16.3951 51.9603 27.1955 59.0574C35.1879 64.3092 48.9137 67.9742 53.9775 68.7575C48.4092 62.8169 42.7712 51.5627 47.8417 37.0968C51.7044 28.5548 58.2488 25.5944 57.1785 25.2161C56.1089 24.8389 40.7381 30.5108 33.0632 34.3218Z" fill="black"/>
</svg>
