<svg width="117" height="100" viewBox="0 0 117 100" fill="none" xmlns="http://www.w3.org/2000/svg">
<path d="M75.0388 0.000531432C58.7283 0.016255 44.189 0.320097 38.6272 0.761183C37.9935 0.811439 35.9942 0.878881 34.1838 0.911566C30.9745 0.973694 26.5818 4.18116 26.0522 8.87029C25.5828 10.7803 25.5164 14.1672 25.7605 23.7858C26.2656 43.6843 26.9139 55.5602 27.7896 60.9661C23.6009 67.809 6.42254 83.3618 0.975163 89.8772C-0.572627 92.9084 0.534177 94.4306 1.5819 96.4766C2.66286 98.5875 4.39837 98.7619 26.1747 98.9431C43.961 99.1023 61.9 100.483 81.3555 99.8218C85.3169 99.5784 91.1139 98.0585 93.673 94.7653C94.5083 93.6904 98.6955 87.3686 102.377 83.4541C106.678 78.8814 113.353 69.63 114.732 67.5304C116.146 65.3797 116.86 62.9384 116.786 61.7547C116.772 60.3303 116.859 56.7517 116.558 51.2691C116.257 45.7864 115.829 34.8705 115.607 27.0121C115.172 11.6911 114.771 8.84958 112.571 5.47471C111.955 4.52952 111.45 3.54932 111.45 3.29621C111.45 0.873538 101.52 -0.025098 75.0388 0.000531432ZM72.4786 3.94793C85.1324 3.967 97.218 4.11169 99.4668 4.36741C104.71 4.96371 105.995 5.19662 105.693 5.49899C105.521 5.6701 103.688 5.83452 101.618 5.86444C78.7928 6.20678 56.113 5.54529 32.4302 6.06165C32.1628 6.32911 31.9616 8.04162 31.9819 9.86673C32.0434 15.3481 33.5837 47.082 33.9326 50.0575C34.1178 51.6364 34.0591 53.3765 33.7967 54.1138C33.439 55.1189 33.5152 55.7157 34.1406 56.8053C34.5824 57.5752 34.8271 58.3936 34.6843 58.6246C34.2991 59.248 32.6362 59.1339 32.4167 58.469C30.6919 47.8549 30.0118 35.867 30.0527 20.9016C29.7928 11.1641 29.8528 9.25059 30.4623 7.80532C31.6307 5.03529 32.3783 4.80843 42.084 4.28095C46.6026 4.03538 59.8247 3.92893 72.4786 3.94793ZM108.204 6.04092C108.877 5.98815 109.616 8.007 110.298 11.8022C110.928 15.3118 111.161 19.4348 111.274 29.0862C111.355 36.0574 111.621 45.7369 111.864 50.5966C112.107 55.4563 112.192 59.8637 112.054 60.3908C111.821 61.2842 111.471 61.3512 106.903 61.3685C104.208 61.3787 98.8906 61.4568 95.0882 61.5423C91.2857 61.6277 85.9968 61.5363 83.335 61.3397C66.4203 60.1013 53.2479 60.2378 37.9007 58.5265C37.4158 57.742 40.3965 57.5421 48.2513 57.8334C59.0911 58.2416 72.6248 59.4746 84.4873 59.1053C93.5652 59.1034 99.6091 59.3226 103.324 59.7878C108.404 60.4239 108.856 60.416 109.662 59.6869C110.927 58.6548 109.598 51.4719 109.631 46.1397C109.382 41.957 108.956 33.3495 108.682 27.0121C108.409 20.6746 108.019 14.3831 107.815 13.031C107.538 11.1875 107.601 10.4181 108.066 9.9532C108.831 9.18746 108.868 7.78991 108.14 7.06261C107.84 6.76265 107.741 6.37048 107.921 6.19121C108.014 6.09827 108.108 6.04845 108.204 6.04092H108.204ZM35.3126 9.28075C57.1782 9.4846 75.7121 10.2704 98.6899 9.95589C100.765 9.80394 102.73 9.86278 103.055 10.0864C103.732 10.552 104.99 24.3135 104.995 31.3115C104.997 33.6761 105.201 38.0316 105.45 40.9905C105.698 43.9493 105.957 48.3922 106.026 50.864C106.153 55.4626 106.044 55.7332 104.306 55.1238C104.053 55.0349 94.7194 54.8481 83.5655 54.7088C72.0906 54.5591 58.0088 53.9812 44.7873 53.5358L38.2725 53.5142L37.7432 49.8927C36.3571 40.0378 37.3392 29.9614 36.0985 20.0985C35.954 17.0565 35.7176 13.3778 35.5737 11.9237L35.3126 9.28075ZM32.2987 63.1932L36.2696 63.1977C55.4577 64.1436 76.5051 65.4184 95.0882 65.7552C104.895 65.8954 110.716 66.1473 110.645 66.4277C110.266 67.9106 102.613 78.0952 98.0057 83.0176C92.2584 89.1576 91.5183 93.7127 80.5696 95.2486C75.432 95.7593 55.2608 95.8948 54.9678 95.4206C54.6507 94.9077 59.2216 88.266 60.6948 87.0991C61.7864 86.2346 62.3045 86.1687 66.0511 86.4222C78.9625 87.2956 79.4318 86.5538 83.2324 86.5221C85.2747 86.4737 86.4501 85.2333 87.5327 84.2365C92.563 80.2545 94.6212 77.6543 99.4181 71.3032C99.9521 70.8203 100.389 69.9635 100.389 69.4001C100.389 68.2728 99.2923 67.1098 98.6205 67.525C97.8604 67.9948 89.7179 67.9328 83.1046 67.4062C71.5528 66.4863 60.2425 66.4906 52.8135 65.7867C47.4501 64.8184 41.4966 65.2498 36.8313 64.6012C35.7154 64.0395 33.8582 64.0083 32.7885 65.5707C30.9306 68.1853 26.68 73.6573 23.3273 77.8009C22.049 80.0344 15.8683 84.2244 21.1443 84.2328C24.7196 84.2519 30.1594 84.2128 34.479 84.7694C34.479 84.7694 33.8861 85.5818 33.1611 86.1179C30.8891 87.7977 27.4726 92.7179 27.7662 93.8875L28.0246 94.9165L21.4576 94.8409C9.88961 94.7077 4.74566 94.3642 4.79655 93.7282C4.82188 93.4113 4.87617 92.8929 4.91626 92.576C4.95642 92.2591 6.57677 90.3406 8.51708 88.3126C14.4137 82.1037 21.6605 74.3478 28.517 67.4566L32.2987 63.1932ZM37.3579 67.9886C37.5917 67.9866 37.8529 68.0234 38.1627 68.0903C40.6357 68.6246 40.773 68.7381 39.8074 69.4488C39.3153 69.8109 37.9933 70.1068 36.87 70.1068C34.9911 70.1068 34.8783 70.0422 35.4603 69.3002C36.2057 68.3498 36.6564 67.9942 37.3579 67.9886ZM47.4789 69.185C49.0821 69.185 49.2611 69.2812 48.7671 69.8763C48.1458 70.625 44.1581 70.8673 44.1581 70.1563C44.1581 69.544 45.3855 69.185 47.4789 69.185ZM56.8933 69.185H60.3114L59.5561 70.3373C58.8938 71.3481 58.4721 71.4895 56.1164 71.4895C53.3286 71.4895 52.7174 71.1606 53.1943 69.9178C53.4164 69.339 54.194 69.185 56.8933 69.185ZM65.7846 69.4083C65.9096 69.3969 66.0421 69.3968 66.1834 69.411C67.9492 69.5865 69.0612 69.2209 67.7588 71.0259C67.1032 72.1662 66.5027 72.6174 64.9321 72.2395C63.4771 71.9561 63.0514 71.8079 63.8924 70.7766C64.407 70.1456 64.9098 69.4877 65.7846 69.4083ZM74.3618 69.6072C74.4952 69.6035 74.6337 69.6072 74.7759 69.6208C76.4936 69.7749 77.4646 70.3531 76.4395 71.7183C75.7051 72.6961 75.8738 73.3276 72.7378 72.7778C71.6618 72.6698 71.5676 71.9995 72.1608 70.9953C72.7064 70.0717 73.4279 69.6339 74.3618 69.6072ZM91.8276 69.7143C92.0138 69.7025 92.247 69.7356 92.546 69.8268C93.5954 69.9025 94.2931 69.9019 95.4149 70.1131C95.9989 70.2116 94.9074 72.2614 93.7936 72.3726C92.0767 72.3726 90.4167 72.0676 90.9418 70.6992C91.1364 70.192 91.2689 69.7499 91.8276 69.7143ZM82.5852 69.8044C83.1756 69.7624 83.7861 70.1068 84.761 70.1068C86.7623 70.1068 86.7491 70.067 85.5604 72.523C84.9263 73.8329 84.0509 74.017 81.4077 73.3944C79.3521 72.9101 80.8159 72.1463 81.4698 70.4552C81.8839 69.9939 82.231 69.8295 82.5852 69.8044ZM32.7417 73.3331C34.6472 73.3331 34.9911 73.4576 34.759 74.0623C34.6052 74.4633 34.479 74.8781 34.479 74.9841C34.479 75.2031 32.5747 75.1331 30.6487 74.8437C28.4149 74.508 30.0427 73.3331 32.7417 73.3331ZM41.8535 73.8472C43.2478 73.8258 44.6996 74.0092 45.0799 74.2549C45.9402 74.8109 42.2069 74.8109 40.4708 74.2549C39.5812 73.97 39.8964 73.8772 41.8535 73.8472ZM88.5824 73.8994C89.0441 73.9352 89.6816 74.1108 90.6636 74.3521C91.8154 74.6376 91.1689 75.4839 89.5456 76.8872C87.2691 78.855 87.3477 78.6436 85.6099 78.1898C84.3662 77.865 85.1835 76.6945 85.8331 76.0986C86.4726 75.512 86.396 75.5662 87.5525 74.282C87.834 73.9671 88.1206 73.8635 88.5824 73.8994ZM50.8673 74.5673C51.9761 74.5761 53.5091 74.7578 53.7993 75.0102C53.9049 75.1021 53.0234 75.1768 51.8404 75.1768C50.6574 75.1768 49.6889 74.9894 49.6889 74.76C49.6889 74.6191 50.202 74.562 50.8673 74.5673ZM74.0881 75.5423C74.1654 75.5358 74.2419 75.5423 74.3177 75.5612C76.8796 75.8321 77.2273 75.8444 79.9917 76.1066C82.3933 76.426 79.395 79.3609 78.7017 79.3105C77.1923 79.2008 74.3053 79.1342 72.7603 78.7506C71.683 78.4831 72.9289 75.64 74.0881 75.5423ZM28.2262 77.7765C28.7502 77.9436 29.8527 78.0553 30.6766 78.0251C31.9771 77.9773 32.1745 78.1207 32.1745 79.1088C32.1745 80.6297 33.5692 80.6187 35.2235 79.0854C36.4719 77.9285 36.4987 77.9255 42.7376 78.2222C46.1809 78.3859 53.5691 78.5134 59.1564 78.5048L69.3152 78.4895L68.3889 80.4871C67.47 82.4687 67.4471 82.4821 65.375 82.2965C59.92 81.8142 56.8297 82.3376 47.6149 81.8994C40.1829 81.0887 37.8429 80.8994 30.1355 80.4852C27.6198 80.3501 25.4588 80.1367 25.3329 80.0109C25.721 78.7544 26.7477 77.7267 28.2262 77.7765ZM73.5633 80.7238C75.5653 80.7809 78.0088 81.5561 77.7097 82.2002L76.9823 83.0922C76.6889 83.9844 70.7502 83.52 70.7502 82.6224C70.7502 82.4258 70.9554 81.5794 71.4064 81.1712C71.8347 80.8206 72.6533 80.6979 73.5633 80.7238ZM82.9417 81.6295C83.938 81.6295 83.9286 81.6711 82.6437 83.0122C81.2121 84.5065 80.7921 84.6667 80.3176 83.8989C79.8872 83.2025 81.7061 81.6295 82.9417 81.6295ZM42.12 85.8155C43.4036 85.7939 45.1823 85.8938 47.8894 86.0099L55.7221 86.3456C53.9413 88.8178 52.6564 90.569 51.8098 93.9263C51.8098 95.3839 51.7314 95.4538 50.1733 95.3954C43.6549 95.1198 37.2772 94.3502 31.2527 94.5069C31.2527 94.0819 34.5634 90.3053 36.2201 88.8401C38.8677 86.4985 39.296 85.8629 42.12 85.8155Z" fill="#1A1A1A"/>
</svg>
