<svg xmlns="http://www.w3.org/2000/svg" viewBox="0 0 470.13 365.45"><defs><style>.black{fill:#141414;}.grey{fill:#606060;}</style></defs><g id="Capa_2" data-name="Capa 2"><g id="Capa_5" data-name="Capa 5"><path class="black" d="M410,301.44c-11.29,4.24-22.89,7.61-34.18,11.77s-22.9,8.06-34.35,12C319,333,298.44,345.67,275.3,351.82c-4.63,1.23-9.39,1.95-14.09,2.9-1.36-1.15-2.66-2.4-4.11-3.43-2.41-1.71-5-.28-4.68,1.74.65,3.81-1.41,5.71-3.44,8l-2.5.15c-2.92-.29-5.73,1.74-8.7.4-1.48,3.5-4.43-.06-6.35,1.32-2.63-1.57-4.57-5.17-8.51-2.89-8-.31-15.68-1.76-22.86-5.43-2.1-1.08-4.35-.43-6.53-.61s-4.13-.51-6.21-.6c-.86,0-1.65-1-2.57-.23.21-.2.56-.38.59-.59.13-1.21-.4-1.91-1.69-1.79-6.28.63-12.09-2.08-18.29-2.58-6.8-.54-13.15-3.63-19.47-6.86-7.48-3.84-16.33-4.17-24.7-5.63-16.42-2.86-33-4.79-49.23-8.74-3.33-.81-6.82-.61-10.25-.8-7.62-.42-14.48-2.8-19.1-9.42-.31-.44-.09-1.26-.11-1.9,1.36-.4,2.1-.94.76-2.31-.77-.79-3.73-.52-1.71-2.74,1.17-1.27,3.22-2.52,4.54-.24s2.28,0,3.39.05c1,.76,2,1.53,2,2.95-.78,3.15-4.24-1.13-4.53,1.37s3.4,1.88,4.27,3.92a3.74,3.74,0,0,0,1.41,1.94c1.83.83,3.07,3.56,5.73,1.92,4.49,1.92,8.32.05,6.79-3.38s.75-3.14,2-3.3c2.75-.36,5.74-.76,8.34-.06a98.71,98.71,0,0,0,27.26,3l-.07-.18c.57,1.35,1.86.8,2.84,1.08l1.07.18c1,.25,1.91.55,2.87.74,12.56,2.35,25.17,4.49,37.65,7.19,3.07.66,7.07.42,8.89,4.17a1,1,0,0,0,1.62.39c2.19-2.3,4.18-.54,6.16.24,5.67,2.22,11.14,5.28,17,6.62,6.28,1.44,12.64,2.83,18.92,4.22,9.08,2,18,4.87,27.24,6.2,3,.43,4.9,3.62,8.22,3.06-1.35,3.49-3.86,2.22-5.77,1-2.72-1.7-3-.21-3.13,1.86l-.19.39.13-.45c3.48.4,6.93.42,10.42,1.39,6.69,1.85,8.85.07,7.66-5.27,6.12-2.66,12.13-5.64,18.39-7.91,14.24-5.17,28.44-10.31,42.17-16.83,9.64-4.58,18.74-10.3,28.9-13.8a89,89,0,0,1,9.43-2.24c9.09-2.08,16.32-10.83,27-7.53.39.12.93-.29,1.4-.45,4.05-1.35,8.09-2.72,12.13-4.06,5.59-1.85,10.7-5.05,16.24-6.73a170.39,170.39,0,0,0,21-8.35c7.49-3.39,14.81-7.92,23.61-7.13,2.49.23,3.69-1.39,4.55-3.15.53-1.08,0-2.5,2.17-1.53,3.42,1.55,5.91-1.16,7.18-3.29,1.58-2.67-2.14-2.81-3.53-4.09a4.16,4.16,0,0,1-.64-1.3l.28-.29c.3-.31.61-.66.07-1-.09-.05-.43.28-.66.43-1.72-.81-5.23-1.94-4.4-3,2.66-3.46,0-6.66.6-9.86,4.42,2,9.14,3.36,12.77,6.85,2.15,2.07,4,4.56,7.21,5.22v4c-1.06-.15-1.88-1.42-3.44-.49,1.92,2.31,1.41,5,1.2,7.72-3.54,5.75-10.38,4.9-15.43,7.67-7.83,4.28-16.37,7.29-23.19,13.3-.57.51-.61.7-1.34.2-3-2.07-3.78.67-4.93,2.49-3.11-1.45-7.53.48-9.74,4.26a.65.65,0,0,1-.73.29C411,299.17,410.05,299.44,410,301.44ZM206.2,349.73a1.33,1.33,0,0,0-.13-.35c0-.06-.15-.06-.23-.09l.42.38a6.48,6.48,0,0,0,5.86,2.23C210.86,348.4,208.2,350.11,206.2,349.73Zm-139-27c-.12-.75-.67-1.23-1.32-1.07s-1.33.68-1.39,1.13c-.09.66.63,1,1.36,1A1.2,1.2,0,0,0,67.2,322.72ZM262.09,350h-.89v.26h.89ZM66.49,321.1a7.33,7.33,0,0,0-1.25-.83c-.85-.35-1.13.43-1.23,1,0,.24.57.72,1,.89C65.66,322.41,66.21,322.15,66.49,321.1Z"/><path class="grey" d="M467.89,272c.21-2.69.72-5.41-1.2-7.72,1.56-.93,2.38.34,3.44.49v8Z"/><path class="black" d="M35.24,293.75c-.58-.21-1.66-.41-1.66-.62,0-5.46-3.57-10.11-3.46-15.59a9.46,9.46,0,0,0-2.8-7.38c-2.49-2.53-4.62-5.71-2.08-9.56,1.09-1.66-.34-2.72-.82-4l-.15-.1c3.71-1.18,1.2-5,.89-5.33-3.11-3.1-1-7.31-2.65-10.55s-3.22-6.48-2.2-10.35c.31-1.17-.76-2.1-1.4-3.07-2.32-3.44-3.13-7.05-1.15-11,.41-.82.66-2.62.39-2.75-4.65-2.28-3.26-7.15-4.15-10.68-1-3.82-.93-8-1.87-12-.53-2.23-2.71-5.08,1.31-6.59.23-.08.35-1.32.09-1.76-1.36-2.32-1.26-3.92,1.72-4.62,1-.23,1-1.19,1-2-.08-1.24-1.15-.84-1.86-1-4.31-1.21-4.56-1.43-6.5-5.69,1.74-1.56,3.77,1.91,5.47-.34-1.1-2.22,4.69-4,.89-5.68-2.31-1.06-2.29-3.15-3.85-4.25-.57-2.19-2.45-4.39.74-6.32,1.41-.85-.22-2-.65-2.91C7,142,4.87,134.38,6.37,125.91c.46-2.61-1.7-5.82-.93-8.19,1.75-5.34.24-10.42.08-15.6-.08-2.48,3.35-3.42,2.64-5.92-.32-1.15,1.19-2.88-.73-3.4s-1.79,1.5-2.88,2.92C3.83,92-.48,90.2.64,85.93A3.76,3.76,0,0,0,3.27,84c2.32-1.33,4.05-2.67,3.23-6-.42-1.74.36-3.88,3.29-4.42,1.62-.29,4-.55,5-2.58l4-.15c.87,3.13,2.53,2.86,4.54,1.06l-.1-.06c-1.71,1.51,2,2.75.32,4-2.89,2.17-3.92,6.54-8.26,7l-4.53,1.57L15,85.93a2.34,2.34,0,0,1-.72,2.82c-.58,0-1.22-.14-1.33.65,0,.09.68.27,1,.41l-.73,2c-1.74,1.26-3.3,8.81-2.09,10.37.07.08.8-.35,1.21-.55,1.6,1.63,5.15,3.58,2.86,5.59-3.2,2.81-1.55,6-.6,7.38,2.19,3.14,1.57,6.31,2.16,9.52.95,5.11.81,10.26,1.57,15.33s2.19,9.84,1.3,15.08c-.54,3.12-.62,6.28,1.66,9.55a15.16,15.16,0,0,1,2.13,12.65c-.4,1.51-.7,3.65.82,5.16l.18,9c-.91,3.29,1.65,5.9,1.75,9C26.5,210,28.1,220,29.57,230c.48,3.25-.53,7,.46,9.37a74.35,74.35,0,0,1,4.32,13L33,253c-1.49,3,2,5,1.91,7.1-.18,6.49,4,12.68.68,19.45-1.29,2.62,3.5,5.79,6.44,4.55,2.7-1.15,5.34-2.44,8.09-3.46,6.78-2.5,13.13-6.33,20.58-6.83l2.6-2.13c3,.57,5.94,1.14,8.91,0,2.94.86,4.78-1.69,7.23-2.39,2.88-.82,6.81-1.93,1-4.79-1.4-.69-.66-2-.67-3.1s-.36-2.24-1.57-2.15-1.6,1.11-1.56,2.54c0,1.86,2.07,3.37.85,5.8-2.22-1.53-4.76-2.48-4.13-5.67.58-2.89-1.58-.76-2.33-1.29-1.8-1.29-1.6.81-2,1.64-.85,1.69.55,1.33,1.42,1.53,2.59.59,3.3,1.72.92,3.6l-1.9.46c-5.65-.18-10.55,3.72-16.3,3l-4.84.48a5.67,5.67,0,0,1-.26-5l1.22-1.66c1,.18,2.83,2.83,2.62-.84l-.42-2.13c.93-.31,1.13-.77.84-1.81-1.05-3.72-3.16-7-3.85-10.92-.86-4.84-2.86-9.57-3.09-14.4-.12-2.65-.08-4.2-2.7-5l-.18-1.79c3.69-.24,3.13-3.13,2.54-5.07-.81-2.66-.24-6.58-4.59-7.05v-1.9c.74-.16,2-.16,2.12-.52.23-.76-.62-1.26-1.36-1.54-1.22-6.11-1.49-12.44-2.39-18.44-1.43-9.45-1-18.93-2.47-28.29,1.31-2.14,2.68-4.3-1.39-4.94-.86-2.95-1.81-5.89-.89-9a8.39,8.39,0,0,0-1.2-10.21c-2.11-1.73-2.31-4.19-2.34-6.6a46,46,0,0,0-3-14.49c2-1.09.5-2.44,0-3.33-1.84-3.24-6.24-3.46-8.21-6.64-.34-3.38,4-3,4.48-5.32.74-3.83,3-3.08,5.43-2.49.56,1.16-.58,4.7,1.94,3s4.78-2,7.19-2.84c1.9-.68.86-1.72.33-2.69l.28-.19c2.66,0,5.35-.29,8.32.51-3-.3-3.28-1.59-1.85-3.58l1.64-.54c1.61-.4,3.2-.87,4.26-2.29,5.85.49,9.87-4,15-5.5,3.4-2,8.28.54,10.93-3.64,4.94-2.77,9.85-5.12,15.91-3.85,1.62.34,4.54-.28,5.09-2.94.69-3.37,2.06-3.16,4.14-1.17,1.18,1.14,2.28.41,3.55,0,5.62-2,11.2-4.42,17.13-5.22a37.27,37.27,0,0,0,11.18-3.28c.45,1,1.57,1.83,1,3.17l.05-.06c-.91.4-.85,1.29-1,2.06-2.37-.26-1.81,2.69-4.07,3.32-7.73,2.16-15.24,5.07-22.83,7.7-1.2-.08-2.41-.2-3.12,1.11-4.4.58-8.49,2.23-12.67,3.58-2.46,1-5.63-.3-7.54,2.42-3,2.23-7.22,0-10.17,2.62-1.49.72-4.65-.51-3.63,3.12l-2,.77C78,95.66,77,96,75.77,96.53c-2.46,1-4.8,2.6-7-1-1.14-1.83-5,.12-4.85,2.63a2.54,2.54,0,0,1-1.78,3l-8,3.8c-3.4,1.81-5.78,5.42-10.19,5.49-.77,0-2,1.29-1.11,2.17,4.28,4.07,2.11,10.29,5.13,14.76.66,1-2.06,2.37.52,3.6,4.78,2.27-.3,8.67,4.36,11.2-.23.19-.56.34-.65.58-1.62,4.32-4,8.63-.2,13.05.73.84,1.74,1.62,1.28,3-1.78,2.82-.47,5.45.52,8.1-.85,3.66-1,7.28.57,10.81-.75,3,.8,4.76,3.17,6.12.85,2.57-.32,6,3.5,7.28a1,1,0,0,1,.1,1.95c-3.81,1.64-1.77,4.43-.74,6.08,4.69,7.53,3,16.35,4.79,24.43,1.08,5,.81,10.81,1.8,16.2l-.93.6,1.22.21-1,1.74c-.38,1.36-2.46,3.19,1,3.5,1.25,1.06,1.1,2.44.88,3.84-1.32.4-3.68.3-3.14,2.1s-1.08,4.66,2.33,5l.05,2c.74,6,3.21,1.44,5,.82l3,.22c1.75-.74,3.48-1.54,5.26-2.19s3.15-1.61,2.69-3.84c4.53-.56,8.77-4.56,13.71-1.1.43.31,2-.35,2.55-1a30.72,30.72,0,0,1,16.72-9c1.14,1.31,1.93,1.42,2.13-.6l1.91-.11c.53.93,2.77,1.06,1.27,2.94-.74.92-2.09,2.58.31,2.6,1.34,0,3,2.26,4.71-.77s4.82-5.07-1.42-5.61l.2-1c1.36.56,2.73-.31,4.26.36,1.82.8,3-1.54,3.14-2.51.32-2.84,0-3.43,2.54-3.42,4,0,7.71-2.85,11.95-1,1.08.47,2.77-.41,4.22-1,3.65-1.46,5.91-6,10.59-5,2.84-.94,6.41,3.21,8.53-.54,2.32-4.11,3.89-1.61,5.85-.11-.21,1.65-3.38,1.57-2.3,4a18.3,18.3,0,0,1-1.7,1.71c-1.18.94-2.64,2.06-1.67,3.54s2.21-.86,3.48-.4l0,0c-.38,3.11-2.95,2.65-5,3-1.81-3.23-5.37-.77-7.69-2.38-.29-.95-.47-1.89.58-2.55.95-.33,2.34.31,2.72-1.21,0-.14-.35-.54-.57-.57-1.33-.16-2.12.38-2.11,1.82-2.93,0-6.43-3.09-8.6,1.54,4.69,1.42,4.69,1.42,8,1-.05,1.41-1.34,3.53,1.95,2.78a37.73,37.73,0,0,1,5.76-.43c.77,1.72-6.78.33-1.41,3.76a5.8,5.8,0,0,1-.59.79c-2.61,2.73-8.32,1.66-9.78-2-.45-1.12-.76-1-1.68-.85-3.31.4-6.57.85-9.57,2.43-.54.29-1.43.19-1.41,1.09s.77,1.41,1.64,1.49c1.16.1,2.35-.07,3.48.14,1.58.29,3.54-.52,4.69,1s-1.41,2.8-.63,4.64c1.3-.37,2.55-.69,3.78-1.1,3.47-1.17,3.44-1.2,5.77-4.05.26-.32.87-.39,1.33-.53,6.44-1.84,12.83-3.89,19.34-5.44,5.5-1.31,10.09-5.1,15.45-6.09,7.3-1.35,13.41-5.07,19.73-8.31,1.62-.83,4.6-1.28,4.84-4.18.43-.93,1.21-.81,2-.68,3.4,2.37,5.46.43,7.27-2.28,7.17-1.34,14.24-3,20.5-7a65.6,65.6,0,0,1,15-7.09c1.3-.42,3.17-1.69,3.28-2.73.62-5.51,6-9.27,5.06-15.4-1-6.51.39-13.12.05-19.76-.21-4,.18-8-1.06-12.07-3.27-10.68-9.49-20.72-7.25-32.63l.09-7.23c.55-3.21-1.07-6.94,2.48-9.44,1.17-.83-.15-1.68-.49-2.51-.42-1-2.29-1-1.91-2.57,1.3-5.27-1.64-10.31-.81-15.59.2-1.24,1.44-2.31.63-3.74-2.75-4.89-1.13-10.26-1.77-15.36-.49-3.91,1.87-7.46.38-11.42A68,68,0,0,1,263.08,34c-.13-1.61.46-3.58-2-4.05h0c-1-1.4,2.55-2.93.24-3.87-3.25-1.32-4.11-4-5-6.78l1.65.35c.93.27,1.92,1.76,2.76.28.5-.88,1.22-2.42-.73-3l-1.81-1.09c.1-1-.5-1.24-1.3-1.31A2.23,2.23,0,0,1,255,12.85c1.76-1.91-.87-3.52,0-5.27-1.94-.39-1.54,2.25-2.62,1.81-4.47-1.81-8.05-.22-9.21,4.37a82.47,82.47,0,0,0-8.06,3.13c-6.27,3.19-14,3-19.33,8.4a2.26,2.26,0,0,1-1.84.19c-1.51-3.34-4.41-.94-5.22-.38-5.33,3.72-11.43,4-17.45,4.75a50.48,50.48,0,0,0-10.86,2.22c-.54,1.27-1.65,1.18-2.75,1.14-.82-.46-1.42-.43-1.48.7-3.14,1.33-6.66-.75-9.74,1.07-1.22-.56-3-1.95-3.58-1.56C157,37.07,150,37.81,144.09,41.37c-2.07.43-5.39.25-6,1.43-1.71,3.45-4.12,1.6-6.28,1.72a6.65,6.65,0,0,0-4.25.09l-4.27.24c-2.26-1-3.69.38-5.12,1.77-2.74,2.4-6.43,1.21-9.56,2.64-7.89,3.61-16,6.69-24.07,9.94-.72.29-2.07.64-2.28.35-2.45-3.35-4.27-1-5.33.91s-2.38,2-3.88,2.35c-6.86,1.69-13.45,4.28-20.34,6S39.45,74.6,31.85,74.5c-1.33,0-3,1.33-4.13.13-1.73-1.87,1.83-2.88,1.22-4.76,2-.09,2.43-3.78,5.13-2.24.58-1.7,3.78-2.28,2.12-4.94,2.08-2.58,5.16-3.11,8.09-3.94,2,1.38,3.82,1.84,5-1,1.62,0,2-2.66,4-1.94a4.26,4.26,0,0,0,5,2.94c.12.7-.21,1.67,1,1.73.21,0,.61-.31.61-.48,0-1.07-.86-1.08-1.61-1.21-.7-1.07-2.31-2.17.12-3.11,2.55-3.63,6.52-2.12,9.89-2.74,2.32,1.67,7.11-.14,8.06-3,6.59-2.52,13-5.8,19.81-7.37,9-2.09,17.36-6.1,26.44-8.12,6.21-1.37,12-4.86,18.71-4.33,2.86,1.06,1.5-1.38,1.94-2.33s1.3-.72,2-1c2.25.9,4.08-.51,6.07-1.08l4.85,1c3.77.68,4.79-3.05,7.23-4.51l4.85-.36c3.92,1.17,7.71,1.51,11-1.64,4.66.4,8.24-3.54,12.88-3.18.31,1.11-1.33,1.94-.21,3.53,1.39-2.14,6.07-.18,5.24-4.91C206,13,214.83,10.24,223.77,7.83c2-.53,4.54-2.41,6.52.35.3.42.53.56.64.09,1-4.51,6.41-3.44,8.56-6.65A4.89,4.89,0,0,1,242.92.07c6-.38,11.51.68,14.91,6.46,2.15,3.65,6.24,4.82,9.34,7.25,1.09.85,3.21,1.44,1.86,3.28-2.39,3.27,1,2.75,2.17,3.71-1,.94-1.31,1.9-.06,2.89-2.09,1.09-.07,2.13,0,3.19.59,2.31,1.82,4.46,1.11,7.06-.41,1.53,1.23.5,1.77,1C272,40.49,272.55,45,278.65,48c2.22,1.1,2.44,4.68,2.16,6.74-.48,3.57.86,6.58,1.26,9.85.85,7,1.42,14,2.93,20.9,2.38,10.86.27,21.78.17,32.68-.05,5.85,1.13,11.76,1.24,17.68,0,.45.64.89.62,1.33-.11,2.93,3.56,1.67,3.92,3.33.59,2.68-3.24.62-3.81,3.11-.71,3.12,1.69,4.48,3.18,5.06,4.58,1.78,4.77,6.14,4.62,9.18-.47,9.18,2.57,18,2.13,27.09-.25,4.91-2.7,9.7-.79,14.71-1.66,2.85-6.36,2-7.16,5.92-1.76-.08-2.58,1.48-3.87,2.21-5.86-2.36-5.86-2.36-6.1,2.9v0l-1,.87q-.37.13-.75.3l-1.2-.11-.26-.22.3.18-.14,2.75c-2.37.68-5.33-.28-6.9,2.64-.5.94-1.19.61-1.91-.14-2.66-2.77-4.89-2-6.24,1.51-.32.82-.56,3.36-1.92,2.61-4-2.24-6.34,1.48-8.15,3-4.58,3.72-10.42,4.56-15,7.9-.61.45-.69.37-1.2-.38-1.73-2.54-3.92-1.09-4.28.71-.57,2.83-2.05,2.28-3.37,1.42-2.35-1.52-3.45-.28-4,1.62a3.3,3.3,0,0,1-2.35,2.62c-8.69,3.13-17.63,5.46-26.08,9.43a36,36,0,0,1-11.09,3.15c-3.59.38-7.78-.88-9.51,3.94-3.33-1.55-5.82,1.28-8.78,1.73a31,31,0,0,0-18.4,9.33,27.23,27.23,0,0,0-10.64,4.28,7.74,7.74,0,0,0-2.47.13c-8.05,3.19-16.11,6.28-24.68,7.85-4.65.86-8.57,4.86-13.82,3.26-8.09,5.7-18,7.11-26.71,11.37-1.31.64-2.91.64-3.49,2.31a.62.62,0,0,0-.87.06c-3-.19-6.06-.36-8.88,1.13a1.17,1.17,0,0,0-1-1.2l.44-1c1.28.17,2.09-.77,1.46-1.57-1.11-1.38-2.52-.56-3.65.44-2-1-4.36-2.51-6.08-1-2.18,1.89-.53,4.34.74,6.39l.18,1.86c1.17,3-3.75,1.14-3,3.79-.19,1,.68,2.55-.87,3-1.4.39-1.7-.87-2.31-1.93a42.78,42.78,0,0,0-3.93-4.94,3.58,3.58,0,0,1-.25-1c3-.8,3.1-4.09,5-5.85.64-.57,0-1.91-1-2.43-1.53-.76-1.59.41-1.77,1.37C38.82,294.39,36.61,293.17,35.24,293.75Zm104-45.05a4.74,4.74,0,0,1,1.47.09c1.26.51,2.28.46,2.74-1A2.24,2.24,0,0,0,142,245c-1.88-.82-3.28.78-4.24,1.84s1.75.59,1.51,1.88l-.22.21Zm-38.93,13.08c-1,.67-1.67,1.12-2.35,1.5-1,.58-3.13.28-2.41,2.3.55,1.56,2.35,1.18,3.53.95a61,61,0,0,0,7.44-2.44c1.78-.6,2.74-3.19,2.69-5.5,0-.92-.57-1.82-1.46-1.7a71.12,71.12,0,0,0-14.48,3.42C95.61,263.09,97.83,259.88,100.31,261.78Zm6.44,4.39c-.25.38-1,1.18-.85,1.34,1.36,1.79,2.82,3.49,2.54,6a2.5,2.5,0,0,0,2.07-.72,2.22,2.22,0,0,0-.19-3.13C109.2,268.53,109,266.5,106.75,266.17Zm40-28.55c1.22,1.22,2.08-.79,3.52-.31,2.27.76,2.82-1.42,1.42-2.28-1.76-1.09-3.41,1-5,2.1C146.68,237.18,146.76,237.45,146.77,237.62ZM76.59,261.71c-2.91.28-4.5.73-5.85,2.39C73.09,265.14,74.54,264.38,76.59,261.71ZM109.17,84.76l.82-.39c-.11-.12-.22-.34-.34-.34a4.31,4.31,0,0,0-.86.11ZM77.75,261.51l.15-.26-.25,0Z"/><path class="black" d="M336,215.83c2.08,3.2,5.31,2,8.18,2.12,2.65,4.2,5.38,2.18,8.11.1a5.25,5.25,0,0,1,4.8,5.75c-.15,3.53,1.81,3,3.94,2.83,2.05.16,3.26-1.15,4.44-2.52l.31.24a1.43,1.43,0,0,0-.36,1.76c1.81,4.13,5.1,4.94,11.71,2.85,5,1.13,10.07,1.52,14.64,4.42,1.83,1.16,4.8.39,7.17.87,2.07.43,4.95.22,4.81,3.68,0,1,.73,1,1.28.89,5.39-1.42,9.75.4,13.56,4.13.58.57,1.19.94,2.07.18,2.29-2,4.56-.35,6.52.54,3.93,1.78,7.65,3.49,11.84.75a4.37,4.37,0,0,1,5.1.34c-1.36,3.35-.5,6.2,2.13,8.51,1.33,1.17.34,3,1.35,4.14-.61,0-1.63.3-1.75.07-3.26-6-3.36,0-4.71,1.22l-6-1.11c-4.61-3.91-11.08-2.73-16-5.84l-.36-.21.4.17-1.09,1.81-1.95.07c.77-2.34-.56-3.22-2.54-3.7-5.69-1.4-11.06-4-16.93-4.67a14.52,14.52,0,0,0-5.4-2.4,2.74,2.74,0,0,0-3.1,1.77l-3-1c-.45-3.76-3.76-3.65-6.26-4.63-4.28-1.11-7.66-5-12.59-4.08-.68.19-1.79-.07-1.61,1.11,0,.3,1,.46,1.6.68l1.14,1a1.67,1.67,0,0,0-1.36,1.85c-1.76.94-3.43-.82-3.68-1.4-2-4.47-5.31-4.44-9.15-3.34-2.92.17-4.29-5.61-8.09-2.11a3.7,3.7,0,0,1-.87-.22c-3.77-4.64-9.16-6.37-14.55-8.12-4.58-1.79-9.57-2.54-13.75-5.36.18-1.58-2-2.08-1.87-3.27.68-6.84-5.75-6.41-9.07-7.86-4.07-1.78-5.53-4.93-7.76-7.87,5.78.75,10.49,4.26,15.85,6.09,1.92,3.06,4.37,3.43,7.29,1.44a1,1,0,0,1,.77.21c.32,1.32-.67,3.38,1.35,3.76C327.24,212.36,331.08,215.75,336,215.83Zm81.07,29c.54,1.15,1.68,1.3,2.17.43s-.75-1-1.42-1.2c-.82-1.29-1.85-.76-2.85-.31-.2.09-.48.45-.44.52C415.17,245.28,416.2,244.7,417.07,244.82ZM423,246c-.83-.35-1.42-.62-2-.83s-.69.41-.87.8a7.79,7.79,0,0,0,1.68.63C422.06,246.68,422.44,246.31,423,246Z"/><path class="grey" d="M297.29,200c2.23,2.94,3.69,6.09,7.76,7.87,3.32,1.45,9.75,1,9.07,7.86-.12,1.19,2.05,1.69,1.87,3.27-4.35-3.35-10-3.35-14.73-5.61a4,4,0,0,1-1.71-1.74c-2.2-4.26-4.95-7.47-10.43-6.06.8-3.9,5.5-3.07,7.16-5.92Z"/><path class="grey" d="M441.14,258.7c1.35-1.2,1.45-7.22,4.71-1.22.12.23,1.14,0,1.75-.07-1-1.19,0-3-1.35-4.14-2.63-2.31-3.49-5.16-2.13-8.51,2.1,1.16,5.45.4,6,3.9-.61,3.2,2.06,6.4-.6,9.86-.83,1.07,2.68,2.2,4.4,3,.19.2.39.39.59.57l-.28.28C449.41,262.86,445.31,260.63,441.14,258.7Z"/><path class="grey" d="M18.76,70.84l-4,.15c.95-5,5.75-4.21,8.87-5.22,1.94-.62,4.34,1.27,6.38-1.66.9-1.28,4-1,6.14-1.42,1.66,2.66-1.54,3.24-2.12,4.94-2.7-1.54-3.13,2.15-5.13,2.24-2.36-.64-4.89-1.77-5.74,2l.1.06C22,70.75,21.13,67.5,18.76,70.84Z"/><path class="grey" d="M271.14,23.66c-1.25-1-.93-1.95.06-2.89.92-1.6-1.2-5.4,2.31-4.74,2.51.48,2.58,3.92,1.69,6.22-.69,1.8-.75,2.85.56,4.46,2.56,3.16,1.26,5.93-1.7,8.16-.54-.46-2.18.57-1.77-1,.71-2.6-.52-4.75-1.11-7.06a2,2,0,0,0,2.25-2C273.46,23.44,272,23.93,271.14,23.66Z"/><path class="grey" d="M336,215.83c-4.92-.08-8.76-3.47-13.45-4.35-2-.38-1-2.44-1.35-3.76C326.74,205.46,335.12,210.05,336,215.83Z"/><path class="grey" d="M37.27,299.72a42.78,42.78,0,0,1,3.93,4.94c.61,1.06.91,2.32,2.31,1.93,1.55-.44.68-1.95.87-3,2.23,1.53,5.21,2.42,5.1,5.95-1.11,0-2,2.34-3.39-.05s-3.37-1-4.54.24c-2,2.22.94,1.95,1.71,2.74,1.34,1.37.6,1.91-.76,2.31C37.16,311,38.91,304.78,37.27,299.72Z"/><path class="grey" d="M249,361c2-2.25,4.09-4.15,3.44-8-.34-2,2.27-3.45,4.68-1.74,1.45,1,2.75,2.28,4.11,3.43-1.48.31-2,2.39-3.89,2-.84-.32-1.46-1.41-2.59-.73s-.4,1.4-.35,2.14Q253.92,363.78,249,361Z"/><path class="grey" d="M377.13,229c-6.61,2.09-9.9,1.28-11.71-2.85a1.43,1.43,0,0,1,.36-1.76c1.81,2.28,4.46,1.89,6.91,2.3C374.34,226.92,376.09,227.35,377.13,229Z"/><path class="grey" d="M35.24,293.75c1.37-.58,3.58.64,4-1.9.18-1,.24-2.13,1.77-1.37,1.06.52,1.66,1.86,1,2.43-1.94,1.76-2.07,5-5,5.85C34.25,297.86,35.78,295.44,35.24,293.75Z"/><path class="grey" d="M320.43,207.51c-2.92,2-5.37,1.62-7.29-1.44-.43-1.9.81-3.16,2.26-2.94C317.76,203.49,319.89,204.76,320.43,207.51Z"/><path class="grey" d="M10.38,158.78c1.56,1.1,1.54,3.19,3.85,4.25,3.8,1.73-2,3.46-.89,5.68C10.7,165.89,7.39,163.27,10.38,158.78Z"/><path class="grey" d="M179.23,20.25c-3.27,3.15-7.06,2.81-11,1.64A17.89,17.89,0,0,1,179.23,20.25Z"/><path class="grey" d="M352.29,218.05c-2.73,2.08-5.46,4.1-8.11-.1A8.6,8.6,0,0,1,352.29,218.05Z"/><path class="grey" d="M237.78,361.54c3,1.34,5.78-.69,8.7-.4-.62,1.53.84,1.93,1.49,2.77l.08-.05c-2.42-2.07-4.93-.86-7.28,0S236.77,364.93,237.78,361.54Z"/><path class="grey" d="M413.26,299.87c2.21-3.78,6.63-5.71,9.74-4.26C420.49,298.73,416.42,298.26,413.26,299.87Z"/><path class="grey" d="M222.92,360c3.94-2.28,5.88,1.32,8.51,2.89-.61,2.07-.85,3.9-3.64,1.32C226.25,362.77,224.53,361.4,222.92,360Z"/><path class="grey" d="M76.34,49.94c-1,2.89-5.74,4.7-8.06,3C70,49.45,73.64,50.91,76.34,49.94Z"/><path class="grey" d="M163.4,22.25c-2.44,1.46-3.46,5.19-7.23,4.51-.57-1.23-2.58-2.7.7-3.16C159.07,23.29,161.22,22.71,163.4,22.25Z"/><path class="grey" d="M3.27,84a3.76,3.76,0,0,1-2.63,1.9,3.48,3.48,0,0,0,0-1C-.15,82.69-.66,79.54,2,79.32S2.52,82.45,3.27,84Z"/><path class="grey" d="M197.14,15.69c.83,4.73-3.85,2.77-5.24,4.91-1.12-1.59.52-2.42.21-3.53C194.32,18.52,195.21,15.22,197.14,15.69Z"/><path class="grey" d="M49.29,57.78c-1.19,2.81-3,2.35-5,1C45.24,54.75,47.31,56.49,49.29,57.78Z"/><path class="grey" d="M58.39,55.71c-2.43.94-.82,2-.12,3.11l0,0a4.26,4.26,0,0,1-5-2.94C54.94,54.42,56.63,53.72,58.39,55.71Z"/><path class="grey" d="M365.47,224.11c-1.18,1.37-2.39,2.68-4.44,2.52C361.05,223.23,362.76,222.79,365.47,224.11Z"/><path class="grey" d="M151.32,25.75c-2,.57-3.82,2-6.07,1.08C147.09,25.4,149.05,24.73,151.32,25.75Z"/><path class="black" d="M254.38,358.12c0-.74-.64-1.56.35-2.14s1.75.41,2.59.73Z"/><path class="grey" d="M143.24,27.79c-.44.95.92,3.39-1.94,2.33C142,29.42,142,28.08,143.24,27.79Z"/><path class="grey" d="M410,301.44c0-2,.93-2.27,2.49-1.28Z"/><path class="grey" d="M248,363.91l1.11.14c-.09,0-.19.1-.26.08-.26-.08-.51-.19-.77-.28Z"/><path class="black" d="M24.42,256.59l-.24.09a1.62,1.62,0,0,0,.1-.18Z"/><path class="grey" d="M51.48,312.5c1.62,2.11,4.19,2.18,6.65,2.95l.5-4.46c2.95,1.64,3.79,3.64.93,5.62-2.22,1.54,2.17,4.14-1.2,5-2.66,1.64-3.9-1.09-5.73-1.92a3.74,3.74,0,0,1-1.41-1.94c-.87-2-4.55-1.57-4.27-3.92S50.7,315.65,51.48,312.5Z"/><path class="grey" d="M241.27,352.62c1-.68,1.51-2,3-1.85,1.19,5.34-1,7.12-7.66,5.27-3.49-1-6.94-1-10.42-1.39l.06.06c.17-2.07.41-3.56,3.13-1.86,1.91,1.19,4.42,2.46,5.77-1a4.51,4.51,0,0,1,4.06.86c.26.36.46.95.79,1C240.75,353.88,241.17,353.36,241.27,352.62Z"/><path class="grey" d="M102.74,317.91c-.85-2.41-3.6-1.59-5-2.85a7.61,7.61,0,0,1,8.82,3.93l-1.07-.18c0-2.84-1.87-.78-2.84-1.08Z"/><path class="grey" d="M206.2,349.73c2,.38,4.66-1.33,5.92,2.17a6.48,6.48,0,0,1-5.86-2.23Z"/><path class="grey" d="M262.09,350v.27h-.89V350Z"/><path class="grey" d="M206.26,349.67l-.42-.38c.08,0,.19,0,.23.09a1.33,1.33,0,0,1,.13.35Z"/><path class="grey" d="M226.19,354.65l-.13.45.19-.39Z"/><path class="grey" d="M454,261.53c.23-.15.57-.48.66-.43.54.33.23.68-.07,1A7.7,7.7,0,0,1,454,261.53Z"/><path class="grey" d="M174.14,230.9c1.53,2.22,3.25,2.22,6.07,2.27,5,.08,8.7-1.9,12.76-3.84,1.85-.88,4.72-.27,3.67-4a1.8,1.8,0,0,1,2.55-2c3,1,7.09-1.79,9,2.73.06.15.59.1.91.14-.6-5,6.5-1.22,6.75-5.89,0-.87,3.64-2,5.68-2.2s2.63,1.59,2.7,3.41c-.24,2.9-3.22,3.35-4.84,4.18-6.32,3.24-12.43,7-19.73,8.31-5.36,1-10,4.78-15.45,6.09-6.51,1.55-12.9,3.6-19.34,5.44-.46.14-1.07.21-1.33.53-2.33,2.85-2.3,2.88-5.77,4.05-1.23.41-2.48.73-3.78,1.1-.78-1.84,1.73-3.13.63-4.64s-3.11-.74-4.69-1c-1.13-.21-2.32,0-3.48-.14-.87-.08-1.63-.48-1.64-1.49s.87-.8,1.41-1.09c3-1.58,6.26-2,9.57-2.43.92-.12,1.23-.27,1.68.85,1.46,3.64,7.17,4.71,9.78,2a5.8,5.8,0,0,0,.59-.79c-5.37-3.43,2.18-2,1.41-3.76l-.05,0c2.05-.39,4.62.07,5-3l.54-.38c-.11,0-.27,0-.32,0a1.57,1.57,0,0,0-.19.39c-1.27-.46-2.58,1.76-3.48.4s.49-2.6,1.67-3.54A18.3,18.3,0,0,0,174.14,230.9Z"/><path class="grey" d="M144.23,67.66c.46-1.29,1.81-1.47,2.76-1.71,1.64-.41,3.36-.3,3.61-2.57.3-2.62-2.2-1.29-3.08-2.23a2.42,2.42,0,0,1-.69-1.6c1.78,2.08,5.66-3.32,6.75,2.66.39,2.11,4.23,2.76,6.27,1,1.13-1,2-1.79,3.23-1.28,4.23,1.7,7.67.69,10.53-2.69a2.81,2.81,0,0,1,3.21-.66c2.68.74,4.88,1,6.78-1.93,1-1.64,4.55.07,5.22-.55,3.88-3.56,9-3.69,13.42-5.57,3.67-1.55,7.42-2.91,11.13-4.35,0,2.83-1.6,4.09-4.16,4.7-3.67.87-6.08,2.8-5.11,7.09-4.21,2.69-9.77,2.46-13.44,6.47-1.58,1.72-3.45,0-4.95-.74-2.75-1.25-4.63-1.32-5.13,2.27,0,.26-.76.72-.88.64-4-2.53-8.06.61-12.32-.18-4.1-.77-9,2.24-11.7,4.88-4.1,4-7.63,1.43-11.43,1.52.17-.77.11-1.66,1-2.06a1.4,1.4,0,0,0,.19.41c0,.06.2,0,.31,0l-.55-.39C145.8,69.49,144.68,68.68,144.23,67.66Z"/><path class="grey" d="M166.46,35c.16,1.05,2.54,2.85.24,3-6.25.37-3,3.28-1.57,6.12-3.12-1.49-5.51-3.25-6.14,2.08-.35,2.94-3.81,3.85-7.13,2.92s-1.43-2.85-.88-4.23c.7-1.79-.24-2-1.49-2.23-1.8-.39-3.6-.83-5.4-1.25,5.87-3.56,12.93-4.3,18.79-7.95C163.51,33,165.24,34.42,166.46,35Z"/><path class="grey" d="M259.14,120.91l5.05-1.46c-2.84-2.5-3.9-5.45-3-8.9.52-1.94,1.6-3.12,3.93-2.55,1.58.38.81.36.35,1.44-1.8,4.2-.75,5.48,3.66,5.27l-.09,7.23c-3.64,1-3.95,5.73-7.6,6.7C255.51,125.05,255.51,125.05,259.14,120.91Z"/><path class="grey" d="M53.25,158.77c3.12-.12,4.81.46,5.25,4.46.78,7,1.62,14.08,2.06,21.52-1,.81-1.85-1.09-3.05-.95-2.37-1.36-3.92-3.15-3.17-6.12,1.46-.21,3.47-.19,2.84-2.37-.88-3,.76-6.44-1.45-9.15-.33-.41-.9,1.47-2,.71C52.78,164.22,51.47,161.59,53.25,158.77Z"/><path class="grey" d="M65.07,294.72c3.57-.86,6.09,2.25,9.61,2.44,3.37.19,6.79.94,10.3.81-.79,1.51-4.74,1.11-2.34,4.55.35.5-2.49,3.28-4,4.9-.16.17-1.34-.23-1.66-.65-.66-.88.54-.78.83-1.19,1.61-2.27,2.29-4.62-1.76-3.89-6.17,1.13-10-1.09-11.88-6.91A.62.62,0,0,1,65.07,294.72Z"/><path class="grey" d="M61.43,261.71c-4.28-2.95-5.23-7.85-6.14-12.26-1.34-6.51-2.78-13.1-2.66-19.85,2.62.78,2.58,2.33,2.7,5,.23,4.83,2.23,9.56,3.09,14.4.69,3.89,2.8,7.2,3.85,10.92C62.56,260.94,62.36,261.4,61.43,261.71Z"/><path class="grey" d="M100.31,261.78c-2.48-1.9-4.7,1.31-7-1.47a71.12,71.12,0,0,1,14.48-3.42c.89-.12,1.44.78,1.46,1.7.05,2.31-.91,4.9-2.69,5.5a61,61,0,0,1-7.44,2.44c-1.18.23-3,.61-3.53-.95-.72-2,1.39-1.72,2.41-2.3C98.64,262.9,99.28,262.45,100.31,261.78Z"/><path class="grey" d="M78.26,97.47c-7.25,2.87-14.51,5.68-21.72,8.64-1.54.63-2.54,1.11-2.43-1.19l8-3.8a2.54,2.54,0,0,0,1.78-3c-.17-2.51,3.71-4.46,4.85-2.63,2.24,3.59,4.58,2,7,1C77,96,78,95.66,78.26,97.47Z"/><path class="grey" d="M81.31,267.38c2.38-1.88,1.67-3-.92-3.6-.87-.2-2.27.16-1.42-1.53.42-.83.22-2.93,2-1.64.75.53,2.91-1.6,2.33,1.29-.63,3.19,1.91,4.14,4.13,5.67,1.22-2.43-.81-3.94-.85-5.8,0-1.43.22-2.44,1.56-2.54s1.57,1.15,1.57,2.15-.73,2.41.67,3.1c5.84,2.86,1.91,4-1,4.79-2.45.7-4.29,3.25-7.23,2.39C83.89,269.82,79.45,269.25,81.31,267.38Z"/><path class="grey" d="M146.88,265.52c1.39,2.8,2.88,5.53,3.3,8.75.12.93,1.72,1.73.11,2.7-.66.4-1.73.91-2.22.65-1.26-.7.73-1.71.14-2.4-1.6-1.88.95-5.37-2.94-6.32.4,4.56-3.22,3.54-6,4.17-3.25.73-1.73-2.49-3-3.27A27.23,27.23,0,0,1,146.88,265.52Z"/><path class="grey" d="M162.06,227.59c.25-.59.7-1.71.72-1.7,5.05,1.93,6.17-4.11,9.56-4.67,1.81-.31,4.2,1.63,6.84,1.62-1.68,1-.77,3.4-2.74,4.1-2-1.5-3.53-4-5.85.11C168.47,230.8,164.9,226.65,162.06,227.59Z"/><path class="grey" d="M255,12.85l-11.85.91c1.16-4.59,4.74-6.18,9.21-4.37,1.08.44.68-2.2,2.62-1.81C254.17,9.33,256.8,10.94,255,12.85Z"/><path class="grey" d="M76.3,87.81c-1.8-1.91-.77-4.06.38-5.36s2,.47,2.84,1.53c1.06,1.3,1.61,0,2.55-.75,1.75-1.46,4.12-3,5.16.94C84.58,88.35,79.7,85.85,76.3,87.81Z"/><path class="grey" d="M226.25,220.87c-.46-1.28.69-2.09.92-3.17.36-1.65-1.22-4.4,1.91-4.52,2.65-.11,3.76,2.1,4.36,4.43a6.27,6.27,0,0,1,.08,1C231.71,221.3,229.65,223.24,226.25,220.87Z"/><path class="grey" d="M191.29,29.85c.24,2.47,1.64,5.68-3.35,4.34-1.37-.37-1.44,1.51-1.95,2.68.66-2.51,1.13-4.74-2.71-4.09-.92.16-2.23.8-2.85-.71A50.48,50.48,0,0,1,191.29,29.85Z"/><path class="grey" d="M120.29,241.94c1.21-1.95,3.43-1.05,5.07-1.8l-.2,1c6.24.54,3.06,2.61,1.42,5.61s-3.37.78-4.71.77c-2.4,0-1.05-1.68-.31-2.6C123.06,243,120.82,242.87,120.29,241.94Zm3.27,1.32.27.18,0-.29Z"/><path class="grey" d="M24.23,181.88c1.31.46,4-2,3.77,1.84-.1,1.75,2.31.8,2.89,2.14-3.69-.26-3.07,4.94-6.48,5Z"/><path class="grey" d="M37.51,119.75c-.25-4.73-4.6-3.52-7.15-4.68-2.31-1-4.11-1.49-1.63-4.12a4,4,0,0,0,.57-1.17c2,3.18,6.37,3.4,8.21,6.64C38,117.31,39.48,118.66,37.51,119.75Z"/><path class="grey" d="M52.45,227.81c-1.6-3.88-1.08-8.13-2.05-12.12,4.35.47,3.78,4.39,4.59,7.05C55.58,224.68,56.14,227.57,52.45,227.81Z"/><path class="grey" d="M261.11,29.92c-4.07-1.28-5.62-4.51-6.56-8.31-.43-1.73.77-1.89,1.79-2.34.9,2.82,1.76,5.46,5,6.78C263.66,27,260.15,28.52,261.11,29.92Z"/><path class="grey" d="M70.69,273.84c-1.72-1.63-3.85-1.62-6-1.34-1.48.19-1.52-.67-1.63-1.64,5.75.7,10.65-3.2,16.3-3-1.42,2.28-4.54,1.85-6.12,3.87Z"/><path class="grey" d="M13.21,91.8c1.89,1.12,1.51,2.43.55,4a12.25,12.25,0,0,0-1.43,5.78c-.41.2-1.14.63-1.21.55C9.91,100.61,11.47,93.06,13.21,91.8Z"/><path class="grey" d="M285.25,207.78c-1.22,2.67-2.75,4.69-6.1,2.9C279.39,205.42,279.39,205.42,285.25,207.78Z"/><path class="grey" d="M39.21,102c3.7,1.15,6.34-1.57,9.46-2.57.53,1,1.57,2-.33,2.69-2.41.87-4.82,1.2-7.19,2.84S39.77,103.13,39.21,102Z"/><path class="grey" d="M68.05,249.63c-.59,2.33,3.19,5.16-.81,7.1-3.41-.34-1.84-3.35-2.33-5S66.73,250,68.05,249.63Z"/><path class="grey" d="M44,151.05c-2.15-3.2-2-6.67-1.2-10.21A8.39,8.39,0,0,1,44,151.05Z"/><path class="grey" d="M106.75,266.17c2.28.33,2.45,2.36,3.57,3.5a2.22,2.22,0,0,1,.19,3.13,2.5,2.5,0,0,1-2.07.72c.28-2.52-1.18-4.22-2.54-6C105.78,267.35,106.5,266.55,106.75,266.17Z"/><path class="grey" d="M139.27,248.74c.24-1.29-2.51-.77-1.51-1.88s2.36-2.66,4.24-1.84a2.24,2.24,0,0,1,1.45,2.77c-.46,1.46-1.48,1.51-2.74,1a4.74,4.74,0,0,0-1.47-.09Z"/><path class="grey" d="M47.18,298c2.85,0,4.38-2.93,7.09-3.24a1.17,1.17,0,0,1,1,1.2c-1.83,3-5,3.21-8,3.9Z"/><path class="grey" d="M101.56,88.54c-.23,2.71-.19,5.69-4.25,2.78-.78-.56-2.17-.26-3.29-.36C95.93,88.24,99.1,89.51,101.56,88.54Z"/><path class="grey" d="M75.32,259.75c-.06-2.21.27-4.21,3.14-4.06,2,.1,3.23-1.27,4.81-2,.46,2.23-.87,3.16-2.69,3.84S77.07,259,75.32,259.75Z"/><path class="grey" d="M58.27,271.34c-2.21,1-4.47.32-4.72-1.82-.3-2.6,2.74-2.37,4.46-3.18A5.67,5.67,0,0,0,58.27,271.34Z"/><path class="grey" d="M49,99.21c1.93-1.5,3.84-3,6.47-3.07-1.43,2-1.13,3.28,1.85,3.58C54.3,98.92,51.61,99.21,49,99.21Z"/><path class="grey" d="M161.56,236.36l0,0c2.32,1.6,5.88-.86,7.69,2.37l.05,0a37.73,37.73,0,0,0-5.76.43C160.22,239.89,161.51,237.77,161.56,236.36Z"/><path class="grey" d="M123.32,44.85c0,5.54-2.88,2.71-5.12,1.77C119.63,45.23,121.06,43.84,123.32,44.85Z"/><path class="grey" d="M67.29,258.71c1.23-.23,2.46-.42,3.67-.69,1.39-.31,1.67.31,1.36,1.51C70.5,260.15,68,264.75,67.29,258.71Z"/><path class="grey" d="M76.59,261.71c-2,2.67-3.5,3.43-5.85,2.39C72.09,262.44,73.68,262,76.59,261.71Z"/><path class="grey" d="M117.35,83.85c.47,1.13.48,2.05-.88,2.61-1.58.66-1.9-.4-2.24-1.5C114.94,83.65,116.15,83.77,117.35,83.85Z"/><path class="grey" d="M57.06,95.6c.72-2.07.06-6.69,4.26-2.29C60.26,94.73,58.67,95.2,57.06,95.6Z"/><path class="grey" d="M46.3,165c-1.9-1.24-1.72-3.07-1.39-4.94C49,160.7,47.61,162.86,46.3,165Z"/><path class="grey" d="M131.84,44.52c-.06,1.2-.3,2.18-1.89,1.76-1-.27-2.81.64-2.36-1.67A6.65,6.65,0,0,1,131.84,44.52Z"/><path class="grey" d="M258,19.62c-.13-1.51,1.53-1.67,2-2.69,2,.55,1.23,2.09.73,3C259.91,21.38,258.92,19.89,258,19.62Z"/><path class="grey" d="M83.85,93.58c.05,2.5-1.9,2.68-3.63,3.12C79.2,93.07,82.36,94.3,83.85,93.58Z"/><path class="grey" d="M15.26,82.77,15,85.93l-4.22-1.59Z"/><path class="grey" d="M54.71,293.7c-.86-.13-1.81-.08-2.19-1.13,1.13-1,2.54-1.82,3.65-.44C56.8,292.93,56,293.87,54.71,293.7Z"/><path class="grey" d="M66.2,242.29c1.38.88,1.16,2.2,1,3.5C63.74,245.48,65.82,243.65,66.2,242.29Z"/><path class="grey" d="M263.08,34c-1.93-.73-2.33-2.21-2-4.05C263.54,30.38,263,32.35,263.08,34Z"/><path class="grey" d="M162.15,233.87c0-1.44.78-2,2.11-1.82.22,0,.61.43.57.57-.38,1.52-1.77.88-2.72,1.21Z"/><path class="grey" d="M277.39,211.88c.49,1.33,1.48,2.91-1.3,2.6l.14-2.75,0,0Z"/><path class="grey" d="M50.4,213.79c-.23-.86-.44-1.72.76-2.06.74.28,1.59.78,1.36,1.54C52.42,213.63,51.14,213.63,50.4,213.79Z"/><path class="grey" d="M59.23,264.68c.48-1.52,1.71-.69,2.62-.84C62.06,267.51,60.25,264.86,59.23,264.68Z"/><path class="grey" d="M116.25,242.65c.57-.69,1.2-1.21,2.13-.6C118.18,244.07,117.39,244,116.25,242.65Z"/><path class="grey" d="M258.21,15.84c-.23,1.06-1.1,1.19-1.67.65a1.25,1.25,0,0,1,.37-2C257.71,14.6,258.31,14.88,258.21,15.84Z"/><path class="grey" d="M58.27,58.82C59,59,59.88,59,59.88,60c0,.17-.4.49-.61.48-1.18-.06-.85-1-1-1.73Z"/><path class="grey" d="M67,239.74a3.74,3.74,0,0,1,.41.5c0,.06-.07.21-.12.31L66,240.34Z"/><path class="grey" d="M109.17,84.76l-.38-.62a4.31,4.31,0,0,1,.86-.11c.12,0,.23.22.34.34Z"/><path class="grey" d="M14.23,88.75a.65.65,0,0,1-.29,1.06c-.36-.14-1-.32-1-.41C13,88.61,13.65,88.7,14.23,88.75Z"/><path class="grey" d="M276.23,211.73l-.3-.18.26.22Z"/><path class="grey" d="M279.15,210.71c.05.73-.23,1.09-1,.87Z"/><polygon class="grey" points="139.24 248.7 139.06 248.95 139.27 248.74 139.24 248.7"/><path class="grey" d="M177.68,33.21l.08.09-.94,1a.84.84,0,0,1-.65-.51l0,.14C176.26,32.78,176.86,32.75,177.68,33.21Z"/><polygon class="grey" points="77.75 261.51 77.65 261.23 77.9 261.25 77.75 261.51"/><path class="grey" d="M344.29,232.46c-4-.61-7.31-3.13-11.36-5,.08,3.9,1,6.74,3.85,8.89-3.5-2.45-8-3.63-9.82-8.46,3.86,1.25,4.5-.29,2.78-3.57C335.13,226.09,340.52,227.82,344.29,232.46Z"/><path class="grey" d="M416.14,253.59c-2.68,1.23-5.54-.47-6.91-1.58a19.67,19.67,0,0,0-11.3-4.31c-1.64-.14-1.68-1.22-1.26-2.48,5.87.71,11.24,3.27,16.93,4.67C415.58,250.37,416.91,251.25,416.14,253.59Z"/><path class="grey" d="M435.12,257.59a1.22,1.22,0,0,1-1.82,1c-4.57-3.24-10.75-1.54-15.21-5,.36-.6.72-1.21,1.09-1.81l0,0C424,254.86,430.51,253.68,435.12,257.59Z"/><path class="grey" d="M385.16,243.56c-6.2,1-7.74-.15-6.26-4.63C381.4,239.91,384.71,239.8,385.16,243.56Z"/><path class="grey" d="M353.25,234.79c-1.07,2.1-3.73,1.39-5.4,3.64,2.91-4.53-1.86-4-2.69-5.75C349,229.18,350.33,235,353.25,234.79Z"/><path class="grey" d="M391.27,242.82c-.4,1.69-.95,3.13-3.1,1.77A2.74,2.74,0,0,1,391.27,242.82Z"/><path class="grey" d="M367.44,237.68c.76.17,1.92.28,1.32,1.37-.5.91-1.7.77-2.68.48A1.67,1.67,0,0,1,367.44,237.68Z"/><path class="grey" d="M366.31,234.85c0,.59,0,1.19,0,1.79-.56-.22-1.56-.38-1.6-.68C364.52,234.78,365.63,235,366.31,234.85Z"/><path class="grey" d="M419.18,251.71l-.4-.17.36.21Z"/><path class="grey" d="M186.2,276.68c10.57.87,19-5.73,28.64-8.24,2.81-.73,6.65-.26,8.13-4.06.14-.35.95-.81,1.21-.69,5.87,2.71,8.69-4,14-4.47,5.06-.41,10.36-3,14.77-6.28a1.56,1.56,0,0,0,.62-2c-2,.16-4,.46-6.11.43-1.34,0-3.9.76-2.6-2.39.09-.21-.12-.54-.19-.82-3.5,2.07-6.3-2.55-10.1-.83-2.78,1.26-6.24,3.89-9.16-1.24-.7-1.22-5.94-2.57-9.51-1.11,2.26-.81,2.93-4.55,6.6-2.45,1.87,1.07,3-1.08,4.13-2.45a2.72,2.72,0,0,1,4-.57c.41.31,1.17.13,1.06,1.25-.22,2.05-1.88,1.84-3.08,2.36,2.48,2.9,5.33-1.4,7.62.36,3.55,2.75,3.05-5.65,6.87-1.55-1.75-1.9-3.56-2.8-4.3-4.35,4.88-7.91,13.52-5.85,20.58-8,1.6-.49,3.24,0,2.9,2-.23,1.33,1,3.75-2.31,3.8a10.81,10.81,0,0,0-6.78,2.7c1.89,1.77,4.67.12,5.77.8,4.71,2.92,7-2,10.12-3,5.49-1.9,2.26-7,.79-10.4-.89-2.06-.41-2.32.83-3.56,3.35-3.33,7.56-4.46,11.94-5.15.54-.08,3.07-1.35,2,2.34-1.19,4,1,8.89,2.52,13.22.66,1.84,2.22.88,3.23,1.49l-.12-.08a5.8,5.8,0,0,1-3.86,1.89c-1.4.27-3,.6-2.85,2.1s1.88,2,3.36,2.2c.49.07,1-.14,1.49,0,1.08.24,3.16-.63,2.63,1.69-.42,1.88-2.05,1.1-3.27.82-.45-.1-.87-.69-1.26-.65-2.06.24-3,1.93-3.92,3.46-.45.71-.68,1.77.13,2.24,1.51.89,2.73-.65,4-1,1.56-.46,2.27-3.46,4.32,0s-1,2.81-2.16,3.83c-.32.29-.4.85-.75,1.64,2,.31,4.05-.75,5.34,2,1,2,4.12.31,4.55-.67,1.55-3.56,5.49-5.44,6.25-9.42l-.08.08c4-.26,7.91,1.61,12,.87.92-.16,1.94,0,2.11,1.43a4.21,4.21,0,0,1-1.71,3.91,26,26,0,0,1-7.26,4.08c-5.94,1.81-12,3.1-18.07,4.61-.53-.71-1.36-1.34-1.54-2.13-1-4.37-3.69-5.14-7.51-3.85a15.25,15.25,0,0,0-7.06,4.15c3.05-.67,4.63,3.43,5.59,2.58,3.59-3.2,7.21.39,10.59-.84-7.09,6.42-16.32,8.56-24.76,12.24a24.77,24.77,0,0,0-6.37,4.45c-3.24,2.84-4.79,2.18-6.42-1.82a2.83,2.83,0,0,0-4.74-1c-1.83,1.68-3.57,2-6.11,1.4-3.21-.77-6,2.74-4.3,5.42.59.95,1.46,1.2,0,1.45-3.21.56-6,3.74-9.82.95-3-2.23-6.19,0-8.55,1.55-8.75,5.6-18.7,8.61-27.9,13.24-7.45,3.76-14.84,7.63-22.07,11.77-2.32,1.34-4.62,1.91-6.36.37-5.18-4.6-10.7-3.32-16.38-1.73a46.31,46.31,0,0,1-5.65,1.61c-1.47.21-3.7,1-4.16-1.31-.42-2.13-1.25-4.65,1.47-6.22,3-1.75,5.86-4.12,9.4-4.31,5.21-.27,8.61-4.72,13.73-5.39,1.29-.17-.28-4.33,1.14-6.38.24-.29.73-.74.66-.84-.46-.76-.91-.25-1.33.12l-2.55.5.09.09c.25-2.59.43-4.32-3.17-2.23-3.83,2.24-7.45,3.49-9.49,8.59-1.22,3.06-7.2,4.6-11.32,6-3.89,1.34-7.82,3.75-12.39,1.29-2.77-1.49-2.36-4-1.14-5.05,4.29-3.59,5.15-9.46,9.32-13,1-.88,1.7-1.67,1.92.45,0,.41.68,1,.93.48,2.64-5.79,6.46-5.41,10.83-1.94,0,1.29-3.37,1.06-2.17,2.81,1,1.46,2.52-.32,3.86-.73,4-1.22,5.58-6.5,10.56-6,.83.08,2.15-1.42,1.18-2-1.51-1-1.17-4.88-4.48-3l-.85-1c-.84-1.64.52-3.53,2.81-4.51,7.9-3.37,15.9-6.52,23.24-11,1-.6,2-1.47,3.19-.73,3.93,2.44,8.36.53,12.54,1.47,3.29.74,6.69,2.37,10.31,1.24.6-.19,1.34.1,2,0,5.46-1.09,6.22-2.73,3.29-7l-.08.07c1.5.56,4-1.28,4.39,2.08.15,1.26,2,1.09,3.05,1,2-.17,5.08-4.46,5.46,1.6,0,.28,2.86-1,4.4-1.32,1.18-.27,3.28-1.71,3.62.66.22,1.48.43,4-1.6,4.6-3.16.89-5.45,3.18-8.54,4.32-8.57,3.17-16.7,7.53-25.24,10.81-3.49,1.34-7.68.9-10.4,4.21-4.67-.95-10.07,4-14.17-1.77-.14-.21-.94,0-1.43.1-5.13.72-5.75,2-5.05,10.4,4.59,0,8.57-5.34,13.32-1.46,1.63-.59-.68-3.94,2-2.91C186,283,185.48,279.33,186.2,276.68Zm-22.43-2.2c.78.07,1.62-.12,1.37-.89-.66-2,0-2.61,2-2.5.66,0,1.81-.25,1.56-1.37s-1.23-.75-2-.58c-1,.21-1.9.46-2.86.61-1.27.2-3.2-1-3.53,1.21C160,273.4,163,273,163.77,274.48ZM184,296.67c2.26.21,3.28-1,3.69-3.07.27-1.38-.41-1.56-1.59-1.72-2.76-.39-2.62,2.82-4.51,3.43A2.35,2.35,0,0,0,184,296.67Zm93.58-51.2c-.84.83-3.6.15-2.7,1.37s1,4.24,3.7,3.85c.94-.13,2-.93,1.2-2S280.55,244.93,277.53,245.47Z"/><path class="grey" d="M286.09,271.88c3.62-2.32,7.12-1.86,10.57.44.38.26,1.29.48,1.38.34,3.44-5.27,9.91-1,13.88-4.35-.41-2-2.51-1.12-4-2.58,5.18-1.86,9-2.38,14.68,0,5.08,2.13,9,5.75,14,7.64,3.67,1.4,4.66,4.11,4.66,7.67s-2.8,5.89-5.12,7.3c-6,3.61-12.42,6.34-19.64,6.67a13.49,13.49,0,0,0-3.33.24c-4.66,1.5-5.77,1.59-8.87.92-4.45-1-8.33-.5-10.08,4.64-.23.66-1.17,1.07-2.12,1.88-.74-3.65-.39-8.6-6.26-5.26a1.23,1.23,0,0,1-1,0c-4.9-2.18-9.88-2.58-14.72-.41-1.38-1.56-.07-2.49.19-3.46.69-2.56-.45-3.17-2.68-3.07-3.19.16-6.28.06-9.22-1.66-1.15-.68-3.37-.07-3.1-2.26s.42-4.54,3.17-5c1-.17,1.81-.72,2.65-.92,4.52-1.11,8-3,10.09-7.65.94-2.13,3.61-.31,5.54.6,3.41,1.6,7.14,3.64,9.32-1.76ZM318.5,279c3.24.93,5.09-.95,7.24-2,.9-.45,2.61.12,2.48-1.69-.12-1.56-1.32-2.18-2.67-2.51C320,271.42,321.38,277.52,318.5,279Zm-4.71-5.89c-2,.44-2.93-1.89-4-1.92-4.34-.14-5,3.33-3,5.68C307.74,277.94,312,276.41,313.79,273.1Zm-41,2.3c.09-.1.28-.22.27-.33s-.2-.21-.31-.32l-.33.48Z"/><path class="grey" d="M391.15,280.76c2.53-2.77,2.53-2.77,7.65,3.62-2.2,1-6.72-.93-5.65,4.39a1.38,1.38,0,0,1-2.06,1.32c-3.17-1.72-6.71-.72-10-1.5l-.06.07c1.23-4.74,4.15-7.51,9.14-7.89l-.06-.09c-.05.64-.35,1.39-.11,1.9.56,1.19-2.9,1.14-.79,2.33,1.26.71,2-.55,2-1.9,0-.78,0-1.56,0-2.33Z"/><path class="grey" d="M135.07,315.09a7.21,7.21,0,0,1-5.55,1.59c-.82-.05-2.21-.47-2.37-.18-5,9-7.84-2.57-12-.6,4.08-5.83,6.49-6.13,12.73-2.42C129.93,314.71,132.83,312.79,135.07,315.09Z"/><path class="grey" d="M270.68,328c2.49-.92,5-3,8.19-3.37.89-.11,2-1.13,2.42.32a2.19,2.19,0,0,1-.92,2.62c-4.81,2.05-9.68,4-14.57,5.87-.44.17-1.63.43-1.4-1.09s.29-3.36,1.87-4.29C267.43,327.32,268.8,327.3,270.68,328Z"/><path class="grey" d="M179.19,330.71c-5.4-3.36-11.24-3.53-17.41-2,1.19-1,1.79-2,2.61-2.78,2.21-2.07,4.52-3.63,7.7-1.22,3,2.29,7,2.5,10.61,3.49-.68,2.17-3.08.85-3.59,2.57Z"/><path class="grey" d="M115.3,280.56c-1.71,2.19-4.06,3.74-1.63,6.18.73.73-.33,1.07-.59,1.57-2,3.95-5.26,0-7.86,1.08-1.07.44-.9-1.33-1-2.26-.39-2.9,1.39-4.36,3.72-5.1A65.31,65.31,0,0,1,115.3,280.56Z"/><path class="grey" d="M314.09,238.64c-2.39,2.91-6.69,1.07-9.22,3.73-.44.46-1,.7-.75,1.46l.08-.08c-2.06-1-4.61,3-6.38-.65,3.46-2.7,7.58-4.11,11.65-5.74,2.25-.91,3.49-.28,4.71,1.38Z"/><path class="grey" d="M194.21,315.81c-4.16,1.09-3-1.93-2.6-3.73.68-2.91,3.94-3.62,5.8-3.45s1.8,3,.76,5.25c-1.09-1.08,1-3.29-1.64-3.61-2.11-.25-2.22,1.26-3.21,2.2-2,1.86-.08,2.36.83,3.28Z"/><path class="grey" d="M300.59,235.35c-1.76,2.5-3.45,5.56-7.38,2.94C295.3,236.17,298.17,236.39,300.59,235.35Z"/><path class="grey" d="M378.79,286.61c-.69,2.48-.42,5.07-3.24,5-1.06,0-3.67-.71-3-2.42C373.46,286.65,376.51,288.07,378.79,286.61Z"/><path class="grey" d="M207,335.12c-2.7-.12-3.34,3.77-6.44,1.74C201.69,334,203.32,332.64,207,335.12Z"/><path class="grey" d="M314.18,238.74c.62-1-.8-3.6,2-2.83a2.78,2.78,0,0,1,1.94,3.82c-2.23,3.92-2.27-2.06-4-1.09Z"/><path class="grey" d="M53.64,306.54c2.16.23,4.13-.68,5.13,1.27.36.73-.64.93-1.44,1.35C54.24,310.77,54.23,308.74,53.64,306.54Z"/><path class="grey" d="M385.18,253.77c-.7-1.43-2.33-2-1.35-3,1.36-1.31.88.25.95.88C384.82,252.13,384.94,252.56,385.18,253.77Z"/><path class="grey" d="M387.16,254a3.06,3.06,0,0,1,2.64,1.71A2.82,2.82,0,0,1,387.16,254Z"/><path class="grey" d="M290.29,233.79c-.88-.9-.08-1.37.55-1.72.19-.1,1,.33,1,.56.09,1.23-.95.93-1.66,1.08Z"/><path class="grey" d="M179.11,330.78l.91.17-.83-.24Z"/><path class="black" d="M241.27,352.62c-.1.74-.52,1.26-1.27,1.08-.33-.07-.53-.66-.79-1Z"/><path class="grey" d="M286.14,271.81l-.11-.34.06.41Z"/><path class="grey" d="M390.18,280.77c.32-.71.64-.42,1,0l0-.08h-1.07Z"/><polygon class="grey" points="194.15 315.75 194.35 315.84 194.21 315.8 194.15 315.75"/><path class="grey" d="M211.23,248.75l-.34-.26.26.33Z"/><path class="grey" d="M154.73,270.4c-.42,0-1,.13-1.23-.08-.4-.38-.1-.77.38-1Z"/><path class="grey" d="M160.2,284.67l-.34.75c-.79-.81,0-.61.43-.66Z"/><polygon class="grey" points="381.1 288.59 381.04 288.8 381.05 288.66 381.1 288.59"/><path class="black" d="M259.14,120.91c-3.63,4.14-3.63,4.14,2.33,7.73,1.32,3.86,4.31,7.51.72,11.81-1.53,1.85,1.6,1.55,1.94,3A75.92,75.92,0,0,1,266.44,165c-.16,3.18,2,6.49-.65,9.56-1.06-.71-.93-1.66-1.08-2.58-.09-.53-.74-1.32-1.19-1.35a1.52,1.52,0,0,0-1.47,1.66c.38,2.35.21,4.22-2,5.75-.79.54-.36,1.88,1.17,1.73l1.85.08c.68,2.46,3.22,4.27,2.54,7.21-1-.19-2.44-.15-2.14,1.06.71,2.84-1.85,5.15-.94,7.91l0,.05c-2.19-.32-2.37-3.47-4.83-3.43-.69-5.46-2.1-10.85-1.42-16.44.23-1.82.07-3.75,3-2.93.48.13,2.5.16,2.24-1.79-.15-1.14,0-2.42-1.19-3.05-2-1-2.11,1.6-3.4,1.85-3.69-8.86-4.36-18.41-4.13-27.62.31-12.23-1.42-24.1-2.91-36.08-.62-5-4.35-8.86-4.87-14.27-.32-3.31,1.34-5.77,1.05-8.73-.65-6.74-1.66-13.39-4.78-19.51a8.67,8.67,0,0,1-1-4.27c1.16-1.3,1.55-2.46-.58-3.16a2.84,2.84,0,0,1,.07-2.63c3-3.06,1.46-5.29-1.33-7.29-.37-1.22-1.28-1.13-2.25-.94-4.2-2-4.86,2.29-7,4s-5.1,2-7.71,2.79c-4.54,1.36-9.65.95-13.26,5.06a3.26,3.26,0,0,1-4.1.39c-1-4.29,1.44-6.22,5.11-7.09,2.56-.61,4.2-1.87,4.16-4.7,4.48-1.89,8.94-3.81,13.44-5.64a8.7,8.7,0,0,1,5.31-.52c-.17.86-.18,1.86.83,2,4.62.44,9.37-4.4,9.2-9.26l.71-1.67,2.67-.5a57.21,57.21,0,0,1,2.14,15c.14,6.2-.07,13.57,2.55,18.53s1.21,9.51,2.92,14a43.72,43.72,0,0,1,2.92,14.71,50,50,0,0,0,1.09,9.06c-2.29,1.58-2.1,3.19,0,4.81.35,2.66.71,5.33,1.06,8,.1.81.27,2-.62,2.08-1.79.12-3.15,1.49-2.72,2.48C255.43,120.58,257.49,120.8,259.14,120.91Zm.59,60.54.16-.27-.26,0Z"/><path class="grey" d="M202.88,134.35c1.19-.69,2.6-1.55,3.09.53.55,2.37,1.72,3.37,4.17,3.12,1-.09,2,.4,1.89,1.72-.15,1.49-1.16,1.75-2.52,1.61-1.57-.16-3.81-1.51-4.57.25-.95,2.19-2.69,4.18-2.62,6.8.14,4.68.12,4.67-4.31,5.44-.44.07-1.17.48-1.19.76-.32,8.22-9.34,9.95-12.26,16.37-.84,1.85-4.17,1.59-6.47,1-1.67-.42-1.38-1.52-.58-2.66,5.12-7.3,8.44-15.74,14.27-22.6a8.9,8.9,0,0,0,1.6-2.52c1.2-3.14,3-6.24-3-6.73-5.06-.42-9.61-3.37-14.73-4.2-2.76-.44-4.58-2.47-5.69-5.1a4.2,4.2,0,0,1,.91-4.57,3.25,3.25,0,0,1,4.54-.37c6.84,4.86,15.59,5.2,22.57,9.62,1.39.89,3.15-1.46,4.07.81-.85.56-2.26,1.23-.95,2.26C202,136.55,202.47,135.12,202.88,134.35Z"/><path class="grey" d="M120.79,173.39c7.74-.32,13.81,3.37,19.4,8.15,2.71,2.33.77,5-.42,6.57-1.52,2.07-5.48,2.08-6.58.6-3.75-5.06-11.27-2.89-14.55-8.26-4.57,1.87-5.44-2.2-8.12-4.22-7.14-5.34-5.75-3.41-2.07-9.4,3.09-5,7.9-8.69,9.73-14.85a17.36,17.36,0,0,1,9.49-10.85c1.22-.55,2.6-2.31,3.93-.57,1.55,2.05,3.8,4.47,2.24,7.11a85.51,85.51,0,0,1-16.48,20.45c-1.46,1.29-4,2.06-2.94,4.46.88,2.11,3.19.84,4.88.93A9.45,9.45,0,0,0,120.79,173.39Z"/><path class="black" d="M203.36,207.05c9.17-3.58,18.27-7.36,27.54-10.65,4.34-1.54,9-2.11,13.52-3.19,1-.24,1.39.14,1.91.92.62,1,.06,1.25-.41,1.92-1.61,2.24-3.78,3-7,2.5a45.27,45.27,0,0,0,1.82,4.74c1.2,2.27-1.37,2.79-2,3-6.75,1.93-13.26,3.78-19.41,7.83-2.81,1.86-8,3-12.67,2.29-4.45-.64-8.47,2.3-13.07,2.44-3.31.1-2.32-1.51-2.42-3.06.24-2.58,1.85-1,3-1,1-.23,2.3.7,2.88-.86l-.07-3.44,1.24-.72C200.26,209.44,203.1,210.7,203.36,207.05Z"/><path class="grey" d="M164.81,126.37c.77,6.55-2,12.64-3.18,19-2.27,12.12-4.9,24.18-7.43,36.25-.32,1.54-1,4.47-2.14,3.75-1.61-1-5.14-.33-4.84-3.62.2-2.15-3.47-5.82,2.2-6.16,1.05-.06,1-1.42.38-2-3-2.59-1-5,0-7.55,2.45-5.88,5.16-11.71,4.72-18.34-.12-1.69,1.52-2.47,2.09-3.8.65-1.55,4.49-2.43,1.14-4.91C161.73,135.64,157.62,127.84,164.81,126.37Z"/><path class="grey" d="M257.64,192.63c2.46,0,2.64,3.11,4.83,3.43-.29,3-1.2,4.26-3.9,1.62-1.88-1.84-4.59-1.4-7.11-2.23C253.17,193.5,255.06,192.37,257.64,192.63Z"/><path class="grey" d="M194.19,214.77c-1.11-.05-2.72-1.6-3,1-1.06.45-.75,2.3-2.31,2.22-1.44-4.13-1.41-4,2.73-5.23a45.39,45.39,0,0,0,5.35-2.27l.07,3.44c-.9-.2-1.12-1.79-2.38-1.2C193.72,213.17,193.83,214,194.19,214.77Z"/><path class="grey" d="M262.52,196c-.91-2.76,1.65-5.07.94-7.91-.3-1.21,1.13-1.25,2.14-1.06C264.83,190.12,266.85,194.16,262.52,196Z"/><path class="grey" d="M238.42,46.71c2.79,2,4.33,4.23,1.33,7.29C239.55,51.53,237.41,49.41,238.42,46.71Z"/><path class="grey" d="M229.17,49.73c2.14-1.67,2.8-5.94,7-4C234,47.42,232.29,49.79,229.17,49.73Z"/><path class="grey" d="M203.36,207.05c-.26,3.65-3.1,2.39-5.12,2.7C199.34,207.7,201.58,207.81,203.36,207.05Z"/><path class="grey" d="M239.68,56.63c2.13.7,1.74,1.86.58,3.16C238.77,59,240,57.67,239.68,56.63Z"/><path class="grey" d="M263.06,179.83l-1.85-.08a1.14,1.14,0,0,1,1.13-1.1C263.21,178.63,263.16,179.23,263.06,179.83Z"/><path class="grey" d="M36.85,91.13c1.85-1.49,7.18-1.26,2.83-5.78-.14-.15,1-5.08,4.59-3.79,1.95.7,2.4-.13,3.8-1.37,2-1.83,4.24-5.63,8.49-2.47,2,1.49,3.59-2.26,6.07-2.18,1.4,0,5,1.64,3.08-2.62,0-.08.5-.58.65-.53,4.29,1.32,7.89-1.84,12-1.81,1.32,0,2.35.52,2.37,1.93s-1.31,1.92-2.38,2.13c-3.47.65-7,1.15-10.48,1.65-4.26.61-6.92,5-11.53,4.87a20.67,20.67,0,0,0-4.85.71c-1.27.28-2.59.67-2.89,2.28-.27,1.45,2.9,2.75.56,3.92-1,.48-2.8-1.42-4,.89-.63,1.18-2.16,1.94-3.41,2.7C40,92.65,38.52,91.6,36.85,91.13Z"/><path class="grey" d="M218,36l-15.12,6.87a20.22,20.22,0,0,1-2.27.9,4.16,4.16,0,0,1-4.88-2.11c-1.1-2.47,1.46-2.93,3.17-3.12C205.32,37.85,211.16,33.82,218,36Z"/><path class="grey" d="M45.15,207.77c-.69-3.64-7.36,1.45-6.95-5.24.29-4.77,5.31-2.68,5.37-6.18C45.08,200.11,45.89,203.71,45.15,207.77Z"/><path class="grey" d="M242.15,32.72c.17,4.86-4.58,9.7-9.2,9.26-1-.1-1-1.1-.83-2A32.16,32.16,0,0,0,242.15,32.72Z"/><path class="grey" d="M259.54,70.26c0-2.9-1-4.51-2-6.21a3.33,3.33,0,0,1-.06-2.68c.18-.41,1.45-.4,2.23-.45,1.71-.13,2,1.8,1.85,2.32C261,65.2,261.73,67.48,259.54,70.26Z"/><path class="grey" d="M109.36,62.92c-1.23-.27-2.94,0-2.66-1.15.84-3.51,4.49-1.39,6.53-2.8.53-.37,2-.22,1.78.87C114.38,63.35,110.76,61.26,109.36,62.92Z"/><path class="grey" d="M231.19,29.68c-1.71,4.09-4.12,4.2-7.63,2.05Z"/><path class="grey" d="M258.9,80A1.93,1.93,0,0,1,261,81.72c.07,1.57-1.73.76-2.54,1.54s-1.5-.47-1.55-1.1A1.81,1.81,0,0,1,258.9,80Z"/><path class="grey" d="M257.12,106.66c-2.07-1.62-2.26-3.23,0-4.81C265.48,103.52,253.94,105,257.12,106.66Z"/><path class="grey" d="M245.53,30.55l-2.67.5c-.05-1.21.26-2.4,1.6-2.43C245.08,28.6,245.64,29.62,245.53,30.55Z"/><polygon class="grey" points="196.93 31.27 197.32 31.45 197.37 31.22 196.93 31.27"/><path class="black" d="M34.35,252.35c.24.58.37,1.19-.3,1.53-.83.42-.91-.31-1.06-.85Z"/><path class="grey" d="M259.54,85.62l-.23-.29c.1-.07.22-.2.31-.18s.16.18.24.28Z"/><path class="grey" d="M177.76,33.3c.68.87.45,1.27-.63,1.24l-.31-.26Z"/><path class="black" d="M176.82,34.28l.31.26c-.57.05-1.31.31-1-.77A.87.87,0,0,0,176.82,34.28Z"/><path class="black" d="M174.25,235.75a1.57,1.57,0,0,1,.19-.39c.05-.06.21,0,.32,0l-.54.38Z"/><path class="black" d="M145.22,70.83l.55.39c-.11,0-.26,0-.31,0a1.4,1.4,0,0,1-.19-.41Z"/><polygon class="black" points="123.56 243.26 123.86 243.15 123.83 243.44 123.56 243.26"/><polygon class="grey" points="259.73 181.45 259.63 181.15 259.89 181.18 259.73 181.45"/></g></g></svg>