<svg xmlns="http://www.w3.org/2000/svg" viewBox="0 0 406.77 350.97"><defs><style>.black{fill:#060606;}.grey{fill:#4f4f4f;}</style></defs><g id="Capa_2" data-name="Capa 2"><g id="Capa_6" data-name="Capa 6"><path class="black" d="M73.76,66.73l-3.12,1.42c-.46-4.15-3.33-1.31-5-1.5-1.37-.15-3.09.8-1.4,2.83,3.42,3.24,4.61,7.84,6.3,11.88,6,14.33,11.92,28.75,15.18,44,3.53,16.55,7.59,33,8.91,50,.79,10.12,2.32,20.18,2,30.38-.2,6.37,0,12.65-3.59,18.48C92,226,93.06,229,92,231.29c-5.23,5.5-8.36,12.64-14.09,17.83-2,1.78-5,3.47-4.43,7.09l-.07.13a2.79,2.79,0,0,0-2.78,1.56c-.8,1.14-2.42,1.79-2.13,3.58a2.44,2.44,0,0,0-2,2.62c-.17,0-.38,0-.49.08-8.15,6.38-18.37,6.56-27.71,9.43a46,46,0,0,1-19.82,1.91c-11.2-1.43-22-14.85-17.38-27.68C6.68,232.54,14,219.2,27.27,209.48c1.35-1,2.51-2.25,4.42-1.73,3.13,1.11,2.84-.56,2.1-2.59a.55.55,0,0,1,.55-.46c3.27-.31,6.91.81,9.34-2.71.77-1.12,1.8-.7,3,.13,3.54,2.51,5.4-1.54,8.06-2.44s1.71-3.14,1-5.05c2-.31,3.76-1.7,5.9-1.07-.45,2.52-.24,4.28,3.16,3.61s6.73.65,10.07,1.17a10.33,10.33,0,0,1,6,2,2.06,2.06,0,0,0,2.75-.24c.68-.95-.77-1.95-.74-2.27.41-5.09-2.9-8.62-4.92-12.69a2.33,2.33,0,0,1,.11-1.93c4.66-7.67-1.29-13.3-3.68-19.62-1-2.7-4.33-5.12-.7-8.4,1-.93-.62-1.92-1.33-2.8-2.45-3-2.4-3.15.28-5.76.92-.89-.36-1.77-.09-2.68-5.71-1.49-3.69-7-4.87-10.47-3.82-11.24-6.81-22.79-9.7-34.32-2-8.12-4.48-16.18-5.33-24.57l-1.59-7-.44-4.06a2.07,2.07,0,0,0,1.19-1.81l.15,0c2.32.31,3.69,4.69,4.87,3.4,3.62-4,8.86.1,12.36-3.39,1-1,4.43.61,4.66-1.57.28-2.64-3.06-2.55-4.8-3.57s-3.78-.23-5.39.94c-1.06.77-1.94,1.76-3.43,1.34.4-4-4-8.23.84-11.73l-4.47-2.69c1.13-2.17,3.05-2,5-1.73,1.15,3,3.71,1.9,5.82,1.86.18,0,.77-2.32.43-2.58-4.35-3.25.28-3.54,1.56-4,5.51-2.24,11.12-4.32,16.82-6,1.58-.47,3.6-3,5.59.2.76,1.22.7-.65.79-1.07.45-2,1.8-2.65,3.67-2.56a5.34,5.34,0,0,0,3.36-.56c8.61-5.39,18-7.61,28.18-7.66a17.85,17.85,0,0,0,7.94-2.47c2.3-1.25-1.75-3.29,0-5,1.11-1.34,2.35-1.2,3.67-.35.59,1.7-.31,4.11,3.56,3.47,2.4-.39,5.11.14,7.47-1.1s1.65,1,2.23,1.84c2.77,4.89,5.66,4.92,10.8.11C166,6.87,170.22,15,174,16.27c-.44-1.93-5.52-3.35-.22-4.81,1.17-.73,4.91,2.34,3.65-2.45-.06-.23,4-2.45,5.83-2.11,5.39,1,5.1-2.3,4.93-6.9,2,3.11,5.34,2.62,6.59,5.38.06.14.32.34.35.31,6.07-4.08,5.59,3.31,8.47,4.79a6.38,6.38,0,0,0,1.95.28c-1.13,2.26.79,3.94,1.14,5.92.85,3.37-2.09,8.16,3.65,9.73.19.05.09.94.22,1.41,1.57,5.65,3.28,11.27,3,17.26-.17,4.44,2,8.3,3.85,12,2.68,5.43,4.62,11.12,7,16.64,2.91,6.84,4.27,14,6.51,21,1.83,5.71,5.15,11.31,5.92,16.75C237.63,117.33,240,122,242,127a2.14,2.14,0,0,1-.71,2.13c-2.15-1-1.95,2-3.48,1.9.81,1.11,2.08,2.49,2.28,3.35.6,2.54.11,5.32.2,8s-.29,5.28,1.21,7.65a.4.4,0,0,0,.34,0,1.66,1.66,0,0,0,.38-.32l0-.05c2.86,1.64.3,4.55.11,5.62-1,5.54,2.47,9.76,3.14,14.7.79,5.83-1.29,11.12-2.27,16.5s-5.1,10.1-9.66,13.22c-5.15,3.53-7.66,9.41-13.1,12.64-5.09,3-10,6.18-15.91,7.21-3.69-2.52-7.39-.2-11.09,0l-7.79-.35-.07.16c-.66-1.6-2.07-.54-3.08-.88l-1.64-.16-1.37-.07c-1.75-2-3.34-.57-5,.25-3.82-2.46-8.9-3.14-11.12-7.85-.1-3.35.17-6.83-3-9.16,1.63-7.27,6-13.36,8.79-20.12.18-.44,1.14-.76,1.76-.79,4.66-.23,6.41-3.2,8.06-7.15,1.42-3.39,5.21-5.08,8.27-7.07,6.29-4.08,12.11-8.93,19-12,5.33-2.36,10.47-5.3,16.77-3.9,2.82.62,4.42,0,3.74-4-1.94-11.36-2.8-22.91-4.55-34.28-.76-4.94-1.31-10.32-4.74-15.09-2.88-4-5.91-9.33-2.4-15.05.8-1.3.21-2.77-.2-4.28-2.5-9.22-6-18.09-9.48-27q-4-10.09-8-20.2c0-4.44-2.84-6.31-6.63-7.21-4.12-1-4,2.76-5.28,4.9a2,2,0,0,0-2.37,1.13c-4.28,1.08-8.55,2.21-12.85,3.19-1.06.24-1.87.43-1.93,1.68-.65,1.76-5.43.45-3.2,4.33-.36,2.85-4.55,2.14-4.64,3.94-.2,4.23-3.33,4.73-6,5.45-4.8,1.31-8.73,4.6-13.67,5.56a4.18,4.18,0,0,0-3.3,3.35l-3.17.26c-.62-.69-1.23-1.38-1.87-2.05-.8-.83-1.94-1.71-2.82-.79s.1,2,1,2.67c.35.27.49.8.73,1.21l-1.72,1c-1.74-.58-2.89.51-4.09,1.46l-4.14-.13c-6.75-2.58-13.45-1.07-20.13.31a2.42,2.42,0,0,0-1.91,2.57l-2,.2c-.37-1.06-.73-2.11-2.24-1.85-1.81.3-1.47,1.72-1.56,2.92l-.2-.19.19.2c-6.41-2.26-12.29.56-18.33,1.9a4,4,0,0,1-.84-.15L74,65.43ZM196,16.84c.53.35.4,1.95,1.51,1.08,1.39-1.1,1.54-2.66,1-4.38-.33-1.13,0-2.59-1.93-2.43.2,1.35-3.46.85-1.47,3.11.49.55.24,1.19-.52,1.49-2.68-2.45-5.29-2.8-7.95.12-.46.52-1.46.55-2.21.81s-.87.84-.69,1.55.81,1.48,1.27,1.2c3.12-2,6.4-1.1,9.65-.77ZM235,143.18c.75-2.73-.64-3.89-2.69-4.54-1.23-.4-2.3.38-1.64,1.33,1.54,2.2-1,6.35,2.81,6.95C235.58,147.26,233.68,143.89,235,143.18Zm3.83,37.26c-3.51-.51-7.44-3.42-8.38,3.12.79-.45,1.16-.63,1.49-.85s.76-1.21,1.49-.72C236,183.79,236,183.82,238.78,180.44ZM84.33,36.8a1,1,0,0,0-1.19-1.16A2.15,2.15,0,0,0,81,37.24c-.19.76.45,1.21,1.15,1.2A2.49,2.49,0,0,0,84.33,36.8Zm110.3-15.26-.47-.72c-.16.24-.45.47-.46.71s.26.5.4.74ZM78.43,37.09c-.08-.1-.16-.27-.25-.27S78,37,77.89,37c.08.1.15.27.24.28S78.33,37.17,78.43,37.09Z"/><path class="black" d="M371.53,238.48c4.5-1.82,9.37-.42,14-1.62,4-1,7.23-7.09,4.42-9.85-3.14-3.09-4.14-7-6.11-10.55-8.15-14.6-17.63-28.46-24.4-43.85-.74-1.69.66-4.16-1.89-5.1-2.36-2.5,2.41-6.78-2.52-9.22.3,3.76,1.43,7.05.12,10.31a8.22,8.22,0,0,0,1.46.91l-.36,1.88c-1.84,1-4.23,1.9-1,4.11l-.88,1.92c-1.49-.86-2.88-1.5-2.75,1.24-2.64,4.82-4.05,10.11-5.74,15.29a4.53,4.53,0,0,0,0,2.66c.94,4.25,1.81,8.63-2.63,11.87-1.43,1.05-.57,2.69.06,4s1.49,2.41.55,4.11c-4.88,8.81-5.27,19-8.4,28.42a243.85,243.85,0,0,0-6.89,26.72c-.56,2.63-.86,5.54-3.93,7.34-.61.35.44,5.08.42,7.91,0,4.28-2.23,7.51-3.32,11.24-.36-.95-1.24-1.12-1.78-.57s.41.91.79,1.31c5.6,10.78,3.51,25.06-6.13,31.22-4.83,3.09-7.73,8.57-13.56,10.08-.46.11-1.06.82-1.24.71-5-3.1-8.05,2.45-12.4,3.05-5.78.79-11.75,2.79-17.53,4.62a32.69,32.69,0,0,1-13.39,1.81c-1.63-.18-2.92.4-3.79-2.1-.67-1.93-3.37-1-5.1.14-1.5-1.88-3.44-1.14-5.29-.88-2.86,0-5.49-1.13-6.55-3.69-1.64-3.91-5.83-5.08-7.9-8.88-4.64-8.48-.79-15.38,2.22-22.71,4.47-10.92,15.31-14.1,24-20,4.08-2.8,8.37-3.34,12.91-2.83,3.38.39,4.62-1.41,5.48-4.06.6,2.26,1.59,2.73,4.21,2.31,4.75-.77,9.7-.36,14-3.12,2.31,0,4.93-.68,6.86.18,2.49,1.09,3.19.19,4-1.66,2.3-5.32,5.15-10.55,7.2-15.76,2.38-6.05,4.14-12.65,6.54-18.83,1.88-4.84,3.58-10,7.58-13.83,1-1,2.21-2.52,1.12-4.7-.66-1.32.66-3.08,1.35-4.61,2.42-5.45,4.51-10.83,4.69-17.12.2-7.08.68-14.36,4.14-21,1-1.91.9-4.4,1.3-6.62l1.23-6c1.12-.32.57-2.08,1.92-2.21.61.45,1.6,1.38,1.77,1.25,1.05-.82,1.78-2,1.07-3.36-1.23-2.29-.56-4.77-1-7.12-.09-1.2.27-2.47-.58-3.55-1.33-.59-1-1.85-1.14-2.89,2.64-.45,2.6-2.25,1.54-3.89-.59-.92-1.16-1.38-.21-2.26,2.53.52,3-.86,2.65-2.92a7.77,7.77,0,0,0,1.66-8.42l.1.14a.92.92,0,0,0,1.39-.8c.69-5.36,3.55-10.58,1.14-16.16a.72.72,0,0,1,.49-1.09c4.57,1.56,6.15-2.42,8.67-4.67l.22.19c-.2,1,.28,1.48,1.25,1.57,0,3.08,2.61,6,.37,9.22,4.8,3.78,2.53,10.16,5.38,14.62,1.87,2.94,2,6.27,2.79,9.46s4.32,5.8,5.84,9c2.24,4.77,5.46,8.88,8.2,13.31,3.22,5.2,6.92,10.07,10.05,15.38,6.31,10.7,10.68,22.21,15.65,33.49,2.23,5.07,0,9.76-1.73,14.19-2.46,6.42-2.88,13.84-8.66,18.81-5.19,4.46-11,7.66-17.94,7-2.85-.26-5.37-3.57-8.64-1-1.28-1.87-3.45-3.67-3.62-5.64-.24-2.77,3-2.44,4.4-1.91,4.9,1.83,6.51-3.42,10.27-4.22-3.93-.51-6.79-4-10.91-3.32-2.47-1.27-4.1-3.79-3.83-6,.33-2.67,3.38-1.22,5.27-1.54C370.85,239.35,371.17,238.81,371.53,238.48ZM309.9,278.06c1-3,6.49-4,1.81-7.81C311.47,272.72,309,274.38,309.9,278.06Z"/><path class="grey" d="M135.71,12.78c-1.73,1.73,2.32,3.77,0,5a17.85,17.85,0,0,1-7.94,2.47c-10.13.05-19.57,2.27-28.18,7.66a5.34,5.34,0,0,1-3.36.56c-1.87-.09-3.22.53-3.67,2.56-.09.42,0,2.29-.79,1.07-2-3.2-4-.67-5.59-.2-5.7,1.71-11.31,3.79-16.82,6-1.28.51-5.91.8-1.56,4,.34.26-.25,2.57-.43,2.58-2.11,0-4.67,1.13-5.82-1.86,4.74-9.88,15.16-10.23,23.61-13.32C91,27.28,96.76,25,102.64,23c7-2.36,13.83-5.08,21.36-6.13C127.75,16.3,131.28,12.8,135.71,12.78Z"/><path class="grey" d="M56.54,44.45,61,47.14c-4.86,3.5-.44,7.71-.84,11.73,1.49.42,2.37-.57,3.43-1.34,1.61-1.17,3.6-2,5.39-.94s5.08.93,4.8,3.57c-.23,2.18-3.62.54-4.66,1.57-3.5,3.49-8.74-.56-12.36,3.39-1.18,1.29-2.55-3.09-4.87-3.4,1.9-1,2.52-3.24,1.58-4.43-1.88-2.36-3.48-4.18-.39-6.65.11-.09-.24-.85-.47-1.25a1.18,1.18,0,0,0-1.69-.45l-.45.23c.23.14.52.45.66.39.43-.18,1.12-.46,1.15-.76C52.56,46.18,54.79,45.56,56.54,44.45Z"/><path class="grey" d="M152.64,16.64c-.58-.8.19-3.1-2.23-1.84s-5.07.71-7.47,1.1c-3.87.64-3-1.77-3.56-3.47,3-.32,4.77-6.13,8.81-2,.26-.4.71-.78.76-1.19.49-5,3.42-3.3,5.87-2,4.25,2.23,8.05,5.59,13.46,2.35,1.06-.63,3.6,1.22,5.46,1.93-5.3,1.46-.22,2.88.22,4.81-3.74-1.23-8-9.4-10.52.48-.84-.86-2.12-1.48-1.64-3.05.82-.69,1.41-1.52.14-2.18-.54-.27-1.91-.45-1.94.47,0,.57,1.24,1.19,1.93,1.78a9,9,0,0,1-1.9-.51c-5.46-2.86-5.43-2.86-6.16,2.64C153.83,16.2,153.07,16.4,152.64,16.64Z"/><path class="grey" d="M73.47,256.21c-.59-3.62,2.46-5.31,4.43-7.09,5.73-5.19,8.86-12.33,14.09-17.83.62,4.85,3.59,10.08-3,13.53-2.39,1.25-5,3.27-6,5.59s-2.54,3.28-4.32,4.57S75.26,256.11,73.47,256.21Z"/><path class="grey" d="M137.71,56.94a4.18,4.18,0,0,1,3.3-3.35c4.94-1,8.87-4.25,13.67-5.56,2.64-.72,5.77-1.22,6-5.45.09-1.8,4.28-1.09,4.64-3.94,1.68-.75,3.46-1,3.91,1.23.51,2.46-1.58,3.34-3.46,3.7-4.11.77-6,2.44-3.09,6.58-4.11,2.25-10-.27-12.64,5.08.12-1.23-.41-1.83-1.66-1.72-.65.05-1.34.16-1.33,1,0,1.21.84,1.62,1.89,1.73-2.29.14-4.3,3.14-7,.3-1-1.09-1.14,1-1.72,1.55C138.51,59.78,137.64,59.27,137.71,56.94Z"/><path class="grey" d="M371.53,238.48c-.36.33-.68.87-1.08.94-1.89.32-4.94-1.13-5.27,1.54-.27,2.24,1.36,4.76,3.83,6-1.27,1.5,1.23,2.61.44,4-.49.86-1.46.49-2.24.56-2.12.17-1.93-1.51-1.88-2.68.19-4.21-1.4-6.54-5.91-6.15-1,.08-1.4-.82-1.76-1.47-.82-1.44,1.47-12.25,2.83-13,3.26-1.91,1.27,3.27,3.59,2.74-.61,5.3,2.15,7.05,7,6.69C371.19,237.63,371.37,238.19,371.53,238.48Z"/><path class="grey" d="M99.62,63.48a2.42,2.42,0,0,1,1.91-2.57c6.68-1.38,13.38-2.89,20.13-.31-3.75,2.62-7.29,5.83-12.45,4.78a1.16,1.16,0,0,0-.49,0C104.62,66.35,102.72,66,99.62,63.48Z"/><path class="grey" d="M55.7,194.63c.71,1.91,1.64,4.16-1,5.05s-4.52,4.95-8.06,2.44c-1.16-.83-2.19-1.25-3-.13-2.43,3.52-6.07,2.4-9.34,2.71C42,202.52,47.34,195.36,55.7,194.63Z"/><path class="grey" d="M75.49,66.66c6-1.34,11.92-4.16,18.33-1.9.08,1.58.11,3.12,2.5,2.28,1.38-.48,3-.89,4,.63.62.92-.32,1.45-1,1.82-1.8.92-4.28,1.93-5.24-.14-2.15-4.63-5.73-2.27-8.74-2.36C82,66.89,78.7,68.93,75.49,66.66Z"/><path class="grey" d="M185.64,28.31c1.29-2.14,1.16-5.87,5.28-4.9,3.79.9,6.64,2.77,6.63,7.21a5,5,0,0,0-3.26.7C190.1,34.25,188,30.78,185.64,28.31Z"/><path class="grey" d="M66.51,264.1a2.44,2.44,0,0,1,2-2.62l2,.14c.25.64.68,1,1.31.55.12-.1-.15-.72-.24-1.11l-.93-3.16a2.79,2.79,0,0,1,2.78-1.56c.35,1.16,1.45,2.27.07,3.52-.55.51-1.29,1.1-.81,2.08,1.12,2.32.16,4.34-2.63,5-1.94.46-5-.87-4.21,3.26,0,.18-2.29.83-3.95,1.42,2.17-2.3,2.79-5.26,5.7-6.28C68,265.18,67,264.47,66.51,264.1Z"/><path class="grey" d="M290.63,284.65c-4.31,2.76-9.26,2.35-14,3.12-2.62.42-3.61,0-4.21-2.31C278.47,285.1,284.35,280.42,290.63,284.65Z"/><path class="grey" d="M340.38,163.28c.45,2.35-.22,4.83,1,7.12.71,1.31,0,2.54-1.07,3.36-.17.13-1.16-.8-1.77-1.25.17-1.64.32-3.15-1.17-4.5-3.82-3.42-1-7.34-.52-11.06a8.7,8.7,0,0,1,1.8-.11c.18,1-.19,2.3,1.14,2.89C340.5,160.83,339.22,162.25,340.38,163.28Z"/><path class="grey" d="M74.83,198.34c-3.34-.52-6.64-1.85-10.07-1.17s-3.61-1.09-3.16-3.61c3.88-1.61,7.39.63,11.07,1C75.1,194.87,74.52,196.86,74.83,198.34Z"/><path class="grey" d="M168.49,34.31c.06-1.25.87-1.44,1.93-1.68,4.3-1,8.57-2.11,12.85-3.19-2.39,1.92-2.27,6.41-6.81,6.28-1.55,0-3.56,4.15-4.39-.83C172,34.36,169.85,33.74,168.49,34.31Z"/><path class="grey" d="M356.09,116.77c-2.52,2.25-4.1,6.23-8.67,4.67,1.63-1.37.54-3,.51-4.6s-.41-3.32,1.12-4,2.71.26,3.76,1.62C353.58,115.48,355,116,356.09,116.77Z"/><path class="grey" d="M193.5,219.54c3.7-.19,7.4-2.51,11.09,0-4.24,3.71-12.65,4.52-16.18,1.54C189.71,219.24,192.34,221.73,193.5,219.54Z"/><path class="grey" d="M206.65,16.68c-.35-2-2.27-3.66-1.14-5.92,1.29-2.68,3.62-1.92,6-1.88-.27.59-.35,1.22-.67,1.38-1.13.56-2.51.54-3.21,2-.62,1.23,1,1.11,1.28,1.63C210.88,17.38,208.07,16.35,206.65,16.68Z"/><path class="grey" d="M355.58,246.35c2.16,1.83,3.83,3.37,5.65,4.72.81.61,1.92.92,1,2.12a2.23,2.23,0,0,1-2.64.76C356.18,252.81,355.13,250.35,355.58,246.35Z"/><path class="grey" d="M51,67.63l1.59,7c-1.53-1.2-4.64-.18-4.88-2.94A3.44,3.44,0,0,1,51,67.63Z"/><path class="grey" d="M160.46,201.48c3.19,2.33,2.92,5.81,3,9.16C159.39,208.6,157.87,205.72,160.46,201.48Z"/><path class="grey" d="M356.59,169.51a8.22,8.22,0,0,1-1.46-.91c1.31-3.26.18-6.55-.12-10.31,4.93,2.44.16,6.72,2.52,9.22C357.42,168.28,357.74,169.24,356.59,169.51Z"/><path class="grey" d="M125.8,60.73c1.2-.95,2.35-2,4.09-1.46.2,1.58.93,3.41-1.37,4.07S125.91,62.44,125.8,60.73Z"/><path class="grey" d="M64.26,69.48c-1.69-2,0-3,1.4-2.83,1.65.19,4.52-2.65,5,1.5Z"/><path class="grey" d="M131.61,58.24c-.24-.41-.38-.94-.73-1.21-.93-.72-2-1.61-1-2.67s2,0,2.82.79c.64.67,1.25,1.36,1.87,2.05C134.21,59.34,132.91,58.81,131.61,58.24Z"/><path class="grey" d="M242.3,347.65c1.85-.26,3.79-1,5.29.88C245.47,350.33,243.15,353.38,242.3,347.65Z"/><path class="grey" d="M338.61,139.17c1,1.71,3.6,2.65,2.7,5.11a1.23,1.23,0,0,1-1.14.38C338.07,143.35,338.37,141.25,338.61,139.17Z"/><path class="grey" d="M180.92,218.31l1.64.16c.5,2.15,1.61,2.13,3.08.88l.07-.16c-1.13.66-1.16,2.81-3.33,2.13C180.6,220.77,180.67,219.67,180.92,218.31Z"/><path class="grey" d="M93.83,64.75c.09-1.2-.25-2.62,1.56-2.92,1.51-.26,1.87.79,2.24,1.85C96.85,65.77,95.19,64.73,93.83,64.75Z"/><path class="grey" d="M336.63,174.72l-1.23,6C333.41,178.21,333.71,176.2,336.63,174.72Z"/><path class="grey" d="M174.6,218.49c1.61-.82,3.2-2.23,5-.25C178,220,176.33,220,174.6,218.49Z"/><path class="grey" d="M355.27,175.5c-3.27-2.21-.88-3.09,1-4.11Z"/><path class="grey" d="M342.64,147.77c.31,2.06-.12,3.44-2.65,2.92C340.72,149.58,339.09,146.32,342.64,147.77Z"/><path class="grey" d="M33.79,205.16c.74,2,1,3.7-2.1,2.59C32.23,206.75,32.51,205.55,33.79,205.16Z"/><path class="grey" d="M351.64,178.66c-.13-2.74,1.26-2.1,2.75-1.24C353.89,178.78,353.61,180.59,351.64,178.66Z"/><path class="grey" d="M357.56,118.53c-1-.09-1.45-.56-1.25-1.57C357.76,116.67,358.19,117.18,357.56,118.53Z"/><path class="grey" d="M51.75,61.76a2.07,2.07,0,0,1-1.19,1.81c-.62-.27-1-.76-.75-1.4C50.21,61.24,51,61.64,51.75,61.76Z"/><path class="black" d="M242.24,149.71l2,0c-.24.33-.4.79-.72,1-1.07.6-1.28-.09-1.3-1Z"/><path class="grey" d="M73.76,66.73l.25-1.3.64,1.08-.41.25Z"/><path class="black" d="M344.3,139.35l.21.05s-.09.12-.1.1Z"/><path class="grey" d="M84.33,36.8a2.49,2.49,0,0,1-2.23,1.64c-.7,0-1.34-.44-1.15-1.2a2.15,2.15,0,0,1,2.19-1.6A1,1,0,0,1,84.33,36.8Z"/><path class="grey" d="M194.59,15.58c1.58-.82,1.28.47,1.42,1.26l-1.3,1.78C194.77,17.6,193,16.66,194.59,15.58Z"/><path class="grey" d="M194.63,21.54l-.53.73c-.14-.24-.41-.5-.4-.74s.3-.47.46-.71Z"/><path class="grey" d="M78.43,37.09c-.1.08-.21.23-.3.23s-.16-.18-.24-.28c.1-.08.2-.23.29-.22S78.35,37,78.43,37.09Z"/></g></g></svg>